<svg xmlns="http://www.w3.org/2000/svg" viewBox="0 0 1257.3 917.9"><title>Asset 2</title><path d="M640.8,289.4c-11.6,13.3-21.1,24.2-32.5,35.8a40,40,0,0,1-3.1,2.7c-2.8.8-8.4,1.4-10.8,2.8C572.8,342.9,539,342,525,320.4c-30.6-47.1,7.3-103.7,32.9-143.1.7-1-.2-2.1-1.3-1.1-7.1,6.4-14,13.2-20.9,19.9l-6.2,6.3a1.4,1.4,0,0,0-.8.5L528,204c-32.5,33.6-60.8,69.1-82.3,110.8-.1.3-.2.1-.3.5a4.9,4.9,0,0,1-.3.7c-8.9,20.7-15.1,33.9-20.9,57.4-9.9,40.3-11.5,58.7,16.7,94-34.4-9.9-67-7.7-102.6,1.3-18,4.6-40.9,11.8-59.9,21.9-21.4,11.4-43.6,27-63.6,42.6-17.5,13.8-29.6,28.9-44.1,47.8-16.1,21-32.1,44.4-50.9,66.8-32.3,38.5-63.7,92.4-84.7,133.3C15.2,820,6.1,850,27.7,881.5c10.9,15.8,19.4,14,34.9,20.3s26.6,2.7,45.8-1.8C179.6,883.4,226,793.3,287.9,762.8c24.7-12.2,29-18.4,50.6-32.5-27.4,20.4-36.4,18.4-66.1,44-31.4,27-75,75.1-113.2,99.7S89.4,921.6,46.4,901.1c-45-21.4-47.7-46.5-28.3-96.2S77.2,697,107.5,648.6c.4-.6,1.3-2.5.9-2.3s1.4-1.6,1.6-1.8c27-32.6,69.7-86,97.7-111.2,52.7-47.7,148.7-100.4,215.9-87.8,2.2.4,2.9-1.2.7-1.7-38.3-9.1-79.5,7.2-119.2,23.6-43.1,17.8-90.9,49.9-125.7,90.7-32.3,38-72.8,87.1-102.8,128.7C48.6,725.6,13,788,4.3,833.6c-2.4,13-2.4,21.3-3.8,33.8-.2-.1-.4.5-.5.7,3.6,8.6,11.1,16,16.8,23.3l.5.5c.1.1,0,.1,0,.1l1.2,1.4h-.1c3.4,3.7,6.6,7.6,10.6,10.5,0,.1-.1.1-.1.2l1.6.8v-.3c2.4,1.3,4.8,2.5,7.3,3.6,4.9,2.2,9.8,4.3,14.8,6.3h-.1l1.8.7h-.1c7,2.5,14.1,2.9,21.5,2.8.1,0-.1.1,0,.1h2c13.8-1.6,23-.6,36.2-7.8s24.1-13.5,37.4-22.2c8.6-5.6,20.6-16.5,29.5-24.1a211.5,211.5,0,0,0,21.9-21.6c9.8-10.7,22.8-23.7,33.4-34.7,1.3-1.4,2.8-3.1,4.2-4.4h-.1c3-2.6,6-5.2,9.1-7.7,2.9-4.4,5.8-8.5,9-12.7,9.5-12.8,19.3-25.6,28.6-38.6,1.7-2.5,3.6-5,5.4-7.4l1-1.5c7.7-10.8,13.4-24.5,17.6-36.3,3-8.6,5.4-14.7,7.4-22.7,1.3-5.1-.3-8.4-1.3-13.2,0-.2.1,0,0-.2a2.9,2.9,0,0,0-.2-.9,4.2,4.2,0,0,0-.3-1.2h0v.2c-.8-2.9-1.5-5.9-2.4-8.8-1.7-5.8-3.3-11.1-6.8-16.2v.3c-2-2.1-4-4.2-6.1-6.1h-.2a19.7,19.7,0,0,1-3.4-3h-.2c-1.3-.7-2.1-2.4-3.2-3.3-27.6-21.6-68.6-35.3-103.6-20.1-17.1,7.4-27.3,22.1-42.1,39.9a259.1,259.1,0,0,0-40.3,68c-13.6,33.8-24,79.9-8.8,115.5,9.7,32.5,63.9,39.7,97.4,44.3,64.5,8.7,155.5,7.6,220.5.2,35.3-4,54-.4,86.2-1.7-19.6,1.7-45.9.9-63.3,1.3-71.6,1.4-332.9,38.1-356.4-48.4C73,783.2,96,716.1,117.8,677.5c9.4-16.7,21.3-29.7,32.8-46.8,4.6-6.9,16.5-31.6,29.7-30.5,2.3.1,2.6-1.1,1.5-1.9-3.6-2.5-6.8-1.3-9.9,2.2-6.6,7.3-12.1,9.5-16.9,19.7-8.9,19.1-22.4,25.8-34.4,48.1C96.5,713,75,756.6,78.7,814.4c4.1,66.1,110.5,66.3,167.6,67.1s134.9-7.2,189.9-7.9,90.3-3.4,140.9-9.9C531.5,873.4,479.8,874,438,878c-78.9,7.7-359.9,43.3-372.6-53.5C54.9,744.1,106.8,654.2,165.1,599c1.3-1.3,3.1-6.4,1.2-4.1-40.7,49.1-34,28.5-74.5,95.6C.9,840.8,91.4,894.6,238.3,890.8c85.1-2.2,130.2-7.2,204.2-11.2,26.9-1.5,27.8,1.4,53.9-2.3-20.4,2.8-32.9,4.3-54,4.9-52.7,1.4-125.4,11.4-175.2,11.5-51.6.1-186.6,4-207.3-43.3-18.6-42.6-4.2-109,13.3-149.4,7.8-17.9,22.6-34.2,31.7-51.1,4.9-9,12.1-14.8,18.1-22.5,2.4-3.1,5.4-5.3,7.9-8.1s2.6-2.6,4.1-4.6l3.6-4.4c-.1.9.3,1.5,1.3,1.4l.7-.2a2.2,2.2,0,0,0,.7-.9,2.3,2.3,0,0,0-.3-2.3c-.2-.3-.4-.8-.9-.5-7.1,4.3-10.1,7.7-15.7,14.9-7.7,9.9-10,7.9-18.1,21.4C88.5,673.5,91.7,661,70.7,700.9c-93,176.7,52.7,193.9,187.1,194.5,71.7.3,121.8-5,188.2-10.7-97.9,1-316.8,48.8-388.9-27.9-35.6-37.8-17.2-100-8.3-148.2,7.8-41.7,14.4-51.2,38.4-82.4,1-1.3.6-2.6-.5-1.4-29.8,29.6-28.8,42.7-40.6,83.8C32.8,755,24.8,814.9,51.6,857.4c30.4,48.3,176.3,43,229.7,40.7,100.1-4.4,207.9-20.2,309.2-32.8,6.6,0,10.9,1.2,16.6,1.6a.6.6,0,0,0,.5-1c8,.9,15,1.8,23.2,2.4,44.6,3.2,95.4,6.3,131.6-24.9.3-.2.3-.5.4-.9,28.6,3.5,55.5.6,81.6-12,1.3-.7.6-2.7-.8-2.1C773.7,860,689.3,826.9,631.5,784c-12.3-9.2-24-18.2-34.7-29.6,26.1,24.4,65.7,43,101,52.9s75.4,16.8,112.8,13.8a1.1,1.1,0,1,0-.1-2.2,395.1,395.1,0,0,1-113.8-14.5,287.8,287.8,0,0,1-63.9-26.6C688.4,807,756.9,815.9,818.9,809a1,1,0,1,0-.1-2c-20,.8-41.1,1.8-60.9-.1-69.6-6.5-143.3-28.3-187.9-85.2-.1-.2-.2-.2-.3-.2-1.6-2.1-2.8-4-4.5-6.3,14.4,16.3,28.3,30,47.3,42,37.8,23.9,83.2,34.2,128,40.9s89.1,6.6,132.5-5.1c1.3-.4,1.2-2.2-.3-2-24.8,3.9-48,9.5-73.5,9.1-45.6-.9-90.9-5.5-135.1-20.4s-70.7-37.2-102.7-70c-.1-.1-.1-.4-.2-.5s-1.5-2.2-2.9-3.7c17,17.8,30.3,34,52.3,47.3,95.8,57.9,228.1,55.4,325.3,1.5,1.2-.7.6-2.6-.7-1.9-29,15.3-59.5,27.8-91.7,34.3-55.9,11.2-111.7,5.6-167.4-6.8-53.4-12-90.7-41.1-123.5-84.3-.1-.1.1-.2-.2-.4,4.6,5.4,7.6,9.6,13.1,14.4,12.2,10.7,19.9,17.7,33.8,27.1,49.4,33.6,99.6,54.3,153.5,87.9s121.2,63,186.3,29.9c1.5-.7.7-2.1-.6-1.5-33.5,15.5-73.1,16.1-107.4,6.5-59-16.6-116.9-57.5-166.3-90.9-23.5-15.9-48.8-21-70.2-38.1-10.5-8.4-19.1-14-28.5-22.9a129.2,129.2,0,0,1-24.7-31.8c16.9,20.7,28.1,32.8,49.4,48.9,55.3,41.6,115.7,65.6,183.5,102.6s138.8,61,210.6-3.5c1.5-1.4,1.1-2.2-.1-1.2-30.8,26.3-76,43.8-115.6,39.3-70.6-7.9-149.3-63.2-207.1-99.8-27.5-17.4-54.9-26.9-78.6-46.1s-37.8-38-55-60.2a25.6,25.6,0,0,0-3.5-4.9c17.9,20.4,25.5,33.9,46,51.3,52.3,44.2,112,61.4,182.2,95.5C831.8,836,894.9,890,986.1,813.3c.1-.1,6.1,2.5,2.8.9a380.2,380.2,0,0,0,53.6-5.4c9-1.5,17.9-3.9,26.8-6.1l3.8-.3c.7-.1,1-.5,1.3-1.2,70.1-21.5,132.6-64.1,171.3-127.3,3-3.3,6.5-6.5,9.2-10,1.1-1.5-.4-3.1-1.8-1.9a26.1,26.1,0,0,0-2.2,2.4c2.1-4.4,4.5-8.7,6.3-13.2.5-1.3-1.4-2-2.1-.8-4,7.6-8,15.2-12.6,22.6-25.8,23.2-57.6,38.8-90.2,49.7-52.9,17.8-107.3,25.4-162.8,21.6,88.5,2.2,171.3-32.2,239.9-86.6,1.4-1.1-.3-2.7-1.7-1.6-22.1,16.5-43.8,32.8-68.7,45.3-42.2,21.3-85.5,36.2-133.4,39.7-43.3,3.2-85.6-5.4-123.6-26.9,7.1,3.4,16.1,7.5,23.4,10.2,98.5,36.4,227.1-34.8,303.3-93.8,1.2-1-.2-2.7-1.7-1.7-26,19-50.6,38.1-79.6,53.1-49,25.4-98.4,45.6-155.2,47.9-45.8,1.9-90.8-13.5-127.5-41.6-3.5-1.9-5.8-4.2-8.8-6.3,4.7,3,9.8,6.6,14.6,9.2,13.8,7.7,28.4,15.6,43.3,20.1,114.8,34.7,208.8-16.9,298.4-83.9,1.5-1.1-.1-2.8-1.5-1.8-24.7,18.1-50.1,35.7-77,50.5-46.5,25.7-96.1,45.6-149.9,45.8l-7.2-.2c102.8-1.1,194.4-69.1,258.4-144.4,1.2-1.4-.9-2.5-2-1.2-22.3,25-45.4,49.4-72.5,69.4-50.4,37.1-105.6,70-170.1,72.9-56,2.5-111.1-20.9-153.9-56.3l-.4-.2c.1-.1-.2-.2-.3-.3-5.6-4.8-11.3-9.8-16.7-14.7-.2-.1-.4-.2-.4-.3s-1.8-1.4-1-1.2c18.3,17.7,48.1,38.1,70.1,47.9,58.5,26,120.1,21.5,176.3-4.3s101.3-71.6,140.9-118.5c1.3-1.5-.9-3-2.1-1.5-22.1,26.1-46,52-72.4,73.6-48.3,39.6-101.6,64.7-164.5,66-17.4.3-34-4.2-50.9-7.7,58.3,13.3,116.5,1.1,165.6-33.4,29.5-20.7,56.2-46.9,79.6-75.1s43.2-60.1,55.8-94.8a2.5,2.5,0,0,0-.1-1.2,203,203,0,0,1,20.5-1.2c1.8,0,2.5-2.8.5-2.8-36.9.7-69.8,13.7-101,32.7-56.7,34.7-98,87.7-162.1,112.2-32.7,12.5-68.4,12.9-105.6,3.1-30.4-8-67.5-32.2-89.2-56.9,24.9,23.3,60.6,46,93.5,53.2s63.3,4.7,93-4.4c33.8-10.4,58-29.5,83.5-51.7,53.2-46.3,107.9-101,182.2-106.2,1.4-.1,1.8-2.2.3-2.1-37,2-70.2,17.2-100.5,37.6-56.8,38.2-96.9,97.3-164.4,119.9a178.8,178.8,0,0,1-101.1,3.3c-22.2-5.8-47.2-21.1-65.9-35,21.5,15.2,49.9,29.7,75.4,34.7,31.6,6.1,61.3,3,89.9-6.5,33.2-11,56.4-32.2,82.6-53.3s54-46,82.1-67.6,60.4-40.6,97.1-45.8c1.6-.3,2.2-2.7.5-2.5-36.6,4.6-67.3,22.4-96.3,44.2s-54.4,45.7-83.5,68.4-48.3,42.8-85.2,55c-57.3,19.1-113.7,6.9-162.8-29.8,6.4,5.6,16.6,10.2,24.1,14.3,18.8,10.1,42.5,17.9,63,19.3,72.3,4.6,121.8-29.7,172.4-74.8s98.9-92.4,164.6-114.5c1.8-.6,1.3-3-.4-2.5-33.4,10.9-63.1,28.8-90.9,50-51.9,39.5-92.2,90.5-151.8,120.8-30.8,15.7-63.5,21.2-101.3,18.4-36.2-2.7-77.4-27.7-105.5-51.7,31.5,25.3,72.9,48.8,113.3,49.5,36,.7,64.1-7.3,93.3-22.7s49.1-36.4,71.8-58.7,43.7-46.1,67.9-66.5a304.2,304.2,0,0,1,90.8-53.5c1.7-.7,2-3.6.1-2.9-36.1,13.4-64.4,31-94.1,55.6-49.8,41.4-80,90.7-140.4,125.4-66.8,38.3-149,22-206.3-31.5-.7-.6-4.1,1.3-2.1,1.3-.6-.2-.9-.7-1.3-1h1.6l.6.5c31.8,21.7,71.4,46.9,110.5,46.6,34-.2,57.1-17,83.8-34.3s51.3-43,74.5-67.5c46.5-49.4,93.9-102,158.8-126.7,1.9-.7,1.8-3.2,0-2.5-33,12.8-62.1,31.8-88.7,55.2-50.9,44.7-90.3,102.7-147.1,140.6-28.1,18.8-54.2,33.7-89.9,33.2-30.3-.5-59-22.3-85.9-36.8,34.1,15.5,59.2,26.2,90.9,49.7,68.7,51.1,124.3-13.7,167-67.7,45.3-57.3,97.7-105.6,173.7-117,1.9-.3,2.9-3.1,1.1-2.8-36.1,6.8-65,20.8-97.6,39.2s-53.6,49.1-78,76.8-46.7,73-84.8,81.3c-68.9,14.9-113-35.1-170.9-61.2,36.5,13.5,58.1,24.3,93.2,45.9,71.9,44.2,120.6-20.4,163.1-75.1,45.1-58.1,87.7-124.3,169.4-129.8,2.1-.1,2.7-2.9.8-2.7-37.5,4.3-66.8,16-96.6,41.2s-52.1,60.7-76.2,90.6-46.9,61.8-79.7,79.2c-59.2,31.6-114.4-32.6-168.7-49.6,35.3,10.3,55.3,19.9,89.2,39.4,70,40,117.4-24.5,159.3-75.6,21-25.6,46.7-56,68.9-80.9s45.2-43.6,76.5-53.3c1.7-.5,2.3-2.7.4-2.3-32.5,8.6-54.5,28.1-77.9,52.8-47.4,49.8-86.1,123.2-147,157.2-62.8,35.1-123.5-31.4-183.8-41.9-.4,0,0-.3-.3.3l-4.7-1.7-.7-.4c1.2-.2,2.6,0,3.7-.5,17.1,5.8,32.2,5.2,49.6,12.1s32.7,12.7,52.2,24.2c34.9,20.8,51.3,20.7,86.4.3s55.2-48.5,79.4-76.4c45.4-52.2,68.2-105.3,137.5-130.5,2.1-.8,1.6-3.1-.3-2.4-30.3,12-52.9,25.5-76.5,50.1s-41.5,57.6-65.2,84.6-46.6,52.5-79,74.6c-34.6,23.5-57.2,11.8-90.6-6.9-27.2-15.2-50.9-21.8-79.9-29.3a281.9,281.9,0,0,1,79.9,22.9c29,13,54.7,29.1,84.8,7.5s51.6-56.5,77.7-82.5c24.2-24.2,44.7-51.6,67.9-74.3s41.6-35.7,68.9-47.4c.6-.3.5-.3.9-.8a79.6,79.6,0,0,1,20.1,1.6c.7.2,1.3-.8.6-.9-8.2-1.9-15.7-2.8-24.2-1.9s-17.2,3.3-25.6,5.2c-.4-.8-.7-1.2-1.7-.7a29,29,0,0,1-3.3,2c-8.8,4.7-18,5.1-27.5,8.1a208.3,208.3,0,0,0-58.1,29.1c-6.6,4.6-13.8,12.5-19.8,18,19.9-21.8,49.6-49,79.5-53,34.9-4.8,64.4-20.7,98-28.3,1.8-.4,1.4-2.7-.4-2.3-52.2,12.1-106.3,25-152.3,53.5,13.1-9,28.4-25.5,44.5-27.4,37.9-4.5,78.7-29.8,113.7-44.4,1.5-.7,1-2.7-.5-2.1-55.2,20.9-128.5,38.4-170.5,81.6,14.6-13.7,29.2-34.2,48.2-40.2,23.4-7.3,42-15.3,62.4-27.5s42.4-22.4,62.6-34.9c1.5-.8.5-2.5-.9-1.7-22.1,11.8-43.9,22.3-65,36s-38.4,15.9-62.3,26.6c-47.5,21.4-88.6,87-114.9,131.6a17.2,17.2,0,0,1-1.4,2.2c2.6-5.5,5.6-12.2,8.3-17.5a139.7,139.7,0,0,1,10.7-18.3c10.8-15.6,24.3-31.7,35.5-45.7,14.7-18.5,42-53.2,62.8-58.6,27.7-7.1,43.6-19.6,65.2-34.3s40-27.7,62.3-38c1.6-.8,1.3-2.9-.3-2.2-18.9,8.8-37.2,20.2-54,31.9-34.2,23.9-72.3,33.8-105,61.8-14.2,12.3-31.4,34.3-43.9,49.8,19.8-30.6,50.9-58.4,64.8-92.4,24.6-60.3,60.8-114.3,119.9-144.2,5.6,2,11,5.1,16.2,7.9,1.6.9,3.2-1.1,1.7-2-7.2-4.6-15.1-7.8-22.8-11.2-10.6-17.5-19.1-31.9-37.5-42.5-39.3-22.7-83.7-19.2-127.2-12a466.8,466.8,0,0,0-69.1,16.8A248.7,248.7,0,0,1,891.4,186a548.9,548.9,0,0,0,54.3-14.2c50-16.5,108.4-36.1,161.1-29.7,42.5,5.2,77.6,31.8,91.9,71.3.5,1.3,2.8.9,2.3-.3-8.4-21.1-19.3-38.5-38.7-51.6a128.7,128.7,0,0,0-57.8-21.8c-26.7-3.1-53.7,3.3-80,9.5-28.1,6.7-56.6,13.3-84.2,22.1s-56.9,15.5-86.3,18.5c-3.1.3-6.6.1-9.8.4l13.1-2.7c16.2-3.8,30.3-9.9,46.3-15.4,56.6-19.7,115.8-36,175.8-40.3,27.6-2.1,54.6,3,78.2,16.3,21.5,12.1,32.6,29.6,41.3,51.7.4,1.1,2.2.7,1.8-.4-7.8-24.2-20.8-42.3-43.9-54.5-52.4-27.7-113-12.6-167.4.8-29.5,7.2-58.7,14.6-87.2,24.3-15,5.1-28.9,11.3-44.1,15a272.4,272.4,0,0,1-36.8,6.4h-10c-32.8.9-51.5-.3-83,13.8-12.1,5.5-26.7,19.2-35,30,32.7-39.9,68.5-43.4,113.9-46.7s66.1-16.6,103.5-31.2c20.1-7.8,32.8-17.3,50-26.6s32.5-17.7,48.4-22.9c60.8-20.2,154.4-26.2,185.9,42.6.5,1.2,2.7.7,2.1-.5-15.8-31.4-41.9-48.3-77-54.6s-70.7-2.5-105.3,8.6-63.6,34.7-100.3,49.1S854.1,183.1,807.6,187s-82.7,7.7-115.4,48.7c-.2.3-2.8.7-1.1.6-10.2,10-20.6,20.1-29.9,30.5,1.6-4.5,11.2-10.8,13.8-14.4,31.8-43.1,73-61.1,120.8-67.2s70.5-17.4,107.1-34.9,66.4-37.1,102.8-51.1,79.5-26.9,118.4-15.2,58.2,39.1,82.9,66.6c.7.8,2.2.2,1.5-.7-24.3-30.7-48.2-58.8-88.4-69.2C1082.9,71,1042.5,83,1007,96.6s-67.5,33.2-101.4,50.2S837.7,178,796.7,183.3c-28.8,3.7-63.6,7.7-85.2,31.4,18.4-22.3,50.4-31.8,76.4-37.4,38-8,69.2-19.6,103.1-35.6,36-17,71-36,108.5-50.1s77.5-23.9,117.6-20.2c20.3,1.8,38.4,7.9,55.7,16.7s29.6,21.3,44.9,32.3c.8.6,2.2-.3,1.3-1-16.1-13.1-29.9-26.5-49.3-35.4s-36.5-14.4-57.8-15.2c-39.9-1.5-76.3,6.8-114.2,21.3-39.8,15.3-70.4,32.3-112.3,51.8-73.4,34.2-146.7,36-206,103.6-.1.1-3,1.7-.4-.1,25.9-31.1,67.2-62.5,94-89.3,30.9-30.8,51.9-53.7,85.1-76.2,30.6-20.8,62.5-34.6,97.3-46.9,37.4-13.2,78.2-22.7,117.6-25.3s73.8,3.3,103.4,27.7c1.1.8,2.6-.2,1.6-1.1-31.4-27.2-71.6-31.5-112.1-27.9-37.4,3.4-75.7,12.7-111.4,25.1s-66,25.8-97.6,46.9c-63.3,42.1-127.9,105-177.1,163.5L690,229.1c16.4-20.7,42.8-44.4,59.5-60.9,31.7-31.3,55-59.3,89.8-83.6S908.8,43.1,948.4,29C1024,2,1115.8-15.4,1190,25.8c1.7.9,3.5-1.1,1.9-2C1152.6,2.6,1109.1-2.5,1064.8,1A467.5,467.5,0,0,0,840.7,80.5c-34.5,23.6-56.5,48.9-87.6,80.3-16.1,16.2-36.4,31.2-56,56C683.7,233.7,656.4,269.4,640.8,289.4ZM903.5,188.8c14.9-.1,29.8.9,44.7,2.2-19.3,1.3-37.2,3.2-55.9,7.1-44.7,9.1-83.1,10.3-130.6,12.7-23.4,1.2-49.9,40.9-75,55.4-20.8,12.1-49,36.3-68,52.1,18.9-19.5,53.7-48.7,71.6-64.6,22.6-20,52.4-50.9,76.1-51.1,48.5-.4,91.1-.9,136.7-14C902.7,189,903.2,188.8,903.5,188.8Zm-3.4,90.3A406.6,406.6,0,0,0,934.6,256c29.6-21.9,64.6-35.7,101.7-37.9C991.1,238.5,948.3,266.3,900.1,279.1Zm107.2-44.5a258,258,0,0,0-32.9,23.9l-.6-.6c8.8-7.3,18.2-13.7,27.3-20.5ZM892,277.6c-13.4,6-25.1,10.6-39.4,12.5h-2c-4.5.2-9.1.3-13.6.3a.2.2,0,0,0-.2.2c-50.3-.9-97.7,2.1-146.6,14.8-14.9,3.8-32.6,6.4-47,9.7,22.5-11,57.1-22.8,80-28.3,56-13.6,111.4,3,163.1-20,29.5-13.1,50.8-31.5,79.5-44.6,14.6-6.7,29.1-11.4,45.2-13s29,.2,43.5,3.1l-6.6,1.6a51.8,51.8,0,0,0-5.3,1.4,1,1,0,0,0-.8-.4c-36.4.2-71.5,13-101.6,32.5C923.6,258.1,909.6,269.8,892,277.6ZM634.2,317.2c-1.6.4-3.2,1-4,1.1,25.6-13,59.3-27.7,82.3-42.5,30.5-19.6,61.8-22.9,93.2-19.4s52.3-3.8,78.5-17.4,50.1-30.4,80.5-35.3,64.7-3.4,95.4,7.4c-.2.2-.3.2-.6.2s-.3-.3-.5-.4c-16.1-3.1-32-5.5-48.5-4.2s-31.3,6.2-46,12.5c-53.1,23.1-88.2,62.2-151,58.8-30.8-1.6-60.7-3-92.4,5.9C693,291.8,660.6,302.8,634.2,317.2Zm-13.3,2.4c19.3-10.9,62.7-36.5,78.3-46.1,77.1-47.9,221.7-75.5,308.5-76,.3,0-.6.5.1-.1,21.7,3.6,43.8,5.4,64.9,11.8a86.6,86.6,0,0,1-8.9,1.2c-30.6-10.8-62.5-13.2-94.7-9.8-28.2,3-49.2,15.8-75.2,28.6-29,14.2-43,25.8-79.8,24.2S754,247.9,719.6,269C689.9,287.3,652.5,306.6,620.9,319.6ZM849.5,463.9c64.8,7.9,100.9-52.5,131.3-106.6S1043.1,238.2,1101,207c3.9-.9,6.3-.8,9.5-1.3-18.6,10.2-34.8,22.6-46.5,41.5-18.8,30.2-42.2,75.5-59,103.7-29.4,49.2-68.3,141.9-127.7,146.9-61.8,5.3-111-32.3-172-19.7-32.1,6.6-56.6,15.9-87,20.2-26.6,3.8-46.8,3.6-74.1,1.2-49.4-4.4-86.4-21.7-117.7-60.7,32.7,28.3,61.8,44.9,104.6,48.7,52.9,4.7,92.2-10.2,143-22.9C732.7,450,783.8,456,849.5,463.9ZM687.9,268.1c88.1-59,173.6-73.1,275.7-76.3a263.3,263.3,0,0,0,31.2,4.3c-22.2,1.8-45.2,1.2-66.3,7.3-48.6,14-86.7,27.8-140,24.5-49.1-3-119.5,62.5-162.8,86.5C641.9,302.4,673,278,687.9,268.1ZM1046.2,194c-16.3-.6-32.1.2-48.3-.9,32.1-.9,71-11.1,98,11.3-4.9.8-9.8,1.8-14.6,2.9C1070.6,198.7,1059.8,194.6,1046.2,194Zm31.9,13.7c-21.1-5.7-42.8-8.2-64.2-11.9,8.5.4,17.5-.3,26,0C1055.1,196.3,1065.5,199.4,1078.1,207.7Zm-92.4-16.1c22.5-3.2,45.5-5.3,67.9-8.2,26-3.3,50.2-.4,69.8,17.9-4.4.3-8.7.9-13.1,1.3.9-.9.8-3-.8-2.6s-5.6,2.5-8.5,3.6a18.5,18.5,0,0,1-2.3.4C1069.1,177.5,1021.4,191,985.7,191.6Zm-15.3-1.5c-2.7-.3-5.4-.4-8-.9,29.8-2.4,60.3-10.2,89.4-14.7,36.7-5.8,71.4,2.9,98.6,28l-8.4-.7c.3-1.1-.2-2.1-1.4-1.8a36.8,36.8,0,0,0-3.5,1.5l-10.8-.2v-.2c-17.8-18.3-40.8-22.4-65.6-20.5-15.8,1.2-31.4,3.8-47.4,5.4C999.3,187.5,984.6,189.5,970.4,190.1Zm-29.3-2.4c11.3-1.4,22.9-6.2,33.8-9,37.5-9.6,77.8-17,116.1-13.4,31.6,3.1,57.6,15.5,78,39.4l-13.1-1.4a1.4,1.4,0,0,0-1.6-.8l-1.1.4c-.1,0-.1.1-.1-.1s.3-.8-.1-1.2c-26-23.9-58-33.8-93.5-30.2-37.1,3.8-74.9,14.7-112.7,16.8A35.5,35.5,0,0,1,941.1,187.7ZM1024.9,381c-80.3,196.1-94.7,170.5-268.4,144.8-86.1-12.8-116.3,14.9-180.4,2.8-52.1-9.8-85.3-24.8-126.3-56.5,35.3,27.5,79.2,41.2,122.1,44.2,54,3.8,103-1.8,157.3-9.4,56.1-7.8,111.8,35.6,168.4,28.2s100.6-134.2,129.5-183.8c26.1-44.6,49.4-126.8,109.3-144.4,6.9-8,4.5,5.9,12.1-8C1075.1,261.2,1062.3,289.6,1024.9,381ZM440.7,460.2c32.4,25.2,67.5,38.8,107.2,42.1,26.3,2.2,47.5,2.2,73.9-1.2,28.8-3.8,52.2-13.4,82.9-19,61.4-11.2,110.3,26.1,172.2,21.8s102-98.7,130.1-149.2c14.6-26.1,37.4-68.3,53.9-96.9,14.5-25.4,34.6-46.7,63.4-53l1-.3c6.6-5.8-1.1,10.8,8.8-8-67.1,69.1-77.2,81.2-120.7,174.9C916,581.7,907.9,501,738.9,503.9c-80.8,1.3-109.7,16.9-174.8,8.9C509.8,506.3,482.8,494,440.7,460.2Zm747.9-249.9c-2.3-.5-4.3-1.4-6.5-2h-.3l-9.6-2.7c-11.1-12.4-20-22.7-35.7-29.8-32.2-14.5-64.9-13.4-99.7-9.8-19.6,2-39.7,6.5-59.4,10.4s-37.4,10.4-57,9.5c13.7-2,27.4-6.4,40.5-10.7a439.3,439.3,0,0,1,66.3-16.3c23.1-3.8,47.1-8,70.1-5.8C1136.6,156.9,1170,175.1,1188.6,210.3Zm-188,252.5c16.3-28.9,34.4-56.4,50.7-86.2,19.6-35.7,30.8-85.8,56.2-115.7,23.8-28.1,41.5-39.5,73.9-50.8,3.4,2.8,8.2,3.3,12.1,5.4-56.9,28.3-92.4,80.2-116.9,138.2C1059.9,393.1,1025.1,427.4,1000.6,462.8Zm-4.8,26a1.1,1.1,0,0,0,.2.8l-6.9,7.6Zm29.6-33c-3.7,4.6-7.3,9.2-10.9,13.9l-.2.4-11.7,12.5C1010.2,473.7,1017.7,464.7,1025.4,455.8Zm91.8-48.2c-22.7,11.4-35,21.1-56.3,36.6-44.1,32.1-75.3,83.4-107.1,128.3-25.8,36.5-66.9,9.8-98.7-2.5,28.1,7.8,69.9,25.8,90.6-5.9,28.2-43.1,68.1-106.5,114.1-131.2C1080.5,421.7,1094.7,414.1,1117.2,407.6ZM967.5,526.3a2,2,0,0,0,.1,1.3l-5.1,6.3c1.9-2.9,3.7-5.9,5.6-8.9Zm-9.6,14.1-6.5,9.8c2.1-3.8,4.3-7.6,6.4-11.5A2,2,0,0,0,957.9,540.4Zm-217.5,2.5c47.5-1.1,99.2,16.1,145.1,30.2-19.4-3-39.4-8.3-59.4-10.2a3.4,3.4,0,0,0-1.7-1.4c-29.5-6.6-64.2-7-93.3-5.7C682.4,558.1,635,567,588.5,551c-22.3-7.7-44.3-14.9-65.7-26.1s-44.3-23-64.2-37.3c-2.9-3.4-5.3-7-8.1-10.2,34.6,36.9,87.1,54.8,134.8,67.3C636.6,558.2,687,544.2,740.4,542.9ZM1125.1,407c-21.1,14-37.1,29.1-56.8,46.2-43.6,37.8-74.6,108.6-118.5,140.2C911.9,620.6,859,565,818.8,567c8.2-1.7,12.8-.2,21.2.9,16,5.2,48.1,18.3,62.5,20.9C956.9,598.6,1065.4,435.8,1125.1,407ZM794.5,566.3c2.3-.2,4.8,0,7-.2s-.5.3,0,.4c36.8,6.5,48.4,8.7,86,24.6,66.5,28.1,94.4-24.4,127.6-74.3,32.3-48.4,77.9-80.1,121.7-116.5,8.5-.4,16-3.5,24.4-5.2-25.5,12.6-44.7,26.1-65.4,47-23.5,23.7-46.9,50.7-70.2,76.7s-47,62.4-77.4,82S886.5,595,859,584.3C838.1,576,816.8,569.3,794.5,566.3Zm-74.9.5c-22.6,1.7-45.9,7.9-67.5,7s-39.9-5.2-60.1-13.6-39.8-17-59.5-26.2c-9.9-4.6-20.4-11.6-29.8-17.2,8.9,4.5,19.1,10.9,28.1,14.6,43,18.2,83.1,34.9,131.6,32s99.3-5.7,147.3-1l-7.1.3C775,561.6,746.8,564.7,719.6,566.8ZM707,575.9c-33.7,7.1-67.4,14-101,3.6s-64.6-31.7-95.3-51.7c-14.1-9.2-29.7-20.8-43.1-31.5l7.2,4.9c19.3,13.6,43,28.4,63.9,38,39.4,18,74.3,38,118.8,37.1,35.9-.7,74.2-10.9,110.7-10.3C748.6,567.6,725.8,571.9,707,575.9Zm-384.4,161c-34.9,24.6-56.1,45.5-90.2,73.2s-83.3,60.1-126.8,75.3c-22.9,7.9-29,5.8-49.1-4.8-18.3-9.6-20.7-11.7-20.1-33.5,1.3-44.9,41.2-100.9,67.7-137.7,25.2-35.3,66.9-90.1,95.1-119.3C254,533.5,325.4,491.9,401,493.8c21.3.6,30.1,3.2,46.6,7.9s28.9,13.6,42.8,21.1c25.2,13.4,47.3,27.9,72,41.1.5.2.8.4.6-.4,19.4,13.4,31.8,21.5,51.4,36.1,36.8,27.5,67.6,51.6,109.7,78.5,38.7,24.8,84.4,60,122.9,89.4l-1.8-1.3c-75.3-48-159.3-90.4-229.4-143.1-35.3-26.6-54.8-49.5-91.7-72.6s-70.6-39.9-120.3-44.3S284.9,531.3,241.5,566C202,597.6,138.2,669.6,111.7,709.1,87.8,744.8,13.5,831.9,50.4,867.2s96.3-.4,137.5-26.6,83.6-69.5,127.3-99.7c30.6-21.1,65.7-50.8,94.7-75.3C382.8,689.3,351.3,716.6,322.6,736.9Zm108.6-87.7c.3-.4,0-.3-.2-.3s2.1-2.1,3.1-3.1a64.4,64.4,0,0,1-4.9,5.7A14.3,14.3,0,0,0,431.2,649.2Zm9.4-12.9,1.5-1.2h0c-1.4,1.6-2.3,3.5-3.8,5.1-8.8,8.8-18.8,15.8-28.1,23.9-42.7,37.2-85.9,68.7-130.5,105.2-47.3,38.6-99.8,82.1-158.1,102.6S30.8,881.1,50,813.1c18.4-65.3,94.1-127.5,125.8-177.4,35.9-56.5,102.8-95.6,152.4-114.6,52-20.1,97-14.1,140,2.8,80,31.5,111.7,84,183.2,126.9,68.1,40.9,146.8,96.7,219.7,133.6l11,7.1-4.3-.5a2.8,2.8,0,0,0-1.4-1.6,269,269,0,0,1-30.2-15.6C772.5,729.2,693.4,689,622.9,640.6c-5.9-4-8.7-5.7-14.2-9.8.3-.2-.3-.7-.6-.7s-1.6-.4,1.3.6c-33.2-20.3-40.9-36.8-76.2-58-43.1-26-51.5-43.1-119.9-49.1-114-10-199.7,76-272.8,163.3-32,38-100.3,114.3-91.3,167.4,9.3,54.7,94.6,7,130-12.1s93.4-68.4,133-100.6c25.4-20.7,60.7-47.7,86.2-69.2C413.3,659.8,427,649.1,440.6,636.3Zm-83.3,65c0,.1.4.2.2.2-10.9,8.4-21.7,16.7-32.7,24.9.4-.4,1.5-1.3.6-1.6-5-2-2.7-6.2-.8-10.9s4.8-9.4,8-14.8c6.1-10.2,15.6-23.2,23-33.1,16-21.1,44.3-45.8,65.1-56,33.9-16.7,58.2-10.3,82.7,14-4.7-3.1-5.8-6.2-10.9-9-29.2-16.3-50.3-13.9-79,6.2C388.4,638.8,365.6,670.1,357.3,701.3ZM940.9,813.7c1.2-.4,1.7-.8.9-1.9,6.4.3,14.2,1.9,19.6.9-39.2,26.9-80.8,30.9-121.8,10.9-70.1-34.1-134.9-72.1-202.7-99.2-34.3-13.7-53.4-23.8-77-45.2s-37.1-41.8-59.4-62.4a37.6,37.6,0,0,0-4-4.1c19.4,16.8,34,35.7,54.6,51.6,23.8,18.4,45.8,26,75.5,39.4s59.2,23.3,92.8,39.5C788.3,776.5,856.1,842.6,940.9,813.7Zm-51.6-15.4c.8,0,2.7,0,1.7-1.1,1.4.6,2.8,1.7,4,2.3a133.2,133.2,0,0,0,44,11.4c-45.8,21.6-84.6,2.5-123-18.5-66.7-36.6-131.1-68-196.8-94.3-33.5-13.4-49.5-21.6-74.3-41-22.5-17.6-36.5-36.7-59-54.5,19.4,14.2,31.8,27.1,51.5,40.4,46.6,31.3,88.6,45.9,144.4,68.4C742,735.7,819.5,797.8,889.3,798.3Zm-12-5.2c2.5.6,5.4,1.5,7.7,1.8-42.9-1.6-83.1-26.7-119-46.3-32.4-17.6-69.1-32-98.8-46.1-28-13.3-53.2-19.9-77.1-31.5-43.4-21-72.4-53.7-113.6-75.1-2.2-1.8-5-2.8-8.1-4.4,21.3,7.8,35.4,19.2,54.5,32.9,83,59.2,187,79.8,278.5,124.1l.8.2c22.5,15.6,44.7,31.2,69.8,42.4a1.1,1.1,0,0,0,.6.7l2.9.8.9.4C876.7,793.2,877,793.1,877.3,793.1ZM701.4,687.7c28,16.4,57.7,32.5,84.2,50.3-23-12-58.1-25.7-80.2-35.2-46-19.7-92.8-30.5-134.9-51-40.1-19.5-65.7-50.6-108.9-63l-9-3.2c18.7,4.3,30.5,11.1,46.6,20,71.7,39.6,120.7,62.6,201.2,83.1C701.1,688.8,701.2,688.2,701.4,687.7ZM658.1,665l38.6,20c-19.8-3.8-44.7-9.8-63.5-15.1-68.4-19.5-124.2-76.4-189.8-86.6-3-.3-6.8-.6-9.7-.6,10.4-.7,25.8,2.5,35.1,4.8,65.1,15.8,117.1,63.4,188.3,78.2C657.7,665.9,657.8,665.4,658.1,665ZM632,649.8c7,4.6,14.2,8.8,21.5,12.9-17.9-4.4-34.5-9.1-52-15.2-62.6-21.5-111-72.4-181.1-64.3a203.7,203.7,0,0,0-46.9,11.3c15.9-8.3,51.9-18,67.4-16.9,69.4,4.7,122.6,57.7,190.5,72.8C631.9,650.5,631.5,650.3,632,649.8ZM136.5,711c-30.7,35.9-87.3,99.6-79.6,144.7,11,64.6,149.4-35.1,170.8-46.3-40.9,24.1-73,56.1-124.5,64.2C29.8,885,39.9,835.7,71.1,785c33.8-54.9,97.2-136.7,144.8-179.3s94.4-65.4,155.3-79.1c-44.7,13.5-81.8,29.7-119.8,57.7C211.5,613.7,168.5,673.6,136.5,711ZM394.8,525.2c.6,0-.4.5,1.2.1,29.6-.1,64.9,5.6,90.4,19.2,35.8,19,61.1,44.4,92.8,67,8.7,6.2,13.9,11.9,22.8,17.6-5.5-1-10.7-1.9-16.1-3.2.1-.7.5-1.3-.3-1.7-11.2-6.4-17.8-13.9-28.2-22.3s-14-15.2-25.8-23c-23.9-15.6-33-29.5-64.6-39.5-55.1-17.5-110.5-9.1-165.4,25.2S154.8,707.1,115.1,758.5C96.9,782.1,44.8,842,68.7,862c12.4,10.5,27.2-.1,44.3,1.1s40.4-11.1,57.9-20.7c49.1-26.8,94.6-62,137.1-98.7-11.1,9.5-22.5,18.3-33.9,27.9a58.6,58.6,0,0,1-6.4,5.1c-36.4,30.7-93.6,70.8-134.2,85.1-34.7,12.3-80.3,27.1-74.4-21.1,7.1-57.6,71.8-121.2,107.9-160.2C240.5,601,281.1,537.2,394.8,525.2ZM330.4,725.3c-28.7,22.8-53.1,44.2-84,66.4-34.2,24.6-79.9,57.8-119.6,67.2s-72.1,19.6-57-29.6c14.5-47,79.8-104.5,108.6-136,57.7-63,97.6-123.2,170.4-149.6,68.6-24.9,93.6-10.4,146.2,10.7,26.5,10.6,28.6,24,48.2,37.1,17,11.5,22,24,39.7,33.4a185.2,185.2,0,0,1-28.4-10.8l-6.6-3.5c.1-.3.3-.5.2-.9s-.5-1-.9-.7-1.5-.8-1.9-1.4l-.4-.5c0-.5.6-.8,0-1.3-17.6-17.4-31.8-31.6-54-44.8-19.5-11.6-36.7-21-63.3-21.1-23.9-.1-47.3,4-74.1,15.3a366.6,366.6,0,0,0-80,46.8C221.9,642,136.8,747.6,97.7,798.2,80.4,820.5,51,852.7,85.1,858.8c32.2,5.7,51.3-7.9,79.6-20.4,32.9-14.6,65.9-38.8,94.7-58.9,18.9-13.1,30.3-24.7,48-37.4,7.6-5.4,15.6-11.4,23.2-17l6.1-4.6c-7.8,6.6-15.8,13.1-23.9,19.4,5.8-4.6,11.8-9.5,17.3-14.1C330.7,725.3,331.1,724.8,330.4,725.3Zm1.9-2.1h-.1c5.1-3.7,10.3-7.3,15.3-11.1-1.8,1.5-3.6,3.1-5.5,4.4l-.5.3C338.3,718.8,335.3,721,332.3,723.2ZM514.4,593.3c-7.6-2.2-11.2-6-17.4-8.4-.4-.2-.1-.5-.5-.7-18.9-9.1-33.8-17.6-56.3-21-19.9-3-45.5-1-67.1,7.6C308.5,596.4,116.1,765.6,107,833c-3.9,29,104.4-21,120.4-36.4,5.6-5.4,35.3-19.8,42.4-27.6-29.9,20.8-69.2,48.3-101.9,61.6-26.9,11-64.4,32.9-85.5,22-16.9-8.7,38.3-64.3,52.1-82.5,15.3-20.2,67.7-62.4,85-85.9,21.7-29.4,45.6-55,68-73.1,40.6-32.6,88.3-55.6,132.9-56.7S481.9,572.8,514.4,593.3Zm-.2-1.3c-18.4-13.3-30.8-24.6-54.1-31.9-20.7-6.5-38.1-11.1-64.2-5.8-22.7,4.6-45.9,11.3-70.8,28.1s-46.7,29.4-74.2,58.4C203.2,691,134.3,760.7,92.4,819.5c-19.2,26.9-28.3,41,6,36,43.6-6.4,71.5-25,105-42.4s53.8-36.3,83.8-56c-12.1,9-24.3,19.3-36.7,28.2-30,21.4-78,52.5-108.1,62-23.8,7.5-64.4,30.7-68.2,3.1-4.2-31,47.1-76.5,70.7-104.2,26-30.4,67.3-72.3,90.6-103,22.1-29,50.8-48.7,73.2-63.3,44.6-29,95-46.6,142.8-35.1,24.3,5.8,32,15.9,50.2,25.6s26.4,23,41.6,35.9c-.4.2-.1.3.1.5a5.6,5.6,0,0,1,1.4,2c0,.1,0,.1.1.2-8.6-4.6-17.4-8.6-26.1-13a19.4,19.4,0,0,0-3.1-2.6,9.1,9.1,0,0,1-1.3-.8C514.2,592.4,514.5,592.2,514.2,592ZM491,581.4c-13.2-2.7-21.5-5.2-33.9-6.8a127,127,0,0,0-35.9.1c1.1-1.1-1.5.8-1.6.7-27.2-7-88.3,28.2-104.8,41.7-28,22.8-230.6,211.4-150.3,200,37.8-5.4,76.7-33.7,109.7-53.7,17.5-10.6,32.2-22.7,48.7-33.2a18.3,18.3,0,0,1-2.2,1.3c-34.7,27-82.6,56.4-116.1,77.4S88,858.8,122.1,804.8c38.8-61.3,111.2-125.7,152.5-168.1s80.7-60.7,124.5-70.3S455.4,570.7,491,581.4Zm115.6,50.7a251.3,251.3,0,0,0,22.3,15.6c-19.1-5.4-33.1-9-51.2-17.2-33.3-15-54.6-31.1-92.5-46.4-35.7-14.4-93.1-5.9-127.8,18.6-7.3,1.7-12.4,5.8-17.2,8.4,15.1-11.2,47.7-25.6,63.6-30.4C484.1,556.3,533,620.4,606.6,632.1Zm-415.3,153C217.2,735,303.4,643.6,349.6,615.6c43.1-26,79.5-39.5,124.2-20.1.4.2-.8,1,.1.4,3,2.1,6.1,4.1,9,6.3-1.7-1.6-5.1-2.5-5.9-4.4-23.9-7.4-27.4-14.3-56-8.5-56,11.3-108.6,61.1-144,108.3-18.6,24.9-45.6,53.4-59,83.1-1.1,2.5-.7,4.6-.6,7-7.5,2.4-16.9,6.2-24.4,4.2-2.9-.9-3-2.1-4.7-4A12.6,12.6,0,0,0,191.3,785.1ZM338.7,664c-14.4,16.3-36,43.9-46,64.3-4.4,9-1.6,7,1.9,13,1.4,2.3,2.7,2.4,5.2,2.2-7.1,4.4-13.9,9.1-21,13.8.8-.9-.8.5-.9.3-20.3-27.8,60.5-109.4,86.3-130.9,12.6-10.6,48.3-35.5,70.1-35.7,17.6-.2,30.4,1.5,45.4,10.1-11.9-3.9-15.2-8.2-29.1-8.3C408,592.5,366.5,632.6,338.7,664Zm-66.3,97.5a389.5,389.5,0,0,1-42.8,21.7c0-1.3-.7-1.1-2-.7s-1.8,1.2-2.4,1.4c-1.4-1.8-.6-8.2-.1-9.4,3.2-8,6-12.3,10.6-19.5,9.7-15.1,24.4-33,35.9-47,22.1-27.1,51.6-61.7,77-80.2,33.4-24.3,61.7-41.3,101.1-38.9-6.1-1.2-12,1.1-18,1.1-23.5-.2-59.9,27.6-73.3,38.9C331.9,651.1,253.8,732.2,272.4,761.5Zm-84.9,21.2c14.6-36.8,54.8-75.1,80-104.3,36.2-42.1,78.5-76.4,131.4-89.5,12.9-3.2,15.9-2.8,28.5-4.9-30.9,6-51.1,12.4-79.2,30.1C294.9,647.9,222.7,729.4,187.5,782.7ZM486.7,605.1l5,4.7a57,57,0,0,0-5.5-4.5C486.4,605.3,486.7,605.4,486.7,605.1Zm29,33.4c-1.9-1.8-3.1-4.1-4.8-5.7-12.9-12.7-14.7-21.8-34-28.9-36.9-13.6-66.6,6.4-96.2,32.3-15.9,13.8-36.2,40.2-48.5,58.8a118.3,118.3,0,0,0-12.4,24.6c-2.1,5.4-2.4,7.9,2.9,8.3.1,0,.3-.3.4-.2-5.9,4.2-12,8.3-18.1,12.4l.2-.2c.3-.3.8-.9.1-.8a3.8,3.8,0,0,0-1.8.9c-.1.1-.4.4-.6.4s-.4.5-.5.4-1.9-1.2-2.1-1.8-2-.9-2.5-3c-1.1-3.9-3.3-2.3-1.1-8,5-13.7,14.7-26.5,24.6-39.2,17.3-22.1,42.9-50.5,63.6-66.6s43-27.3,65.4-27.4,29.9,10.5,46.4,20.1c.4.2-.1.3.3,0C504,621.9,509.6,630.7,515.7,638.5ZM367.9,695.6c-3.6,2.7-7.1,5.3-10.6,8.3.3-.5-.8.6-1,.7-26.4,18.9-66.5,50.5-91.6,63.9s-84.4,61.8-103.5,38.4c-17.6-21.7,44-75.4,69.3-101,50-50.2,95.4-117.5,179.3-128C370,588.7,333.3,611.3,302,639.7c-.2.2-.5.7-.4.3-37.5,35.4-82.5,81.1-110.3,126-21.9,35.3-5.4,36.7,29.1,23.6,1-.4,1.8-.5,2.7-.9,7-3,14.3-6.2,21-9.5,38.1-19.1,71.8-45.1,105.9-70.4C356,704.3,361.7,699.9,367.9,695.6Zm487.8,77.7a2.6,2.6,0,0,0,.3-.8l4.6,4Zm-141.9-196c14.3-3.2,30.6-4.9,45.2-7.1-19.8,8.5-42.9,14.3-63.6,17a228.8,228.8,0,0,1-58.4.8.1.1,0,0,0-.1-.1h-.2l-3.5-.6c-.3,0-.6-.3-.9-.4C660.1,588.4,686.6,583.3,713.8,577.3ZM833.1,752.2,844,762c-20.9-16-43.7-34.1-64.8-49.1s-45.9-31.5-66.8-45.3-38.6-26.2-56.1-38.6-32.7-24.9-49.8-38.1c-9.1-7-16.4-12.8-26-18.9A295.5,295.5,0,0,0,613,584.1l2.3.6c.1.3,0,.6.3.8,7.1,6.1,13.5,10.3,21.2,16.1s13.3,9.9,22.4,16.7c18.2,13.5,33.8,24.3,53.8,39.5,39,29.5,78.5,65.3,119.3,94.1C832.5,752.1,832.9,752.3,833.1,752.2Zm-214.6-167,8.4,1.1c6.9,3.6,13.8,7.4,20.6,11.1a48.3,48.3,0,0,0,8.5,4.8c37.8,24.5,70,49.6,104,80.4,20.6,18.6,44.6,42.2,65.1,62.1-36.7-29.5-75.3-61.8-112.3-89.8-19-14.4-34.5-25.3-52-38.2-9.1-6.8-14.6-10.5-22.6-16.7S625.7,590,618.5,585.2ZM784,690.5c6,10,12.3,19.9,18.9,29.6-16.2-15.8-32.6-31.5-49.5-46.7,9.7,6.4,19.3,12.7,29.8,17.7C783.8,691.4,783.9,691,784,690.5Zm-5.1-8.3c.2.1.3,0,.5-.1l4.2,7.7-.3-.3-23.8-14.3c-3.5-2.2-8.9-5.2-12.5-7.8-1.5-1.1-2.6-2.5-4-3.6l.4.2C754.7,671.4,766.1,677.8,778.9,682.2Zm-17.8-37.7c.5.2.4.3.5.4a2.4,2.4,0,0,0,1.1,1.6l.6.3h.4c1,2.7,2,5.4,3.1,8a670.5,670.5,0,0,1-75.6-34.7c7.9,3.5,14.6,6,22.8,9.4s14.9,6.7,25.9,9.8C741.9,640,757,643.1,761.1,644.5Zm-1.3-2.3c-4.4-1.4-8.9-2.3-13.5-3.5a174.4,174.4,0,0,1-25.9-8.5c-14.9-6.5-29.6-12.6-44.2-19.5,26.8,7.9,54.6,13.6,82.2,18.3,1.1,4.4,2.4,8.7,3.7,13.1.1.4.3.8.4,1.1Zm8,15.4,3.8,8.7c-13.2-6.5-26.4-11.7-39.3-18.9-9.1-5.1-18.2-11.7-27-17.5A527.8,527.8,0,0,0,767.8,657.6Zm5.1,11.5c1.8,3.7,3.6,7.4,5.5,11.1-5.7-3-11.7-5.6-17.3-8.5a184.9,184.9,0,0,1-16.3-9.2c-3.1-1.9-6.2-3.9-9.2-6-.2-.1-.1-.3-.3-.6s-.6-.7-1-.3-3.1-2.1-4.5-3.3c-6.5-5.8-13-11.6-19.8-17.1,7.4,4.8,14.4,10,22,14.4A278.7,278.7,0,0,0,772.9,669.1Zm-13.2-95.8a31.4,31.4,0,0,0-3.5,7.4c-19.7,8.6-40.2,14.7-61.5,15.9-15.9.9-29.7-1.2-45.1-4.2a309.3,309.3,0,0,0,46.1-2.8C717.5,586.6,739.1,581.5,759.7,573.3Zm-4.5,11.6a120.8,120.8,0,0,0-1,13.4c-19.8,8.1-40.4,7.7-61.3,6.8-11-.4-21-.7-31.6-3.1l-.8-.4c-4.2-2.5-8.5-4.9-12.9-7.1C682.6,605.2,722.5,601,755.2,584.9Zm-1,16.9a155.5,155.5,0,0,0,3.5,24.5c-20.1-3.4-40.5-7.4-60.2-11.8-9.5-2.2-17.4-5.1-26.5-8.1,7.9.6,15.3,1,23.2,1.3C714.9,608.6,734.6,609.5,754.2,601.8Zm2.7,5.2c.8,3.7.9,6.9,2,10.6,6,20.1,12,37,22.7,55.9,18.9,33.2,43.9,64.1,70.2,92.2-14.3-12.6-28.2-25.9-42-39.1a2.7,2.7,0,0,0-.5-1.1c-17.6-24.6-32.8-51-43.4-79.4-2.2-5.8-3.3-11-5.1-16.8.8-.7.1-1.6-.5-2.3A189.7,189.7,0,0,1,756.9,607ZM773,576.3l-3.5-2.5-1.5-1.3c-.4-.4-.3-.5-.6-.8C769.2,573.3,771.1,574.8,773,576.3Zm191.4,67.6c-6.2,3.4-10,7.9-17,10.1s-13.9,6.4-23.6,6.6c-19.8.5-34.1.1-54.8-7.2-41-14.5-78.8-44.3-103.9-80.7l-.7-.9-.8-1.3a4.7,4.7,0,0,1-.5-1c0-.2.2-.1.2,0l.4.4c.1.2.4.3.6.7a2,2,0,0,0,.5.9l1.3,1.1c14.7,16.6,33.9,33.6,51.8,45.4s38.2,21.5,57.8,26.4C907,652.1,933.8,650,964.4,643.9Zm74.7-40.9c-12.6,16.3-22.3,33-40.9,43.7-35.4,20.3-72.8,27.8-114,16.1-25-7.1-54.4-23.7-75.1-40.9,17.8,13.4,39.1,26.7,60.3,33.8s37.6,9.2,58,6.6c17-2.2,29.1-9.2,41.9-19.9,1.6-.6,3.4-1.1,5-1.8C997.7,631,1018.8,618,1039.1,603Zm66.5-53.3c-13.8,27.3-29.4,54-52,75.1-39.4,36.6-85.5,58.5-141.3,51.1-30.1-4-65.1-21.3-89.2-41.2.6,1.1,3.2,2.2,4.6,3.2,37,26.6,83.8,38.6,128,28.8,40.4-8.9,64.1-32.1,86.6-64.4.5-.6-.6-.9-.7-1.4l14.1-11.2C1072.2,576.4,1088.6,562.5,1105.6,549.7Zm32.5-22.8c-.3,0,.1.1.1.1-14.5,29.8-26.4,58.6-48.8,84.1-41.5,47.2-84.6,77.8-151.5,77.7-58.4-.1-117.8-41-152.9-86.5,14.4,18.5,41.4,38.5,60.1,50.3,46.1,28.9,100.7,35,149.7,15.3,54.2-21.8,88.7-67.7,113.7-118.1.4-.9-.6-1.3-1-1.7C1117.5,540.7,1127.6,533.6,1138.1,526.9ZM783.8,604.5c.1.3,0,.5.3.8l3.4,4.2c-.2.1-.3.1-.3.3-2-2.7-3.8-5.4-5.7-8.1C782.2,602.6,783.1,603.5,783.8,604.5Zm24.7,29.9c-2.6-2.7-5.6-5.2-8.1-8s-6.2-7.4-9.2-11.1C796.7,621.8,802.6,628.2,808.5,634.4Zm374.2-129.7c-17.9,32.3-34.1,63.1-58.1,91.9-44.1,52.8-89.6,90.3-160.9,98.3-47,5.3-95.3-15.4-131.6-44.2,7.6,6.4,20.2,14.5,28.7,19,55,28.9,117.2,28.2,170.3-3.5s85.1-83.5,109.6-138.5c.5-1-.8-1.3-1.3-1.6A316.7,316.7,0,0,1,1182.7,504.7ZM815.4,638.5c17,17.2,45.2,36.2,66.4,45.3,61.5,26.4,127,13.3,180-23.4,55.6-38.4,93-96.7,123.8-155.7.2-.3,0-.8.1-1.1a198.6,198.6,0,0,1,28.1-6.8c-15.4,38.1-34.9,72-62.7,102.7-48.9,53.9-98.7,96.6-175.2,104.3C917.5,709.8,855.8,679.7,815.4,638.5Zm35.7,38.1c12.2,8.4,24.8,15.9,37.6,23.3C875.7,692.8,863,685.4,851.1,676.6Zm293.3,52.3c-28.7,9.2-52.9,18.9-82.5,23.4-59.7,9.1-116.3,6.5-169.8-27.5-24.8-15.7-49.4-39.2-71.1-62.6s-45.2-51.9-56.5-83.1c-.3-1.2.1-1.9.1-2.9.7,1.3,1.4,2.6,2,3.9s-.6.5-.2,1.1l2.8,3.4c19.8,36,52.3,70.6,82.9,96.5,62.8,53.1,117.7,72.1,197.4,66.6C1086.6,745.2,1109.7,736.9,1144.4,728.9Zm87.1-42.7c-15.3,12-29.8,25.5-47,34.7-18.8,10.1-38,19.5-58.4,25.5-67.3,19.7-143.4,36-210.2,2.1-29.9-15.1-61-42.7-84.5-69-11.7-13.1-27.1-31-37.8-45.8l-1.3-1.8c9.8,11.7,21,25.3,31.5,36,104,106,205.1,115.1,337.7,55.2.4-.2.3-.4.6-.7l4.4-1.7C1189.6,711.7,1211.4,700.7,1231.5,686.2Zm-27,35.9c-32.9,20.5-66.8,36.4-105,44.3-66.3,13.7-135.9,19.7-197.6-17.6-28.4-17.1-57.3-46.1-80.6-73.2-17.5-20.3-37.5-46-49-71.1,5.2,9.9,12.8,20.5,19.4,29.8,12.3,17.8,29.3,35.8,43.2,51.6,54,61.3,113.7,89.4,193.6,83.1,43.5-3.5,72.5-12.8,111.2-24.8,20-6.2,34.3-14.9,52-24.6,15.2-8.4,26.6-20,40.2-30.3C1223.2,700.7,1214,711.4,1204.5,722.1Zm-45.3,36.7c-34,15.1-68.2,25.5-105.8,28.1-31.3,2.2-59.4,1.1-92.1-4.8s-61-15.9-90.2-39.1c-40.6-32.3-85.8-80-103.9-131.2a89.5,89.5,0,0,1-3-24.8c9.7,35.9,36.3,66.8,59.5,94.2,50.5,59.7,101.6,93.8,178.5,97.9,42.1,2.2,69.4-4.9,106.6-12.6,32.4-6.7,57.3-20,86-34.8-11.5,9.4-22.5,18.6-34.6,27C1159.8,758.5,1159.7,758.6,1159.2,758.8Zm-89.6,41.4c-33,.8-55.2,2.9-89.8-1.1-59.4-6.8-100.5-25.7-142.3-71.8-25.2-27.8-47.9-59.6-63.4-94.1a308.7,308.7,0,0,0,22.8,35.4c21.5,29.3,51.1,59.3,78.4,80.7s60,31.5,92.4,36.5c62.5,9.7,121,3.7,179.4-18.4A419.9,419.9,0,0,1,1069.6,800.2ZM869,779.7l-.9-.7-.6-.8a449.9,449.9,0,0,1-82.4-102.7c-10.7-18.5-17.2-35.5-22.9-55-2.8-9.3-2.5-16.5-3-25.5-.2-4.3.9-7.2,1.3-11.2a104.9,104.9,0,0,0,1.6,16.7c3,18.2,11.1,38.4,19.7,54.4,25.8,47.8,73.7,107,122.7,128.9s97.4,19.7,149.5,20.4C990.5,816.3,924.6,816.3,869,779.7ZM516.2,637.3c-.5-1.7-1.9-3-3.2-4.7l-8.5-10.9c21.2,22.4,37.8,47.4,63,66.9s46.3,28.5,78.8,42.2,61.2,26.4,101.4,47c80,40.8,122.3,86.5,219.1,36.2.4-.3,2.6.8,1.7-.3,4.7.2,10.5,1,14.2.2-38.9,32.1-89.5,46.8-136.3,28.4-73.3-28.7-137.9-69.2-205.8-101.9C579.9,711.1,559.5,685.5,516.2,637.3ZM542.8,680c-2.7-4.7-5.4-9.3-8.2-13.9,2.1,2.9,4.3,5.8,6.4,8.8a.8.8,0,0,0,0,.7A40.7,40.7,0,0,0,542.8,680Zm52.1,72.1-3.6-4.4,3.8,4C595,751.8,595,751.9,594.9,752.1Zm147.3,86.4c-11.5,1.1-23.1-2.8-33.8-6.3s-20.2-6.4-29.5-10c-19.4-7.6-35.8-17.1-53.4-28.4-32.7-21-49.6-46.2-67.8-76.9s-28.2-60.8-52.5-82.9c-20.1-18.3-33.9-29.6-63-18.1-26.7,10.5-48.6,42.9-63,69.2-.1.3-.5.8-.2.7-6.1,4.6-12.2,9-18.4,13.3,8.5-18.3,16.4-36.1,29.3-52.2s34.4-35.2,53-39.2c39.1-8.2,58.6,14.5,79.1,42.1.3.4.4.1.2-.4a10.6,10.6,0,0,0-1-1.7c8.8,12.8,14.2,25.1,22.9,38.4,17.5,26.4,32.4,50.2,55,73.6,21.1,21.7,47.2,39.7,75.3,53.8C694.8,823.8,719.8,832.3,742.2,838.5ZM703,848.7c-18-1-30.2-6.9-49.2-12.1-74.5-20.3-95.5-60.6-122.7-115.5-22.7-45.8-34.9-110.8-85.2-95.6-.3,0,1.1,3.6.1,1.8-.1.3-1.1.3-1.1.6a8.6,8.6,0,0,1-.2,2.3c-19.1,17.6-40.8,35.2-59.4,51.3,10.1-29.4,46.5-68.2,75.6-68.2,61.2-.2,82.3,97.8,116.4,137.8,16.7,19.5,42.9,47,72,59.9,14.3,6.4,33.4,15.8,49.1,20.2,7.5,2.2,15.9,5.1,23.6,6.9,2.8.6,5.7,1.4,8.4,1.9-31.2-.9-62.7-10.6-89.3-26.3-30.8-18.3-55.5-37.5-76.6-63.7s-32-57.3-46.6-82.5c-12.7-21.9-26.3-50.4-54.1-50.5-25.6,0-49.5,28.7-63.8,50.5-.6,1,2.3-.8,2.9-1.6,17.8-23.4,47.7-64.1,79.7-41.1,26.5,19,30.5,42.9,45.9,70.2,16.5,29,29.6,54.5,54.9,78.5,43.3,40.9,104.7,76.5,166.7,66.9,3.4.3,5.5,1,8.5,1.4h-.2C740.5,851.1,722.4,849.8,703,848.7Zm42.4,1c-30.1,10.2-65.9,1-94-8.3s-58.8-22.4-81.7-37.8-42.8-50.7-53.2-75.8-16-55.9-32-76.6c-7.1-9.3-10-14.5-19.7-19.4-4.9-2.4-9.4.2-15,2.9a108.5,108.5,0,0,0-8.8,6.7c2.4-3.6,5.8-7.3,6.5-11.8.6-.7.9-1.6,1.4-2.2s0-.4.1-.5c27.1-10.3,45.1,13.7,57.3,39.3,11.3,23.5,19.3,53.1,34.9,81.8s29.3,47.2,59.6,66c25.6,16,46.9,25,74.5,32.3,13.8,3.6,28.2,4.7,42.6,5.5A109.2,109.2,0,0,0,745.4,849.7Zm-5.1,4.1c-33.5,10.5-72.7-1.3-103-11.4s-63.5-21.3-87.5-37.1-39.7-45.9-46.9-73.3c-6.1-23.3-10.2-54.7-22.5-73.3-6.3-9.4-9.7-14.7-18-22.2-4.2-3.8-20.4,8.8-25.5,12.8-1,.8-5.6,3.9-7.1,5.1l5.8-6.2c.4.3.8.2,1.3,0a14.4,14.4,0,0,0,3.9-2.5c.5-.4.8-.9.6-1.2s-.3-.1-.5-.2-.5.1-.3-.1c2.2-2.5,13.6-10.5,14.7-11,4.6-1.7,5.9-2,8.7-.5,5.8,3.2,7.5,4.4,12.1,10.3,9.2,11.7,15,20,21,35.6,11.5,29.9,16.7,57.4,34.6,87.9,16.2,27.7,32.8,40.4,62.2,54.4s51.5,22.3,81.2,29.6C695.8,855.6,719.1,858.8,740.3,853.8Zm-49.4,12.5c-13.4-1.5-26.8-5.2-39.6-8.8-15.5-4.5-28-8.9-43.4-14.6-56.8-21.1-97.8-41.8-114.1-104.1-8-30.5-9.4-43.7-29-70.5-16.4-22.6-48-3-66.6,17.3,5.3-7.2,12-11.7,18-17.7a4.2,4.2,0,0,0,2.3-1.5c5.8-7.4,19.1-15.7,25.3-20.1s12.7-10.2,15.8-8.9c7.1,3.1,7.6,5.4,12,11.4a97.7,97.7,0,0,1,17.3,36.1c6.7,25.8,10.6,54.1,22.9,79.5,13,27,33.7,44.5,61.4,56.1s55.7,22.4,85.9,31.4c21.8,6.4,46.3,10.5,69.5,7.5A208.6,208.6,0,0,1,690.9,866.3ZM318.3,745.8c-18.8,6.7-16.6,6.8-34.5-2s-30.6-10.1-49.3-1.2c-28.2,13.4-64.3,60.6-26.2,81.4-52.4-26.2-.9-87.5,41.6-98.1,21.3-5.4,24.8,2.9,37.4,17.5s14.5,7.1,29.7,3.2c.9-.3,1-.7,1-1.1l11.2-7.3C325.4,740.4,322.3,744.3,318.3,745.8Zm-27.9.7c-27.9-22.1-19.7-36.4-65.2-14.3-27.7,13.4-37.4,34.8-39.9,64.3-10.3-35.7,30.6-72.5,62.3-78.8,35-7,41.4,10.8,45.3,40.3a37.6,37.6,0,0,0,5.8-2.8c5-2.7,11.2-6,17.1-8C300.7,750.3,304.8,758,290.4,746.5ZM276.3,708c11.7,4.7,15,8.1,15.9,21.5.5,6.8-2.6,12.8-5.1,20.6s-8.2,16.3-13.7,22a55.2,55.2,0,0,1,6.4-6.4c8.4-12,13.3-27.6,10.4-41.4-3.7-17.7-20.9-18-34.9-21,11.7,1.6,26.2-1.2,34.4,9.9,5.7,7.6,4.3,15.1.8,26.1S277,766,269.7,776a9.8,9.8,0,0,0,3-2.8c9.1-12.9,19.7-29,19.8-44.4s-1.9-16.9-16.1-21.8C275.8,706.8,275.9,707.8,276.3,708Zm78.6,112c88.1-5.4,112.9,12,192.5,33.2.4.1.5-.1.8-.3a94.4,94.4,0,0,1,10.6,3.6l3.2,1.1-5.5-1.6c-.1,0,0-.1-.2-.1-76.8-29.2-137.1-27.4-218-24.7C344.4,828.2,350,824.9,354.9,820Zm-16.6,8.8-.5-.2,4.8-1.8Zm-5,4.7c74.5,1,134.2,9.5,206.9,20.1-26.5-2.8-48.4-10.1-76.2-12.3-21.8-1.8-44.3-1.8-69.5-2.8-23.2-.9-54.7,1.4-79.2,1.9C320.9,838.3,327.5,836,333.3,833.5Zm-28.7,7.6c1.4-.5,2.8-1.1,4.2-1.5s4.4-1.1,6.6-1.7Zm203.6-7.6,1.9,1.2-2.6-1ZM243.7,772a2.6,2.6,0,0,0-1.5,0,25.3,25.3,0,0,1,3.7-1.8c0,.2.1.3.3.4l1.3,1.1.6.3a86.6,86.6,0,0,0,11.9,6.7A164.2,164.2,0,0,1,243.7,772Zm-20.9,13.3c-5.1,5.3-4.1,9.2-7.6,14.8,3.4-6.9,1.9-12.1,7.1-18.7C245.9,752.1,266,753,301.5,752c31.7-.9,67.6-29.4,96-34.1,47.8-7.8,55.2,53.1,78.3,81.6-5.6-6-8.6-7.6-14-14.6-34.2-44.7-45.6-62.4-106.2-43.6-25.5,7.9-42.1,15.6-68.8,18.7S243.4,764.3,222.8,785.3Zm224-14.2a44,44,0,0,1,3.5,3.9c-18-12.6-35.3-20.5-58.2-22-14.2-.8-32.6,1.5-47.4,4.7-7.2,1.6-14.7.4-21.7.9s-13,1.5-19.8,1c8.3-1.2,16-4,23.9-6.8,11.5-2.2,23.4-3.4,35-5.7s23.7-3,33.5-1.2c20.8,3.6,34,14.3,50.8,25.2C446.5,771.1,446.7,771,446.8,771.1Zm-48.7-27.7c-19.6-3.2-42.5,2.6-62.5,6.7a42.8,42.8,0,0,0,4.3-1.4c23-9,51.3-18.2,74.2-8.6,13.6,5.6,15.9,14.9,25.7,23.5C425.6,753.5,416.5,746.4,398.1,743.4Zm58.1,39.4c.8,1.2,1.9,2.4,2.8,3.7A122.1,122.1,0,0,0,430.4,772c-15.4-5.6-28.3-9.6-45.6-10.7s-37.3,3.3-55.2,3.8c-9.1.2-18.1,1-27.1.3l-11.8-1.1c-1.9-.2-6.9-2.1-9.4-2.1-.1-.1.3-.2.4-.2,6.7-.6,13.5-1.4,20.2-2.2-.2.1-.6.4-.1.4,6.4,1.2,11.9.7,18.5.1s14.7,1,21.8-.4c14.9-2.7,33.5-5.4,47.6-4.2C416.1,757.9,436,767.3,456.2,782.8Zm8.8,10.5c1.2,1.2,2.2,2.5,3.6,3.7-23.9-15.5-46.2-26.7-76.2-27.3-20.9-.4-46.9,2.1-68.8,1.9-11.1-.2-23,0-33.7-1.3a39.6,39.6,0,0,1-13.6-4.4,26.2,26.2,0,0,0-6.4-2.4l8.9-1.3c1,1.1,1.7,1.1,3.2,1.6,4.4,1.7,8.7,2.1,13.6,2.5a222.1,222.1,0,0,0,27.1.5c18.5-.5,39.9-4.4,57.6-3a166.1,166.1,0,0,1,47.1,10.5C441.7,779.5,451.8,786.7,465,793.3Zm12.8,14.2a40,40,0,0,0,4,4.3c-.5-.4-1.5-.8-1.8-1.2-28.6-22.2-58.4-29.2-95.4-27.4-21.4,1-50.7,2.8-73.4.8s-42.7-3-62.3-14.5c-.2-.2-.5-.2-.8-.3,4.9-1.7,9.9-2.9,15-4.2l3.9-.9c-.4.3-.6.6-.5,1s.8.4,1.1.4h.8c.7-.1,2-.6.9-1.1,2.7.8,5.5,3,7.7,4.2s3.6,2.2,5.8,2.6c4.6.7,8.3,1.2,13,2.1,10.1,1.9,22.1-.3,32.4.3,19.9,1.2,44.9-1.4,63.4-.8C425.4,774,452.8,786.5,477.8,807.5Zm-97.6-21.4c30-1.8,57.2,3,84.1,16.2-22.3-9.2-46.5-16.8-71.4-16.2-9.2.3-22.3-.9-32-1.2C366.9,784.8,374.4,786.4,380.2,786.1Zm109.5,33c2,2,4.5,4,6.9,6s2.5,2.2,4.2,3.4c-15.2-7.7-23.7-13.1-40.8-18.5-36.4-11.4-70.6-10.5-109.9-11.7-19.7-.6-47.1,3-68.7,2.3-11.2-.4-24.9-4.2-36-6.1-5.7-1-10.5-2-15.7-4.4a12.9,12.9,0,0,0-4.7-1.5,53.7,53.7,0,0,1,16.8-16.4c-.3.5-.4.9.2,1.2,12.4,6.3,25.2,9.9,38.9,12.5,12,2.2,26.7,2.1,38.7,3.1,21.1,1.7,50.4.3,69.8-.2C426.5,787.7,459.4,800.6,489.7,819.1Zm17,14.1c-17.3-6.2-25.6-11.4-44.2-15.7-42-9.7-79.1-10.6-124.8-7.5-26.7,1.8-64.5,4.2-94.3-.2-3-.4-16.3-2.7-20.3-1.8-4-6.1-2.1-10.7.4-16.8.3,0-.3-.2.2,0a2.5,2.5,0,0,0,1.9-.1c.6,1.1,1,1.2,2.3,1.6s2.5,1.5,4.1,1.9,6.2,1,9.5,1.5c6.8,1,14.4,2.9,21.2,4,13.5,2.2,30.5,3.1,43.4,3.1,26.1,0,57.9-2.3,81.5-3.5C435.1,797.1,465.6,817.2,506.7,833.2ZM245.3,822.6a2.2,2.2,0,0,0-2.5,1.2c-2.3-1.2-5-2.5-7.2-3.9a52.8,52.8,0,0,1-10.6-8.8c.4-.1.3-.4.5-.6s-.7-.1,1.1-.2c8,3.3,40.9,5.2,45.4,5,19.8-.8,39.5-.7,53.3-2,25.4-2.5,57.3-6,79.1-2.6,29,4.6,52.6,6.5,79.5,16.7-29.8-9.6-59.1-10.4-90.4-12.8-9.2-.7-24.7,2.7-34.7,2.5-.7-.2-.9-.2-1.4.1H357C319.8,820.3,282.6,824.6,245.3,822.6Zm-1.2,1.8c29.5,3.3,58.8-2.5,88.2-3,6.1-.1,11.2,0,17.1-.6l-.5.3C316.7,829,276,837,244.1,824.4Zm80.2,3.4-19.5,3.1c-.1-.4-.2-.4-.7-.3l-8.8,1.4c-12.1.4-24.2.6-36.3.5C280.9,831.8,302.5,830.1,324.3,827.8Zm1.9-1.2c-33.3,14.8-71.8,15.2-105.8,10.4-38.7-5.6-51.9-24.3-46.4-58.2,5.9-36.8,35.3-64.4,62.4-79.9,14.9-8.4,23.7-3.8,35.5-1.3s16.6-3.4,21.8,10.7c10.3,27.9-21.8,62.3-40,82,5-4.3,10-9,15.4-13.8,7.8-10.7,19.6-29.2,22.5-40.5,3.4-13,8.5-26.6-7.6-29.7-50.1-9.9-106.1,22.1-105.5,86.3C178.9,843.6,288.1,844.9,326.2,826.6Zm-44.7-62.3,3.6-2.7c8.5-22.3,11.7-35.3-10.6-48.2-16.6-9.6-29.3-4-45.9,1.4,2.5-1.4,5-3,7.7-4.3a73.6,73.6,0,0,1,15.7-6.3c-.1.2.2.5.4.5,14.2,1.6,31.1,4.5,37.1,18.8,2.5,6,2.8,11,1.8,17.4s-5.6,17.1-9,22.3C280.3,766.3,281.2,764.4,281.5,764.3Zm4.1-3c1.8-.9,3.1-2.1,5.5-2.3-2.1-11.5,5.8-15.4-3.5-27.2-17.1-21.7-33.2-24.1-60.5-10.4s-58.1,57.8-40.4,88.5l-.3.2c6.2,12.2,18.1,15.1,30.5,18.5a3.4,3.4,0,0,0,1,0l9.9,3.2-3.6-.8c-68.1-19.5-45.8-59.7-12.1-103.3,18.9-13.4,41.4-21.6,62.5-12.2,10.6,4.7,12.7,10,16.1,19.2s-1.9,18.1-5.1,26.6ZM651.3,866.6c-51.5-8.8-105.5-29.8-139.8-70-16.7-19.6-25.1-37.8-34.1-61.3-7.8-20.4-5.5-35.8-25.7-52.1-23.7-19.2-63.3,12.7-85.8,30,7.8-6.6,16.4-13.1,23.9-20.3.1-.9,1.4.1,1.7-.3,26.9-30.1,63.1-46,80.7-9.5,16.4,34.1,15.3,52.2,28.2,80.5,11.7,25.9,28.3,41.3,50.2,55.6s51.3,23.6,75.1,32.9c11.1,4.3,24.4,7.1,36.4,10.7,5.1,1.6,11.6,2.8,17,4.1h-3.5C667.5,867,659.5,866.9,651.3,866.6ZM488,785.9c-20.4-33-19.8-84.5-61.5-91.3-34.7-5.7-87.2,58.9-124,56.2-40-3-56.2-19.8-88.1,18.6-15.9,19.2-21.6,35.9.5,51.8,12.8,9.2,28.9,13.8,44.4,15-1.7.3-3.6.3-5.4.7-.1.1-.2-.5-.3-.5-30.8-1.8-67-17.3-55.4-51s35.1-43.3,62.4-46.1c24.7-2.4,20.6,13.7,42.6,11.3,20.2-2.2,42.7-24.2,61-35.1s54.2-42,74.3-35.9c22,6.7,22.1,18.2,30.1,37.5s12.2,39.6,23.2,58,27.3,33.3,44.1,46.3c27.2,21.2,70.3,37.2,103.7,44.8-9.6-.7-19-1.4-28.6-2.7.4.3-.7-1.7-1.3-1.7C560.2,855.4,512.3,825,488,785.9Zm107.3,75.2c-2.6-.4-4.7-1.2-7.7-1.7-34.8-5.5-62.6-15.1-90.1-37.8-.1-.9.9-.8.3-1.3-29.2-26.1-35.2-52-57.7-87.1-18-28.2-45.4-21.1-76.9-4.7-26.4,13.6-52.2,24.9-83.7,24.1s-55.1,9-64.5,42.6c-8.7,30.7,40.4,39.6,63.4,37.9-57.7,4.9-108.9-44.7-41.3-79.5,31.6-16.3,26.7-6.6,51-4.1s33.2-2.5,49.1-13.1c30.4-20.2,84.8-59.2,111.2-25.7,15.4,19.7,14.5,34.1,25.3,53.1s16.3,35.1,33.7,50.9C533.7,838.5,561.6,848.7,595.3,861.1Zm-17-.1H578l8,1.2-7.5-.7C578.6,861.2,578.5,861,578.3,861Zm-8.9,1.8,3.4.3-3.2.2C569.6,863.1,569.6,862.9,569.4,862.8Zm3.8-1.9c-36-3.4-67.9-9.8-104.4-12.7-25.4-2.1-55.2-3-82.9-4.2a280.7,280.7,0,0,0-43.9,2c-14.7,2-35.2-.1-50.9,1.5l21.1-6.3c0,.5.5.6,1.1.7,25.4,1,57.4-2.1,81.4-1.2s46.5,1.1,66,2.6C499.2,846.4,535.8,854.9,573.2,860.9Zm-317.8-5.6a205.9,205.9,0,0,0,23-4.4l7.8-2c.3.6.6.7,1.5.7,16.8-.7,37.3.8,53.4-1.2a296.7,296.7,0,0,1,50.2-1.7c25.4,1.3,46.7,1.2,71.5,3.8-17.8-.7-29.8-1.9-48.4-.7-24.5,1.6-49.6,1-75.8,4.1-13.5,1.6-28.4-.6-46.1.5C288.8,854.6,262.3,856.7,255.4,855.3Zm-12.7,1.3,5.7.3c8.1.2,21.3.9,29,.4,30.6-2.2,72.7-3.9,100.2-4.3,51.2-.8,92.1-1.5,141.1,6-34.4-1.4-60.8-4.4-96.7,0-30.9,3.8-70.7,6.7-105.7,5.5-18.5-.7-45.8.7-66.8-.5-11.1-.6-24.5-.3-37.9-2.6-2.6-.5-17.4-3-21.8-3.5C207.1,858.1,225,858.1,242.7,856.6Zm-71.6-2c-14.9-1-29.1-2.7-43.1-7.8-.9-.3-1.2-.7-2-1a81.3,81.3,0,0,0,16.6,5,203.3,203.3,0,0,0,24.5,3.4l4,.4Zm75.7-.7c0-.6-.6-.7-1.1-.8h-.6a350.3,350.3,0,0,0,48.8-9.4A280.7,280.7,0,0,1,246.8,853.9ZM561.7,863c-12.7-2.3-25.3-2.1-38.1-3.5.1-.3.1-.5-.2-.7,14.5,2.4,29.4,2.6,44,3.8ZM112.8,841.5c13.6,10,29.6,13,46.3,14.7,4.4.5,10,.7,14.8,1,5.6,2,15.1,2.5,20.3,3.6,9.7,2.1,25.5,3.3,34.6,3.8,61.8,3.2,142.4,2.3,199.3-3.9,49.5-5.4,83.9-2.1,129.7,2.3-27.9,2.2-41.9,4-69.5,4.7-58.7,1.4-114.7,4.7-177.4,5.6-32.2.5-84.2,1.2-119-5C165.5,863.6,131.7,861.7,112.8,841.5ZM234.9,600.4C152.2,612.9,108,721,94,794.6c2.5-34.9,12.1-71.9,25.6-102.6,12-27.6,29.9-42.3,43.7-62.2s24.4-22.4,42.9-29.4C216.5,596.5,224.8,601.8,234.9,600.4Zm42.9,13.4c-21.6.6-33.6-5.9-56.2.9-41.3,12.4-72.2,55.8-95.1,94.3C113.3,731.2,86,788.2,99.7,816.1c-2.3-2.1-2.9-5.7-3.9-9-10-40,36.2-119.3,59.5-150.9,25.4-34.4,41.8-49.2,84.7-54.1.8-.1.6,0,.7-.7,6.3,1.7,12.1,4.4,18.3,6.5S271.2,612.2,277.8,613.8Zm39.6,47.7c-32.3-7.8-22.7-33.2-65.1-21.4-66.8,18.5-97.7,49.7-131.2,131.1-25.9,63.2,45.6,103.2,119.4,79.1-2.9,6.8-1.6,2-2.6,4.5-26.6,1.3-53.2-.5-79.7-3.4-.4,0-.3-.2-.7-.2a12.4,12.4,0,0,1-1.8-.2c-4.8.4-8.5-2.2-12.9-3.3-48.3-11.8-36.5-56.3-27.7-88.6,9.4-34.6,47.2-84.6,66.5-98.4,41.6-29.8,93.5-45.6,129.6-10.3.9.8,1.6-1.1.5-1.8-27-17.8-41.3-22.6-77.4-17.6-58.6,8.2-112.5,88.8-126.8,146.6-4.2,17.1-9.2,51.1,14.6,61.2-22.6-10.4-25-33.6-21.1-55.2,9.9-54.8,44.9-111.2,83.9-144.1s50-24.3,94.7-24c1.1,0-.2.6.3-.6a202.8,202.8,0,0,1,24.5,21c4.3,4.4,6.3,9.8,8.1,15.7.1.4,0,1,.2,1.2s.1.2.2.3C314.6,655.9,312.9,661,317.4,661.5Zm-1,27.1c-15.3-29-16.2-34.9-55.4-36.2-61.6-2-111.8,67.6-133,128.6-8.6,24.7.2,68.6,43,67-8,1.7-13.8-.3-20.7-2.7-52-17.9-31.6-63.5-15.3-99.5,15.3-33.8,49.1-67.9,68-84.1,40.5-34.9,81.9-21.4,114.6,4.4C317.4,675,315.1,681.1,316.4,688.6Zm-47.8,80.1c20.9-21.2,53.2-69.7,13.2-84.1-61.7-22.1-124.9,47.7-128.1,111.9-1.7,34.5,67.1,64,104.4,48.5-26.9,6.5-46.4.1-74.4-3.2-56.2-6.7-47.1-54.6-30-88.2s48.1-74.2,73-83.7c50.1-19,90.7-4.9,75.1,49.8-.4,1.5,1.4-1.4,1.5-2.6,2.7-26.4,19.1-48.7-23.6-53.9-72.9-9-108.4,41.2-142.4,119.6-28.5,65.6,117.4,82,169.2,52.2,7.5,4.5,17.9-3.3,26.5-4.6-26.5,9.6-52.8,15.5-80.8,20s-55.2-2.9-84.1-5.2c-103-8.5,10.5-154.1,42.7-177,34.6-24.6,100.7-18.3,103.7,23.9-8.2,15.4-11.9,28.7-20.3,42.3h0l-3.2,4.2C283.5,748.6,276.4,759.6,268.6,768.7Zm-17.1,24.2s-.1,0,.1-.1.9-1.5,1.1-1.7c13.1-13.8,67.5-80.6,36-91.9-14.1-5-16.2-6.3-31-5.6s-22.1-4.5-35.8,8.7c-23.7,22.9-54.6,55.2-52.1,93,4.5,68.7,132.3,46.2,172.8,29.1.7,1.2,2.4.5.4.1-38.6,18.3-91.8,25.1-134.4,16.4-82.5-16.7-41.8-137.6,26.9-155.7,78.9-20.6,74,38.6,28.5,89.1-.3.3,1.3.9-.2,1.1-1.2,2-3,4.2-4.3,6.1s-1.2,1.5-1.4,1.9C255.7,786.6,253.7,789.7,251.5,792.9Zm105.9-75.6c.2-.1-.4,0,0-.3,4.5-3.4,7.7-5.5,13.4-9.4-33.1,23.5-47,35-86.5,55.8C222.2,796,174.9,897.2,103.1,912.1c-38.7,8.1-58.2,7.1-85.1-23.5C-7.1,860,2.2,827.9,21.1,789.5c17.1-34.7,44.1-85.8,70.6-119.6C65.9,706.1,14.9,784.3,9.3,829s1.7,62.7,46.2,77.3c22,7.2,34.6,3.2,56.3-4s57.9-31.3,73.4-46.2C242,801.4,299,766,357.4,717.3ZM442,470c.5.1.2.4.8.2,24.9,30.3,49.4,47.2,81.4,69l2.4,1.6c-2.7-1.3-3.6-2.6-6.2-3.8-19.8-9.4-28.9-19.2-50.7-28-38.7-15.6-62.2-22.3-107.3-13.6-73.2,14.1-155,63.1-197.1,134.1-21.1,35.6-76.1,93.8-97.4,130.1s-53.8,92-17.8,117.5c38.6,27.4,60.9,8.4,99.7-10.5,35.9-17.6,80.3-54,111.7-79.7,52.9-43.1,101.9-82.5,153.5-123.8-51,43.7-110.8,89.3-160.7,131-46.3,38.7-129.5,120.6-191.8,98-30-10.9-39.1-16.1-37-52.4,2.4-41.8,40.8-93.4,67.2-130.6s61.6-83.1,89.7-119C198,570.2,211,554.9,229,541.4s37.6-22,54-30.1c33.7-16.9,71.4-30.6,106.5-29.1,32.6,1.5,51.7,9.4,79.9,20.3,1.7.7,2.7-.9.8-1.6-35.8-14.2-57.6-24.5-99.1-20.2s-88.6,23.8-126.2,47.5c-34.2,21.4-64.9,56.2-88.3,93.6S82.9,720.3,60.2,753.1c-40.5,59-59.3,148,22.9,144.3,78.6-3.5,137.1-79.7,190-120.4S379.2,697.3,428,652.1C381.4,700.3,322,733.2,271.5,777,223.3,819,145.7,902.1,80,902c-35.6,0-54.8-10.3-61-48.5s18.6-77,39.4-114.8c23.4-42.5,66.1-93.2,95.9-133.2,15.3-20.5,27.7-38.1,43-54.2s37.1-31.2,52.9-41.4C308,472.5,375.4,452.5,442,470Zm-21.8-43.9c.4,1.6,1.2,3.2,1.7,4.8a30.8,30.8,0,0,0,3.1,8.3.2.2,0,0,0-.1.4c2.8,4.4,5.1,9,8,13.4.2-.1-.4.4-.2.7,34.1,45.3,93.1,72.8,148.5,77.4s110.1-8,164.5-5.1S863.9,574.3,913,562.9c47.5-10.9,96.9-155,124.8-202.9,26.5-45.6,45.9-140.7,114.4-151.1,7.5-4.8,12-.5,19-.9.1.3.1.6.3.7a1.3,1.3,0,0,0,1.9,0c1.5-1.1.4,2.3,2.8-2-32.6,25.7-43.6,12.3-69.1,51.4-32,49.2-37.7,70.6-71.6,137.8C912,640.9,941,536.3,751.7,538.1c-87.1.8-109,12.9-172.9,1.8-60-10.4-93.3-37.1-137.9-73.1-.2-.2,3.6.2,1.1,0C432.9,454,424.5,441.5,420.2,426.1Zm.4-5.2c7.2,12.8,14.1,20.7,27.2,28.4,22.4,13.2,42.1,25.1,69.3,28.7,50.6,6.6,94.7-8.5,142.3-28.1,52.4-21.4,100.4-24.3,160.8-30,62.7-5.9,96.8-16.1,138.5-70.6,22.6-29.5,45.2-53.8,66.9-84.5,18.5-26.2,31.3-42.8,63.9-56.7-59.6,49.5-76.8,88.6-118.4,156.5-87.6,143-167.1,65.9-293.8,95.7-56,13.2-96.2,30-148.5,24.5-43.8-4.6-80.8-22.9-107.6-57.3,2.4.1,1.1-.1,1.4-.4s-.1-.2-.2-.4C421.7,424.8,421.2,422.8,420.6,420.9Zm3.3-16.6c1.6,11.1.9,21.3,11.1,28.3,20.4,13.8,35.1,25.1,59.8,32.2,47,13.4,93-4.8,137-23.7,48.5-20.8,97.5-51.5,150.2-59.2,55.2-8,100.6-11.7,143.3-50s76.4-87.7,127.4-116c7.5-1.4,15.2-2.6,22.8-4.3-20.4,11.5-31.6,23.7-46.1,42.4-23.5,30.2-44.7,58-70.8,88.1-86,99.5-190.4,58.4-297.2,103.4-49.3,20.7-96.5,37.6-149.6,29.1-23.5-3.8-40.1-13.8-60.4-25.8S420.3,428.9,423.9,404.3Zm-1-10.4c0,1,.3,2,.3,3s-.6,2.6-.8,3.9C422.7,398.5,422.8,396.2,422.9,393.9Zm3.8-15.1c5.5,14.1,2.9,27.5,13.7,40.1,13.4,15.5,27.6,22.6,49,30.2,41.9,14.8,89.4.8,128.3-22.9,43.6-26.6,95.3-67.4,145-79.1s95.8-.5,141.1-25.9,79-66.8,122.9-94.4c.3-.2-.1-.5.1-.6,4.4-1.7,8.2-4.7,13.1-4.8-45.7,28.4-75.2,75.8-119.2,106.3C833.8,388,722.3,396.8,627.4,439.8c-41.9,19-92.7,39.2-137.6,21.6-21.7-8.5-36.8-17-54.5-31.1-11.4-9.2-6.8-21.9-10.5-34.4,0-.1.2-.2.2-.4s0-.3-.2-.4C424.5,389.6,426.1,384.2,426.7,378.8Zm428.5-51.4c30.7-3.3,49-17.5,75-31.1-10.3,6.9-19.5,14.9-29.8,21.2-18.8,11.3-38.8,16.5-60.6,18.1-43.5-5.4-85.5-8.3-127.5,7.3-33.6,12.5-71.1,33.6-104.9,38.4-36.3,5.2-62.1-.7-89.4-19.8-14.7-10.2-18-18.8-24.3-33.6-5.4-12.7-4.4-24.3-2-38.2,4.1-23.7,15.8-46.2,27-67.6-11.7,26.8-25.5,53.7-20.6,84.3,6.2,39.3,26.8,55.9,66.9,62.5,18.5,3,39.5,4.8,61.4-1.2,23.8-6.5,51.8-24.9,76.2-33.3C756.1,316,802.8,333,855.2,327.4Zm-428,43.7c-.2,1.6-.3,3.2-.4,4.8s-.1.1-.2.2a23,23,0,0,0-1.2,3.4A83.9,83.9,0,0,1,427.2,371.1Zm11.1-34.2c-9.1,45.3-.9,80.6,40.4,105.7-35.3-17.5-52.5-36.3-49.1-77.4.1-.6-.3-.6-.7-.7,1.1-4.1,2.3-8,3.7-12.1S436.2,342,438.3,336.9Zm11.6-25.6c-2.1,6.4-5.2,13.2-6,19.8-3.9,30.8,2.6,57.6,19.7,83.7,8.4,12.9,21.1,22.3,35.3,30.3,7,3.9,19.1,6.3,27.5,8.3h1.1c-14.7-.8-28.2-3-42-8,.2,0,0-.5-.2-.6-26.6-15.1-40.1-30.8-45.8-60.5-4.9-25.6.8-45.1,8.1-68.7,0-.1.1.1.1,0S449.2,312.8,449.9,311.3Zm7.4-9.5c-1.1,6.7-5.7,12.8-6,19.6-1.7,38.7,6.5,69.3,37.1,97.5,22.7,20.9,58.7,33.1,90.9,22.8-9.2,4.3-20,7-30.4,9.3,0-.4-.2-.6-.5-.4s-1.6.7-2.3.8c-2.5.2-5.2.8-7.6.9a58,58,0,0,1-11.9-.9c-5.5-1.1-12.7-2.5-17.5-4.4-9.7-3.8-19-8.6-26.2-14.8-14.5-12.4-23.8-26.7-30.4-43.8C441.2,358.8,444.4,330.1,457.3,301.8Zm8.3-13,2.2-2.9c.4-.5.3-.7.1-1.2,1.5-2.8,3.3-5.6,4.8-8.3-4,10.7-9.4,22.8-10.4,34-1.8,20.1-1.3,37.1,6.3,55.8,8.2,20.3,19.9,34.1,39.6,46.4a116.5,116.5,0,0,0,65.5,17.8c17.2-.5,39.8-6.1,56-14.7-4.3,2.8-9.2,6.4-13.9,9-7.5,4.2-15.1,7.7-22.5,11.8,2.4-1.5,4.8-3.3,7.2-4.7.6-.3.4-1.4-.1-1.1-21.8,11.4-46.4,15-70.2,8.7s-35.4-15.4-49-31.4-19.7-27.8-25.2-46.5c-4.8-16.5-3.3-30.3-.4-46.9C457.2,305.9,462.1,297,465.6,288.8Zm4.8-12.8c-2.3,3.9-4.6,7.9-6.8,11.9a72.6,72.6,0,0,0-4.6,6.3C462.5,288,466.4,282,470.4,276Zm13.7-15.4c-4,10.7-11.1,22.3-12.7,33.8-6.9,49.6,12.7,91.6,60.5,111.7,23.4,9.8,52.8,8.8,79.1,6,15.4-1.7,35.2-9.9,50.2-15.5-6.2,3.9-13.1,7.5-19.5,11.4.1-.3-.5-.2-.7-.1-23.1,11.6-51.7,21.2-76.9,19.5s-45.3-10.4-63.7-23.8-25.2-26.3-31.8-45.9C457.4,324.3,467.5,290.2,484.1,260.6Zm21.1-26.7c-9.2,17.5-22.2,36.3-25.5,55.6-4.6,26.5-3.2,46.6,14.7,68.5,19.1,23.6,34.7,35.5,68,40.1,30.2,4.1,62.2-3.9,92.8-15,22.8-8.2,49.3-23.1,74.1-28-9.2,3.6-18.2,9.3-27.1,14.2,0-.3-.5-.4-.7-.3-17.6,10.4-37.2,23.6-55.7,30.9-15,6-34.4,8.9-48,10.6-50.3,6.2-98.6-11.3-117.8-58.5C462.2,308.1,478.9,268.2,505.2,233.9Zm10.7-12.6c-11,25.9-28.3,51.6-28,80.8.3,32.6,9.1,50.3,38,68.5,27.3,17.2,55.5,18,90.7,12.6s71.5-31.4,107.2-39.4c26.3-5.8,53.2-7.2,79.7-8.1-14.2,2.1-28.1,3.4-42.3,6.8l-7.3,1.7c-33.6,6.9-77.5,27.4-107.3,39.3-59.9,24-121.3,17.8-156-35.9C459.8,300.1,493.8,261.2,515.9,221.3Zm-.4-1c-.8,1-1.5,2-2.3,2.9s-.3.2-.5.4l-2.5,2.4Zm15.6-16.4c-2.7,3.7-5.3,7.4-7.8,11.2,2.1-3.2,4.1-6.4,6.2-9.5C529.9,205,530.6,204.5,531.1,203.9Zm8.1-8.5C518.9,228.1,500,263.6,505.8,304s37.3,53.9,77.4,50.1c18.8-1.8,43.8-6,64.1-13.7s50.3-20.2,72.6-21.2c49-2.1,99.6,3.1,145.9-7.9,37.2-8.9,63.8-26.5,95.8-44.5-39.8,27.1-65.1,53.8-116.3,55.9-53.3,2.2-97.7-13-149.2,10.8-25.2,11.7-53.5,30.4-79.8,33.2s-42.9,2.3-64.7-2.7c-83.3-19.1-49.5-119.9-13.4-167.2C538.5,196.3,539.6,196,539.2,195.4Zm84,128.2c.1.3,0,.5.4.3l1.7-.7c17.6-4.4,39-8.4,56.7-11.8,61.4-11.8,130.3-2.4,189.1-19.2,43.9-12.5,76.4-29.7,116.4-48.2-41,27.8-79.6,59.9-130.8,65-46.8,4.6-94-.3-142.5,7-22.5,3.4-53.6,17.1-75.3,24.7s-47,12.1-68.3,11.4c-43.4-1.4-64.4-20.7-64-63,.2-20,6.1-35,12.5-52.8s17.6-32,27.2-47.6c1-1,2.5-1.8,2.7-3.1-23.2,40.2-61.5,101.8-20.1,143.5,17.8,17.9,51,10.1,72.1,2.1.9.4.5.8,1.1.6s.9-.5,1.5-.7C610.2,328.6,616.3,325.2,623.2,323.6ZM728.5,207.3c36-17.3,53.6-11.9,87-13.5,25.4-1.3,41.3-.4,65.9-3.7-38.8,7-68.4,6.8-109.4,10.4-25.4,2.2-48.5,20.1-71.2,41.6-20.2,19-54.1,44.6-74.4,67,3.5-4.9,8.7-9.8,13.6-15.6C662.6,266.7,699.1,221.5,728.5,207.3Z" style="fill:#db4fd4"/></svg>