<svg xmlns="http://www.w3.org/2000/svg" viewBox="0 0 299.8 48"><title>Asset 5</title><path d="M149.8,47.8H2.7c-.9,0-2.6.9-2.6-1s1.7-1.1,2.6-1.1H297.2c.9,0,2.6-.7,2.6,1.1s-1.7,1-2.6,1Z" style="fill:#1f1293"/><path d="M250.4,17c0-4.9.1-9.7,0-14.5,0-1.7.4-2.5,2.2-2.4,4.4.2,8.9-.4,13.2.7a8.6,8.6,0,0,1,4.4,14c-.6.8-.8,1.1.1,1.9,3.3,3.2,3.6,7.2,2.3,11.2s-4.6,5.6-8.4,5.9-8.2.2-12.3.2c-1.5,0-1.5-1-1.5-2Zm9.3.9h0a14.7,14.7,0,0,1-2.1,0c-2.3-.4-3,.5-2.8,2.8s0,5.2,0,7.8c0,.8.1,1.5,1.2,1.5a78.7,78.7,0,0,0,8.4-.4c3-.4,4.6-2.4,4.6-5.5s-1.3-5.2-4.5-5.8A39.1,39.1,0,0,0,259.7,17.9Zm-4.9-8.8v3.8c0,.7.1,1.3,1,1.2,2.9-.1,5.7.4,8.5-.3a4.3,4.3,0,0,0,3.6-4.5,4.4,4.4,0,0,0-3.3-4.7,13,13,0,0,0-4.8-.4C254.8,4.2,254.8,4.2,254.8,9.1Z" style="fill:#2c209a"/><path d="M54.4,17c0-4.8-.1-9.6,0-14.4,0-.8-.5-2,.8-2.3a2.7,2.7,0,0,1,3.2,1.1L74,23.2c.3.5,1.1,1.5,1.3,1.4s.3-1.2.3-1.9c0-6.7.1-13.5,0-20.3,0-1.7.5-2.3,2.2-2.3S80,.8,80,2.5V31.6c0,.8.5,2.1-.8,2.3a2.8,2.8,0,0,1-3.4-1.1C70.6,25.3,65.3,18,60,10.6c-.3-.4-.8-1.2-1-1.1s-.4,1.1-.4,1.6c0,7,0,14,.1,21,0,1.8-.8,1.9-2.3,2s-2.1-.3-2.1-2C54.4,27.1,54.4,22.1,54.4,17Z" style="fill:#2c209a"/><path d="M42.3,17.3c0,4.7,0,9.3-.1,14,0,.9.8,2.3-.8,2.7a3.1,3.1,0,0,1-3.5-1.5c-5.1-7.3-10.2-14.4-15.4-21.7-.3-.5-1-1.4-1.1-1.3s-.4,1.2-.4,1.8c0,6.9,0,13.7.1,20.6,0,1.8-.7,2.2-2.4,2.2s-2.1-.6-2.1-2.2c.1-9.7,0-19.4.1-29.1,0-.9-.7-2.2.9-2.6a3,3,0,0,1,3.3,1.3c5,7.2,10.2,14.4,15.4,21.6.4.6.5,1.6,1.4,1.5s.3-1.3.3-1.9c0-6.9.1-13.7,0-20.6-.1-1.8.8-1.9,2.3-2s2,.6,2,2.1C42.2,7.2,42.3,12.3,42.3,17.3Z" style="fill:#2c209a"/><path d="M103.2,34A16.8,16.8,0,0,1,86.4,17c0-9.3,7.9-17.1,17-16.9a17.2,17.2,0,0,1,16.9,17.1A17.1,17.1,0,0,1,103.2,34Zm12.7-17A12.5,12.5,0,0,0,103.1,4.2a12.7,12.7,0,0,0-12.5,13,12.8,12.8,0,0,0,12.7,12.9A12.7,12.7,0,0,0,115.9,17Z" style="fill:#5cb6c3"/><path d="M170.3,34.2c-5,0-10.1-.1-15.1,0-1.8,0-2-.5-1.3-2.1L167.4,1.5C167.9.2,168.8,0,170,0s2.2,0,2.8,1.5l13.9,30.6c.8,1.6.4,2.1-1.3,2.1C180.4,34.1,175.3,34.2,170.3,34.2Zm0-3.2c3.4,0,6.8-.1,10.2,0,1.7,0,2-.4,1.2-1.9-3.6-7.2-7.1-14.4-10.7-21.5-.2-.5-.3-1.3-1-1.2s-.5.7-.7,1.2c-3.5,7.1-6.9,14.3-10.4,21.4-.9,1.7-.3,2,1.3,2C163.6,30.9,166.9,31,170.3,31Z" style="fill:#fe6625"/><path d="M139.5,0h15.1c1.6,0,1.9.5,1.3,2-4.6,10.2-9.2,20.5-13.6,30.8a2.2,2.2,0,0,1-2.5,1.4c-1.2,0-2.3.2-2.9-1.3-4.6-10.3-9.3-20.6-14-30.9-.8-1.8-.1-2,1.5-2Zm-.1,3.3c-3.4,0-6.8.1-10.2,0-1.7,0-2,.4-1.2,1.9,3.6,7.2,7.1,14.4,10.7,21.5a4.8,4.8,0,0,0,.9,1.1,4.4,4.4,0,0,0,.8-1.1L150.9,5c.7-1.4.3-1.7-1.2-1.7C146.3,3.4,142.9,3.3,139.4,3.3Z" style="fill:#f9d13d"/><path d="M279.5,17V2.4c-.1-1.6.4-2.3,2.1-2.3h16.1c1.6,0,2,.6,2,2.1s-.5,2-2,2h-12c-1.4,0-2,.3-1.9,1.9s-.8,6.2.6,7.8,5,.4,7.6.4,2.1.1,3.2,0,2.2.1,2.1,1.9-.4,2.2-2.1,2.2h-9.8c-1.2,0-1.7.3-1.5,1.5V20c.1,3.3-1,7.6.6,9.6s6,.4,9.3.5a22.9,22.9,0,0,0,3.7-.1c1.6-.1,2.2.3,2.2,2.1s-.8,2-2.2,1.9c-5.3,0-10.5-.1-15.7.1-2,0-2.4-.7-2.3-2.4C279.6,26.8,279.5,21.9,279.5,17Z" style="fill:#2c209a"/><path d="M216.8,11.7c0-3.2.1-6.4-.1-9.6s.7-2,2.1-2,2.3.3,2.3,2.1q-.2,9.3,0,18.6c.1,6.8,5,10.7,11.2,8.9,3.7-1.1,5.8-4.6,5.8-10.1s.1-11.6,0-17.4c0-1.7.6-2.1,2.2-2.1s2.2.4,2.2,2.1c-.3,6.9.5,13.9-.5,20.7S236.3,34.3,228.6,34s-11.2-4.8-11.7-12c-.2-3.4,0-6.9,0-10.3Z" style="fill:#1f1293"/><path d="M202.1,18.9c0,4.4,0,8.7.1,13,0,1.7-.6,2.2-2.2,2.2s-2.3-.5-2.3-2.2c.1-8.5,0-16.9.1-25.4,0-2-.6-2.5-2.5-2.4s-3,0-4.6.1-2.4,0-2.4-1.9.9-2.2,2.5-2.2h18.4c1.5,0,2.3.3,2.3,2.1s-.7,2-2.3,2c-7.1,0-7.1,0-7.1,7.2Z" style="fill:#2c209a"/><path d="M4.2,17.2c0,5,0,10,.1,15,0,1.9-1,1.8-2.3,1.8s-2,0-2-1.7C.1,22.2.1,12,0,1.9,0,.2.9.2,2.1.2S4.3.1,4.3,1.9C4.2,7,4.2,12.1,4.2,17.2Z" style="fill:#1f1293"/></svg>