<svg xmlns="http://www.w3.org/2000/svg" viewBox="0 0 429 159.9"><title>Asset 2</title><path d="M214.5,43c5.8-2.3,7.2,1.9,8.6,6.1a9.1,9.1,0,0,0,.9,1.7c.3-.5.9-1,1-1.6,1.3-8.9,8.1-6.2,13.5-6.4,1.2-.1,1.2.6.8,1.5a20.2,20.2,0,0,1-1.4,3.4c-8.3,13-7.8,25.9.2,38.8l1.2,2.1a19.8,19.8,0,0,0,1.1-2c5.5-13.7,11-27.4,16.6-41.1.9-2.1,11.3-4.3,12.8-2.6s-.1,1.4-.3,2.1c-9.7,24.1-19.5,48.2-29.2,72.2-.3.7-.8,1.3-1.1,1.9l-1-2c-4.5-10.9-8.9-21.9-13.3-32.8a10.9,10.9,0,0,0-.8-1.5,13,13,0,0,0-1,1.5l-13.4,33a5.9,5.9,0,0,1-1,1.7,8.3,8.3,0,0,1-.9-1.6C198,93.2,188.3,69,178.5,44.9c-.6-1.6-.5-2.2,1.3-2.4,6.2-.6,10.9-.3,13.4,7.5,3.9,12.5,9.5,24.5,14.5,36.6a11.8,11.8,0,0,0,1.1,1.9l1.1-1.9c.2-.4.2-.8.4-1.1,7.8-12.4,7.9-24.8.1-37.2C207.3,43.4,208.8,41.6,214.5,43Z" style="fill:#0592d5"/><path d="M341.2,116.3c-13.3-.4-23.1-7.1-27.4-18.7-.6-1.7-.6-2.5,1.5-3.2,4.9-1.6,8.5-3.2,11.7,3.6s17.6,9.4,24.6,4.2a9.5,9.5,0,0,0,4-9.3,8.2,8.2,0,0,0-6.6-7c-4.9-1.2-10.1-1.6-15.1-2.5-14.3-2.8-21.7-11.2-19.9-22.7s14.7-20.8,28.2-19.4c11.6,1.2,19.4,7.3,24.3,17.6.8,1.6.8,2.3-1.1,3.2-4.9,2.2-8.3,3.7-12.1-2.8s-15.8-8.8-23.3-4c-3.4,2.2-5.1,5.2-4.7,9.3s3.2,5.3,6.2,6.4c4.5,1.8,9.3,1.7,14,2.4,14.2,2.1,22.6,10.9,21.6,22.5S355.1,116.7,341.2,116.3Z" style="fill:#0592d5"/><path d="M383.9,78.8c0-10.9.1-21.9-.1-32.8,0-2.7.5-3.6,3.4-3.5,12.5.2,25,.3,37.4.1,3.4,0,3.8,1,4.2,4.1.6,6.1-1.3,7.9-7.4,7.4-7.9-.6-15.8-.1-23.7-.2-1.9,0-2.5.5-2.5,2.4-.4,16.7-.5,16.7,16.1,16.6a11.3,11.3,0,0,0,2.6,0c7.3-1.4,9.5,1.9,8.4,8.8-.3,1.9-.6,2.6-2.7,2.6H397.9c-2.2,0-2.8.7-2.7,2.8.1,4.6.1,9.3,0,13.9-.1,2.1.4,2.8,2.7,2.8,9.1-.1,18.2.1,27.2-.1,2.8-.1,3.3.7,3.6,3.5,1,6.8-1.5,8.4-8.1,8-11.4-.6-22.8-.2-34.2-.1-2.1,0-2.6-.5-2.6-2.6C383.9,101.2,383.9,90,383.9,78.8Z" style="fill:#0592d5"/><path d="M295.9,78.6c0,11-.2,22,0,33,.1,2.8-.8,3.1-3.4,3.5-7,1.1-8.4-1.6-8.2-8.3.5-20.1.4-40.3.3-60.5-.1-3.3,1-3.6,3.9-3.9,6.3-.8,7.9,1.4,7.5,7.5C295.4,59.4,295.9,69,295.9,78.6Z" style="fill:#0592d5"/><path d="M133.9,134.5c.6,2.6.8,5.2,1.7,7.6,1.5,4-.3,4.7-3.6,4.1-9.6-1.5-14.2-8.5-17.9-16.4a20.1,20.1,0,0,0-1.4-2.5c-.1.9-.4,1.8-.4,2.6.1,4.3-1.9,8.6.1,12.8.6,1.2-.5,1.8-1.4,1.5-2.6-.6-4.6.3-6.6,1.8s-1.8.9-1.9-.5c-.4-5.5-5.2-8.4-7.1-13.1-.2-.4-.7-.7-1-1.1a7.5,7.5,0,0,0,0,1.5c1.3,9.7,1,19-7.5,25.8-2.4,1.9-3.8,2-4.6-1.5s-.7-6.3-2.9-8.8v-.2c8.6-3.1,10.2-10.5,10.9-18.2.3-4-.1-8.1-.1-12.1v-1.5a14.7,14.7,0,0,1,1,1.3c2.5,5,5.2,9.7,9.4,13.5s5,2.5,6.4-1.7,1.6-10.6,1.4-16c0-.5.1-.9.1-1.4l1.1,1.1c3,6.1,6.3,12,11.4,16.6,3.5,3.2,7.5,4.7,12.3,3.6l.4.4c.1.2.2.3.2.5Z" style="fill:#e8569a"/><path d="M11.7,79.5a85.9,85.9,0,0,0-8.4-2.1c-4.7-.6-3.6-2.8-1.6-5.1,6.7-8,15.7-8.1,24.9-7.1H29L27.1,64c-4.5-1.9-7.5-6.5-12.8-6.9-1.4-.1-1-1.3-.4-1.9a7.3,7.3,0,0,0,1.8-6.6c-.1-.7,0-2,1.1-1.5,5.6,2.5,11.4-.6,17.1.6.2-.1.3-.2.2-.4s0-.2-.1-.2C24.4,43.5,15.7,39,13.6,27.5c-.6-3.1-.4-5.1,3.8-3.6A64.2,64.2,0,0,0,26,26.2a.8.8,0,0,1,.5.5c-1.4,5.1.9,9,4.2,12.6s10.3,8,16.2,10.9a12.1,12.1,0,0,1,1.4,1H46.7c-5.6-.3-11.1-.3-16.6,1.6-3.6,1.2-4.3,2.9-1.7,5.9s8.4,7.1,13.3,9.6l2,1-2.4.2c-4.1,0-8.3-.3-12.4,0-7.2.6-13.6,2.8-17,10Z" style="fill:#07ad96"/><path d="M133.4,134.1a2.2,2.2,0,0,1-.1-.8c1.1-9.2-5.2-13.8-11.6-18.1a114.1,114.1,0,0,0-10.3-5.8c3.9-.2,7.8-.1,11.7-.5s8.5-.5,9.4-3.7-3.3-6-6.2-8a100.3,100.3,0,0,0-8.9-5.4l-1.3-1h1.5c6.9.5,13.8.6,20.4-1.5a14.9,14.9,0,0,0,7.2-4.6c1.1-1.3,2.2-3.9,3-3.8a64,64,0,0,1,11.2,3c1.3.5,0,1.7-.4,2.4-5.6,8.8-14.4,9.8-23.7,9H131l3.3,2c3.6,2.2,6.4,5.7,11,6a.9.9,0,0,1,.6,1.5,9.3,9.3,0,0,0-2.1,7.5c0,.3-.9,1-1.1.9-5.2-2.4-10.5.5-15.7-.4a9.7,9.7,0,0,0-1.7.1,7.1,7.1,0,0,0,1.5.8,38.1,38.1,0,0,1,11.8,6.6,20.4,20.4,0,0,1,6.8,9.5c.7,2.2,1.7,5,.3,6.7s-3.7-.5-5.7-.7l-6.1-1.2h0Z" style="fill:#eb5861"/><path d="M133.3,26.7c3-.8,6.1-1.2,8.9-2.3s4.4.3,3.9,3.4c-1.8,10.9-9.9,15.5-19,19.3l-1.7.7a7.5,7.5,0,0,0,2,.3c5.1-.7,10.2,1.9,15.2-.4,1.3-.6,1.3.8,1.2,1.6a7.2,7.2,0,0,0,1.7,6.1c1,1.1.8,2.3-.8,2.4-5.4.4-8.2,5.4-12.8,7.1-.2.1-.3.4-.5.6l1.5.2c6.2-.8,12.4-.9,18.3,1.8l1,.5c3.5,2,8.1,5,7,8.4s-7.1,2.5-11,3.6c-.2.1-.8-.2-.9-.4-6.3-11.5-17.4-9.6-27.7-9.7-1.1-.1-2.3.1-3.4.1l2.9-1.9c4.8-2.6,9.4-5.3,12.7-9.9,1.5-2.1,1.3-3.3-1.1-4.4-5.5-2.4-11.3-2.3-17.1-2.1a15.2,15.2,0,0,1-2.1-.3l1.9-1c6.1-3.1,12.1-6.5,16.6-11.9,3-3.4,3.8-7.5,3.3-11.9Z" style="fill:#f2983c"/><path d="M133.3,26.6c-12.8-.8-17.1,9.2-22.4,17.9l-2.4,4V43.9c.1-4.9,0-9.8-2.1-14.5-1.1-2.5-2.4-2.8-4.6-1.1-5,3.8-8,9-10.7,14.5L90.4,44a3.8,3.8,0,0,1-.1-1.5c.3-6.9.6-13.9-1.7-20.6A17.1,17.1,0,0,0,84,14.6c-1.2-1.1-4-.9-3.6-2.9A54.3,54.3,0,0,1,83.3.5c.4-1.2,1.7.1,2.4.5,6.9,3.7,10.5,13.5,9.1,24-.2,1.3-.2,2.6-.3,3.8a35.3,35.3,0,0,0,2.1-3.2c2.2-3.5,5.5-6.3,6-10.7.1-1.4,1.1-1.2,1.9-.6a8.1,8.1,0,0,0,6.7,1.9c1.3-.3,1.8.5,1.3,1.7-2.4,5.2.6,10.7-.5,16-.1.2.1.5.1.7a6,6,0,0,0,.9-1.3c2.3-6.2,5.4-12,10.9-16l.5-.4c3.4-2.2,7.8-4.5,11-2.5s-.8,5.6-1.1,8.6a22.4,22.4,0,0,1-1,3.7Z" style="fill:#fcc846"/><path d="M11.7,79.5h.2c2.8,8.4,10,10.1,17.5,10.8,4,.4,8.1.1,12.2.1h1.8l-1.7,1c-4.5,2.3-8.8,4.8-12.3,8.5s-3.5,6,1.8,7.4a44.2,44.2,0,0,0,13.5,1.2l3.3.2-2.7,1.5c-4.1,2.6-8.3,5-12.1,7.9s-7.9,8.6-7,15.2h.1c-2.6.7-5.4,1.1-7.8,2.1-5.1,2.1-5.6-.4-4.7-4.4,2.3-10.1,10.2-14.4,18.8-18a6.9,6.9,0,0,0,1.9-1H32.3c-5.1.9-10.3-1.9-15.4.5-1,.4-1.4-.6-1.2-1.4.7-2.7-.3-4.8-1.9-6.8s-.5-1.7.8-1.8c5.3-.4,8.3-5.3,12.9-7.1.4-.1.6-.4.9-.7a5.8,5.8,0,0,0-1.8-.2c-5.9.8-11.8.7-17.4-1.5l-1.6-.7C4.1,90.5.1,87.9.3,84.2s5.1-1.9,7.9-3.1Z" style="fill:#0592d5"/><path d="M26.5,26.7l-.5-.5c-.6-2.6-.9-5.4-1.9-7.8-2.1-5.1.8-5.1,4.2-4.3,9.7,2.1,14.2,9.5,17.9,17.8a16.2,16.2,0,0,0,1,1.8,7.5,7.5,0,0,0,.2-2.1c-.4-4.7,1.9-9.5-.3-14.3-.5-1.1.6-1.2,1.3-1.1a7.7,7.7,0,0,0,6.7-1.9c.8-.6,1.8-.7,2,.6.6,5.6,5.5,8.8,7.5,13.7.5.2.5-.1.6-.4C64.4,19.6,63.7,11,70.1,4c1.5-1.6,3.7-2.6,5.6-3.9.7,1.8,1.5,3.6,2.1,5.5,1.2,3.7,1.8,6.3-2.5,9.8-7.2,5.9-6.3,15.2-6.1,23.8v4.6c-.8-1.3-1.5-2.6-2.2-4a36,36,0,0,0-8.9-11.3c-2.4-1.9-3.9-1.7-5.1,1.3-2.1,5.4-2.1,11-2,16.6a17.6,17.6,0,0,1,0,2.3c-.4-.7-.9-1.4-1.3-2.2C47,41.1,44,35.8,39.6,31.4S31.8,25.9,26.5,26.7Z" style="fill:#8cc45c"/><path d="M26.3,133.4h-.1c5.4,1.2,9.6-.9,13.3-4.5s7.8-10.3,10.7-16.1l1-1.4c0,.6-.1,1.1-.1,1.7-.3,5.6-.3,11.2,1.6,16.6s3.1,4.2,6.1,1.6,7-8.5,9.5-13.4a3.8,3.8,0,0,1,1-1.2c0,.5.1,1,.1,1.6,0,4.7-.2,9.4.2,14.1.6,6.8,3.2,12.5,9.8,15.6v.3a79.3,79.3,0,0,0-2.1,8.4c-.6,4.6-2.7,3.5-5.1,1.5-8.1-6.8-8.1-15.9-7-25.2,0-.7-.1-1.4-.1-2.1a15.1,15.1,0,0,0-1,1.7c-2,4.5-6.7,7.6-7.1,13-.2,1.4-1.3.9-1.9.4a6.9,6.9,0,0,0-6.4-1.8c-.7.2-2.2.1-1.7-1.2,2.6-5.7-.8-11.6.7-17.4-.2-.5-.5-.1-.7,0-3.8,12.7-12.2,20.8-21.4,20.7-2.1,0-2.7-.4-2-2.6S25.4,136.8,26.3,133.4Z" style="fill:#924d99"/><path d="M86.2,77.1a28.2,28.2,0,0,1,4.2,12.5c.3.2.6.7.8-.1.4-4.4.8-8.8,2.7-12.9a10.2,10.2,0,0,1,8-1.1c.8.2,1.9.4,1.9,1.7C96.1,84.9,93.4,94.7,91.5,105a3.1,3.1,0,0,1-.5,1.2,9.4,9.4,0,0,1-.6-1.5c-1.4-7-3-13.9-8-19.6-1.5-1.7-2.6-1.6-4.1.1-4.8,5.3-6.2,12-7.7,18.7a18,18,0,0,1-.8,2.1c-.2-.8-.5-1.5-.7-2.2-1.9-9.6-4.2-19-11.8-26.1,2-2,6.7-2.3,9.9-.6a37.4,37.4,0,0,1,2.4,11.4,1.3,1.3,0,0,1,.4,1c.1.4-.1.8-.1,1.2a5.1,5.1,0,0,0,.2-1.3,1.6,1.6,0,0,1,.5-.9,28.8,28.8,0,0,1,4-11.4A14.2,14.2,0,0,1,86.2,77.1Z" style="fill:#1f54c8"/><path d="M67.2,77.1l-9.9.6c-10.1-1.4-7.7-9.1-7.6-15.4.1-3,2.4-1.4,3.4-1.1C60.8,63.8,65,69.6,67.2,77.1Z" style="fill:#0592d5"/><path d="M103.8,77.2c-3.2-2.1-6.6-.4-9.9-.7,2.2-7.4,6.6-12.9,14.1-15.4,2.2-.8,3.8-.6,3.4,2.4a11.3,11.3,0,0,0,0,4.1C112.9,74,109.4,76.5,103.8,77.2Z" style="fill:#0592d5"/><path d="M86.2,77.1H74.6a20.5,20.5,0,0,0,0-3.5c-.5-3.7.9-4.6,4.2-2.9.5.3,1.4.7,1.8.5C89.2,66.9,85.5,74.1,86.2,77.1Z" style="fill:#0592d5"/><path d="M70.6,88.5,69.8,92c-.1-1.2-.2-2.3-.2-3.5Z" style="fill:#924d99"/><path d="M91.2,89.5l-.4,2.6a18.7,18.7,0,0,0-.4-2.5Z" style="fill:#924d99"/><path d="M34,47.1l1.8.7H33.9C33.9,47.5,34,47.3,34,47.1Z" style="fill:#8cc45c"/><path d="M47,125.6l.8-2a13.4,13.4,0,0,0-.1,2Z" style="fill:#e8569a"/><path d="M112.2,125.5c.1.2.1.4.2.5l-.2.3a1.4,1.4,0,0,1-.2-.6Z" style="fill:#fdfdfd"/><path d="M133.4,134.1l.5.5Z" style="fill:#fdfdfd"/><path d="M36.5,111.8v-.2h-.2a.1.1,0,0,0-.1.1Z" style="fill:#fdfdfd"/><path d="M65.2,28.2v1.6l-.6-1.2Z" style="fill:#fdfdfd"/></svg>