<svg xmlns="http://www.w3.org/2000/svg" viewBox="0 0 439.5 372.8"><title>Asset 10</title><path d="M407,64.8a67.7,67.7,0,0,1-1.5-7.3c-.5-4.9.7-9,5.6-11.2a11.7,11.7,0,0,1,13.4,2.4,20,20,0,0,1,5.7,14.1c-.1,26.3-.4,52.7-9,78-4.1,12-8.1,24.1-13.9,35.4s-11.7,22.3-21.8,30.9c-14.3,12.1-29.9,15.6-47.8,11.4-8.7-2-16.5-6-24.1-10.6-37.9-23.3-73.5-50-108.7-77.1S134.7,76.3,99.6,49.1C91.8,43,83.7,37.5,74.5,33.7A36,36,0,0,0,61.9,31c-9.8-.3-14.4,6.9-15.6,13.6-1.7,9.7.4,19,3.5,28,6.1,17.4,14.9,33.4,24.6,49,6.9,10.9,14.8,21,23.1,31.9-10.1-.7-19,1.2-26.6,7.2a35.1,35.1,0,0,0-13.3,23.8l-1-.2C37.5,152,19.2,119.4,5.9,84.2A91.2,91.2,0,0,1,1.6,36C5,15.6,13.8,3.8,41.9.4,59.6-1.7,76,4.2,90.9,13.2a885.5,885.5,0,0,1,90.2,62.7c11.7,9.4,23.7,18.5,35.7,27.7s21.9,17.3,33.5,25.1,22.6,15.8,33.9,23.5c16.5,11.3,31.8,24.4,50.2,32.6,13.9,6.2,28.4,9.3,43.4,3.6,7.4-2.8,13.6-7.2,18-13.7,14.8-22,26-45.6,31.1-71.8,1.7-8.9,1.6-12.1-10.7-12.8-8.8-.5-17.6-1.2-25.7-5.2s-10-8.1-8.7-12.9,7.8-9.1,15.4-8.1a85.5,85.5,0,0,1,8.8,1.7l1.1.3A4.5,4.5,0,0,0,407,64.8Z" style="fill:#a72d42"/><path d="M87.5,223a41,41,0,0,0,15.5-1.5c10.3-3,17-9.9,21.3-19.4,1.3-2.9,2-4.2,5.5-2.7,8.8,3.9,17.8,1.6,26-1.5,14-5.2,28.4-9,42.5-13.9,3.3-1.2,6.7-2.1,10-3,1.2-.4,2.6-.7,3.3.3s-.5,2.4-1.3,3.3c-11.5,12.3-23.1,24.5-34.6,36.7l-15.5,16.3c-15.9,16.4-38.6,17.5-56,2.7A145.1,145.1,0,0,1,87.5,223Z" style="fill:#a72d42"/><path d="M384,370.3c-4.6,0-8.7-.1-12.8,0-2.3.1-2.6-1.5-3.1-3.1-1.7-4.9-3.6-9.7-5.2-14.6-.7-2.2-1.9-3.1-4.3-3.1-8.5.2-17,.1-25.5,0-2.4,0-3.6.8-4.3,3.1-1.4,4.6-3.2,9.1-4.5,13.8-.8,3-2.3,4.1-5.6,4-10.9-.1-10.9,0-7.1-10.1,8.3-22.3,16.8-44.6,25-66.9,1.3-3.7,3.1-5.1,7.1-4.9,10.1.3,10.1.1,13.7,9.7q12.3,33,24.5,66C382.6,366,383.2,367.9,384,370.3Zm-38.2-67.6c-3.8,10.8-7.5,21.5-11.1,32.2-.5,1.4-2.1,3.5,1.6,3.5h21.8C353.9,326.2,349.9,314.7,345.8,302.7Z" style="fill:#a72d42"/><path d="M301.7,304c-18-7.6-32.9-5.2-41.7,6.2s-8.3,29-.4,39.4,22.8,12.9,42.1,5.2v10c.1,1.5-.6,2.3-1.9,3.1-21.4,12.5-52.2.1-58.7-23.7s5.6-49.1,28.6-55.3c9.3-2.5,18.5-2,27.7.2,3.4.8,4.8,2.4,4.4,5.9A87.5,87.5,0,0,0,301.7,304Z" style="fill:#a72d42"/><path d="M395.2,329.8c0-12.4.1-24.7,0-37-.1-3.3.8-4.3,4.1-4.3q18,.3,36,0c3.3,0,4.2,1,4.2,4.3-.2,7.5,0,7.5-7.8,7.5-6.1,0-12.3.2-18.5,0-3.1-.1-4.5.6-4.3,4.1a140.6,140.6,0,0,1,0,15.9c-.1,3.3.8,4.4,4.2,4.3,6.5-.2,13,.1,19.5-.1,3.3-.1,4.7.6,4.6,4.3-.4,9,.9,7.3-7.4,7.4-5.5.1-11,.3-16.5,0-3.7-.2-4.5,1.1-4.4,4.5.2,8.5,0,17,.2,25.5,0,3.2-.9,4.2-4.2,4.2-9.7-.1-9.7.1-9.7-9.6Z" style="fill:#a72d42"/><path d="M91.9,215.5a27.1,27.1,0,1,1,.3-54.1,27.1,27.1,0,0,1-.3,54.1Zm20.6-27a20.6,20.6,0,0,0-41.2,0,20.6,20.6,0,1,0,41.2,0Z" style="fill:#fff"/><path d="M140.2,329.3v-37c0-1.7-.6-3.7,2.5-3.6,10.1.4,20.3-.8,30.3,1.3,20,4.1,30.4,18.8,29,40.8-1.4,24.2-17.1,39.1-41.3,39.5-5.7,0-11.4-.2-17,0-2.9.2-3.6-.7-3.6-3.6C140.2,354.3,140.2,341.8,140.2,329.3Zm17.6-35.2a62.6,62.6,0,0,1-7.5-.1c-3.8-.5-4.7.9-4.7,4.7.3,16.9,0,33.9.2,50.8.1,5.2-2.6,12.3,1.4,15s10.3.8,15.5.5c17.7-1.2,28.9-10,32.3-25.3a52.7,52.7,0,0,0,.4-19.8c-2.1-13.3-10.1-21.8-23.2-24.7A63.6,63.6,0,0,0,157.8,294.1Z" style="fill:#fff"/><path d="M27.6,332.3c10.2,10.8,13.5,25,20.4,37.5-4.7,1.4-6.9-.1-8.5-4.1-3.2-7.8-6.7-15.5-10.6-23.1S15.1,331.4,7,334.1c-2.2.7-1.4,2.4-1.4,3.6v29c0,2.2,0,3.7-3,3.7S0,368.5,0,366.7c0-24.8.1-49.6,0-74.4,0-2.3.2-3.7,3.1-3.6,7.7.2,15.4-.1,23,.4,10.8.7,18.1,7.4,19.4,16.9,1.6,11.7-3.5,20.9-13.7,24.9Zm-22-21.5c0,5,.1,10,0,15-.1,2,.4,3.1,2.7,3.1,5.6-.2,11.3.4,16.9-.6,9.3-1.6,15.2-9,14.8-18.4s-6.5-15.3-16.6-15.7c-4.8-.3-9.6,0-14.4-.2-2.6-.1-3.6.7-3.5,3.4C5.7,301.8,5.6,306.3,5.6,310.8Z" style="fill:#fff"/><path d="M114.5,318.3c0-8.9.1-17.7,0-26.5,0-2,.4-3.2,2.7-3.1s3.2.1,3.1,2.6c-.5,18.6,1.3,37.4-.9,55.9-2.6,20.9-23.8,31.3-42.5,21.4-8.1-4.3-11.4-11.8-12.6-20.4-1.7-12.6-.5-25.3-.8-37.9-.1-6,.1-12,0-18-.1-2.4.3-3.7,3.2-3.6s2.6,1.7,2.6,3.6v46a42.8,42.8,0,0,0,2,14.2c3.4,9.9,10.8,14.3,22.8,13.9,9.9-.4,16.6-5.7,19.1-15.3s1.1-17.2,1.3-25.8C114.6,322.9,114.5,320.6,114.5,318.3Z" style="fill:#fff"/><path d="M224.3,329.3v36.9c0,2,.7,4.2-3,4.2s-2.8-2.5-2.8-4.4V293.2c0-2-1-4.5,2.7-4.5s3.1,2.6,3.1,4.6Z" style="fill:#fff"/><path d="M407,64.8a4.5,4.5,0,0,1,.1,1.1l-1.1-.3Z" style="fill:#fefefe"/></svg>