<svg xmlns="http://www.w3.org/2000/svg" viewBox="0 0 714.8 113.8"><title>Asset 5</title><path d="M713.8,109.2a6.6,6.6,0,0,1,1,1.8,15.2,15.2,0,0,1-.2,2.8H.1v-4.6Z" style="fill:#271a97"/><path d="M597.5,82.1V.3c16.3,2.4,34.9-6.2,47.7,9.7,6.9,8.6,4.8,18.9-2.9,27.8,10.2,9,12.9,21,5.8,32C635.8,89,615.2,78,597.5,82.1Zm10.1-9.8c11.3-2.4,23.9,4.2,31.9-7.5,3.4-5.1,3.3-11.8-1.1-16.3-8.8-9-20.1-4.4-30.8-5.5Zm0-38.2c10.4-2,21.6,3.9,29.4-6.2a9.8,9.8,0,0,0-.6-13c-8.2-8.8-19-3.4-28.8-5.1Z" style="fill:#271a97"/><path d="M190,86.4c-22.1-20.7-33.1-44.7-50.5-64.7V80.8h-9.8V1.4c4.1-1.9,7.1-1.2,10,2.8C152.6,22.7,165.8,41,180,60.9V.9h10Z" style="fill:#271a97"/><path d="M90.2,61.2V1H100V80.5c-4.4,1.6-7.5.7-10.4-3.5-12.8-18.4-25.9-36.5-40-56.2V80.9H39.8V1.4c4-1.8,7.1-1.3,10,2.8C62.7,22.7,75.9,41,90.2,61.2Z" style="fill:#271a97"/><path d="M246.1,81.1A39.9,39.9,0,0,1,205.7,41C205.7,18.6,223.8.4,245.9.4s40.2,18,40.6,40.4S268.4,81.1,246.1,81.1Zm30.1-40.4c-.1-17.4-13.5-30.8-30.7-30.7s-29.8,13.9-29.8,31.1,13.6,30.7,30.2,30.7S276.2,58.1,276.2,40.7Z" style="fill:#5cb6c3"/><path d="M447,81.2H364.7l23.5-53.3c3.5-7.8,7.1-15.4,10.3-23.3,1.3-3.2,3-4.6,6.6-4.6s5.6.9,7.2,4.5C423.6,29.8,435.1,55,447,81.2ZM405.4,13.8,376.6,73.5h58.5Z" style="fill:#fe6625"/><path d="M290.9.6h82.3c-10.9,24.6-21.3,48.4-32,72.1-1.7,3.8-1.6,9.1-8.6,9.2s-7.2-5.5-9-9.4C312.7,48.9,302,25.2,290.9.6ZM332.5,68c9.9-20.6,19.2-39.9,28.6-59.6H302.9Z" style="fill:#f9d13d"/><path d="M676.9,43.3V71.7H714v9.2H666.7V1H714v9H677V34h31.3v9.3Z" style="fill:#271a97"/><path d="M516.9.8h10c0,15.6-.1,31,0,46.4.1,13.5,4.6,24.2,20,24.4S567.2,61,567.6,47.7c.4-15.5.1-30.9.1-46.8h8.6c0,19.5,1.8,38.9-.5,57.9s-16,23.8-32.9,22.1-24.8-12.5-25.8-28C516.1,35.8,516.9,18.6,516.9.8Z" style="fill:#271a97"/><path d="M449.4,10.2V1.1h54.2V9.8H481.7v71H471.6V10.2Z" style="fill:#271a97"/><path d="M0,.8H9.3V80.9H0Z" style="fill:#271a97"/></svg>