<svg xmlns="http://www.w3.org/2000/svg" viewBox="0 0 121.7 121.5"><title>Asset 7</title><path d="M121.7,59v3.4a17.9,17.9,0,0,0-.2,2.3v1.6a3,3,0,0,0-.2,1.6c-.1.2,0,.4-.1.5a2.5,2.5,0,0,0-.1.8l-.3,2a.3.3,0,0,0-.1.2.8.8,0,0,1-.1.4c-.1.5-.1,1.1-.2,1.6v.2l-.3,1.3a6.1,6.1,0,0,1-.3,1.3c-.2.3-.1.6-.2.9l-.6,1.8-.6,1.9a5,5,0,0,0-.5,1.3c-.3.8-.7,1.7-1,2.6l-.8,1.5a14.7,14.7,0,0,1-1,2.2c-.7,1.3-1.4,2.7-2.2,3.9s-1.5,2.3-2.2,3.4l-2,2.7a28.5,28.5,0,0,1-2.3,2.6l-2.8,2.9a23.9,23.9,0,0,1-2.3,2.2,25.2,25.2,0,0,1-2.5,2.1,7.1,7.1,0,0,1-1.4,1l-1.4,1.2-2.3,1.5-2.8,1.7-1.9,1-3.4,1.6-2.2.9-2.9,1.1-.9.3-1,.3-1.2.4-1.3.3-1.2.3-1.6.4-1.6.2H70.3c-.4.2-.7.1-1.1.2s-.3-.1-.4,0-1.1.1-1.7.2h-.5a1.3,1.3,0,0,1-.9.2H63.3l-1.3.2H54.5a22.3,22.3,0,0,1-2.7-.3H51l-1.8-.2h-.1l-1.5-.4-1.4-.3a4.7,4.7,0,0,0-1.7-.4h-.1l-1.1-.4-1.1-.3-1.6-.6c-1-.4-2.2-.7-3.2-1.2l-3.1-1.4-5.2-2.8-3-2-2.5-1.9c-.8-.5-1.5-1.2-2.3-1.8l-2-1.8a59.3,59.3,0,0,1-4.3-4.4c-.5-.7-1.1-1.3-1.6-1.9h-.1l-1.1-1.5-1.1-1.4c-.5-.8-1.1-1.6-1.6-2.5A5.7,5.7,0,0,1,8.7,92a15.9,15.9,0,0,1-1.3-2.2L6.2,87.5,5.1,85.3l-.9-2.1a17.2,17.2,0,0,0-.7-2.1,12.7,12.7,0,0,1-.6-1.8l-.3-1L2,76.5a5.3,5.3,0,0,0-.3-1.2,11.6,11.6,0,0,1-.4-1.8v-.2a6.4,6.4,0,0,0-.2-.7v-.5a6.4,6.4,0,0,1-.2-.7v-.3c-.4-.6-.1-1.4-.4-2a8.8,8.8,0,0,1-.2-1.7C.1,66.6.3,65.8.1,65S0,60.3,0,58a11,11,0,0,1,.2-2.5c.1-.4,0-.9.1-1.4v-.5a6.4,6.4,0,0,0,.2-.7,16.6,16.6,0,0,1,.3-2.2c0-.4.1-.8.1-1.2s.1-.1.1-.2l.3-1.5.3-1.4h0A5.6,5.6,0,0,0,2,45.1a7.9,7.9,0,0,1,.3-1.3,15.5,15.5,0,0,1,.8-2.3c.1-.3.1-.6.2-.8s.3-.7.4-1.1l.5-1.2L5,36.3l.7-1.5,1.7-3.3c.4-.8.9-1.6,1.4-2.4s1.1-1.8,1.7-2.7l1.3-1.8.7-.9a26,26,0,0,1,2.6-3.2A27.3,27.3,0,0,1,17.4,18l1.8-1.7L22,13.8l.2-.2,1.5-1.2,1.3-.9L27.1,10l2-1.2,1.7-1c1.3-.8,2.7-1.4,4-2.1l1.8-.9,2.2-.9,1.7-.6,1.6-.5,1-.3a2.9,2.9,0,0,1,1-.3l2.1-.5L48,1.2h.2a.8.8,0,0,1,.7-.2h.3c.4-.3.7-.2,1.1-.2h.3c.3-.2.6-.1.9-.1h.4a2.1,2.1,0,0,1,1.9,0,2.3,2.3,0,0,1,1.4,1.9A21.1,21.1,0,0,0,55.4,5c.2.9,0,1.8.2,2.6s0,1.7.2,2.5a24.5,24.5,0,0,1,.2,2.7c.2.8.1,1.7.3,2.6a21.1,21.1,0,0,0,.2,2.5c.2.8,0,1.7.2,2.5a26.4,26.4,0,0,1,.2,2.8,8.6,8.6,0,0,1,.1,1.6v.4a4.4,4.4,0,0,1,.2,1,6.8,6.8,0,0,0,.2,2,8.6,8.6,0,0,1,0,1.6.9.9,0,0,0,.1.5,1.9,1.9,0,0,1-.3,1.8c-.2.2-.4.5-.7.6l-.7.4-1.4.2a15.2,15.2,0,0,1-2,.6l-2.2.8a14.7,14.7,0,0,0-3.1,1.5l-1.6.9-1.8,1.4a12,12,0,0,0-2.1,1.7,14.5,14.5,0,0,0-2.1,2.2c-.5.7-1.1,1.3-1.6,2.1a13.7,13.7,0,0,0-1.3,2,16.2,16.2,0,0,0-1,1.8l-1,2.2c-.1.5-.4,1-.5,1.5a18,18,0,0,0-.5,1.9c-.3.5-.2,1.1-.4,1.5a16.6,16.6,0,0,0-.3,2.2c0,.5-.1,1.1-.1,1.6a20.6,20.6,0,0,0,.1,4.3,15.2,15.2,0,0,1,.3,2.1c0,.1.1.1.1.2l.3,1.5.3,1.2.6,1.6a10.7,10.7,0,0,0,.7,1.9,24.9,24.9,0,0,0,1.5,2.8l.9,1.4.8,1a11.1,11.1,0,0,0,1.2,1.6,39.5,39.5,0,0,0,3.6,3.5l1.3,1a33.7,33.7,0,0,0,3.2,1.9l2.6,1.2,1.9.7,1.3.4h.3a5.3,5.3,0,0,0,1.2.3,6.9,6.9,0,0,0,2,.3h.2l.7.2H64a1.7,1.7,0,0,1,1.2-.2h1l1.4-.3,1.8-.6,2.7-1,2.7-1.4,3.5-2.3c.7-.5,1.2-1.1,1.9-1.7s1.1-1.2,1.7-1.8l1.6-2.1a21.4,21.4,0,0,0,2-3.2,10.2,10.2,0,0,0,.8-1.5c.3-.6.5-1.3.8-2a7.5,7.5,0,0,0,.5-1.6l.3-1.1c.1-.6.3-1.3.4-1.9a9.9,9.9,0,0,0,.2-1.7h.1a3.1,3.1,0,0,0,.1-1V60.9a3.2,3.2,0,0,1,.2-1.4,2.1,2.1,0,0,1,1-1.1,8.3,8.3,0,0,1,2.1-.6l1.5-.3a7.8,7.8,0,0,1,2.1-.4h.2l.7-.2c.1,0,.2.1.3,0a1.2,1.2,0,0,1,.8-.2h.3a1,1,0,0,1,.7-.2h.3l1.5-.4,1.6-.3h.1l1.6-.4,1.6-.2a.1.1,0,0,0,.1-.1l1.5-.3,1.5-.3h.2l.7-.2h.3l.8-.2h.4l.5-.2c.2,0,.3.1.4,0s1.1,0,1.5-.4l2-.4,1.1-.2,1.7-.3h.2a2.4,2.4,0,0,1,3.1,2v.3a1.5,1.5,0,0,1,.2.9A18.8,18.8,0,0,0,121.7,59Z" style="fill:#67b458"/><path d="M115.1,0l1,.5a3.3,3.3,0,0,1,1.6,1.9,2,2,0,0,1,.1,1.7,3,3,0,0,1-1.4,2.4c-1.4,1.1-2.6,2.4-3.9,3.6l-3.6,3.4-3.7,3.6-3.7,3.4-3.3,3.1-4.6,4.2-2.7,2.7-4,3.7-3.3,3.1-.6.5-1,1.1a1.8,1.8,0,0,1-1.8.9h-.7a1.3,1.3,0,0,1-1.2-.4,1.8,1.8,0,0,1-.8-1.1c-.1-.2-.2-.3-.2-.5a3.4,3.4,0,0,1,.5-2.2c.6-1.1,1.1-2.3,1.8-3.4l1.5-2.9c.6-1.2,1.3-2.4,1.9-3.7s1.1-2,1.6-3L86.5,19l1.2-2.4c.7-1.5,1.5-2.9,2.3-4.4s.6-1.3,1-2,1.5-2.9,2.3-4.4a17.4,17.4,0,0,1,1-1.9,6.2,6.2,0,0,1,2-2.5L97.6.7,98.8.3l1-.3Z" style="fill:#67b458"/><path d="M80.1,60.7v1.9a1.5,1.5,0,0,1-.2.9v.3a2,2,0,0,1-.2,1,4.2,4.2,0,0,0-.3,1.2,8.3,8.3,0,0,1-.4,1.5c-.4.7-.7,1.5-1.1,2.2a8.8,8.8,0,0,1-1.2,2.1,20.6,20.6,0,0,1-2.8,3.1L72,76.5a21.4,21.4,0,0,1-3,1.7l-1.5.6-1.6.6-1.1.3a8.2,8.2,0,0,1-2.2.2l-.8.2h-.7a5,5,0,0,1-1.7-.1c-.3-.2-.7-.1-1.1-.1l-.8-.2h-.2a11.6,11.6,0,0,1-1.8-.4l-2.2-.7-2.6-1.4-1.6-1.1h-.2a22.3,22.3,0,0,1-2.7-2.6c-.4-.6-.8-1-1.2-1.5A19.9,19.9,0,0,1,43.8,70a18.3,18.3,0,0,1-1.4-3.2,2.8,2.8,0,0,1-.3-1.3,5.7,5.7,0,0,1-.4-1.4v-.2c0-1-.4-2-.3-3a5.6,5.6,0,0,0,0-1.3c.2-.8.2-1.7.4-2.5l.3-1A11.9,11.9,0,0,1,43.6,52a13.5,13.5,0,0,1,1.5-2.6,19.2,19.2,0,0,1,3.4-3.6,14.5,14.5,0,0,1,4.3-2.6l2.5-1.1,1.4-.3,1.7-.3h4l.9.2h.2l1.7.3,1.9.5,1.6.6,2.1,1.1a18.9,18.9,0,0,1,2.7,2A10.6,10.6,0,0,1,75,47.6a15.6,15.6,0,0,1,1.6,2,13.8,13.8,0,0,1,1.7,2.9,18,18,0,0,1,.8,2.1,6.5,6.5,0,0,1,.5,2c.1.5.3,1.1.4,1.6v.5a14.1,14.1,0,0,1,.1,2Z" style="fill:#67b458"/><path d="M109.4,30.4h.4a5.9,5.9,0,0,1,2.3.5,6.6,6.6,0,0,1,2.2,1.5,7.4,7.4,0,0,1,1.3,2.1,4.7,4.7,0,0,1,.4,1.7c0,.3.2.5.2.8s-.1.5-.1.8a.4.4,0,0,0-.1.3,4.8,4.8,0,0,1-.9,2.5,6.4,6.4,0,0,1-1,1.3,7.4,7.4,0,0,1-2.1,1.3l-2,.7-1.6.6-1.8.5-1.5.4-1,.4-2.6.9-1.6.4-2.4.8-.8.3-2.4.7-2.3.8-1.7.5-.8.3a2.5,2.5,0,0,1-1.7.1A2.6,2.6,0,0,1,86,49.1a3.9,3.9,0,0,1-.2-1.5,3.4,3.4,0,0,1,1.1-1.7l1.5-1.1L90.8,43,92,42l1.7-1.2.9-.8,1.5-1.1c.8-.5,1.4-1.2,2.2-1.7l1.4-1.1,1.4-1.1.3-.2,1.7-1.3a4.8,4.8,0,0,0,1.1-.9l2.4-1.6,1-.3A3.1,3.1,0,0,1,109.4,30.4Z" style="fill:#f07c20"/><path d="M72.6,1.4h.8a5.4,5.4,0,0,1,3.4,1.4l.7.7a6.1,6.1,0,0,1,1.3,2.2,5.8,5.8,0,0,1,.4,3.2,4.8,4.8,0,0,1-.5,1.4l-.6,1.3a10.7,10.7,0,0,1-.7,1.9,10.8,10.8,0,0,1-.8,1.9l-.7,1.9-.9,2c-.3.9-.7,1.7-1,2.6s-.5,1.2-.7,1.9a18.9,18.9,0,0,0-1.1,2.5l-1.2,3a14.2,14.2,0,0,1-.8,1.8l-.4,1.2a2.8,2.8,0,0,1-1.4,1.2l-.7.2A2.8,2.8,0,0,1,65,32.1a3.1,3.1,0,0,1-.2-2.1.7.7,0,0,0,.1-.5V26a3.1,3.1,0,0,1,.2-.8v-.5a26.2,26.2,0,0,1,.1-2.8c0-.5.1-1,.1-1.5v-.5c.1-1.1,0-2.1.1-3.2s0-3.2.2-4.8.1-3,.2-4.4l.3-1.1a3.6,3.6,0,0,1,.4-1.1,4.3,4.3,0,0,1,.4-.7,6.6,6.6,0,0,1,2.3-2.4l1.9-.7c.4-.2,1,0,1.5,0Z" style="fill:#f07c20"/></svg>