<svg xmlns="http://www.w3.org/2000/svg" viewBox="0 0 363.8 86.6"><title>Asset 12</title><path d="M64,57c0,8.8-.3,17.1.1,25.4.2,5-2.8,4.1-5.7,4.2s-6.2.5-5.5-4.4a42.8,42.8,0,0,0,0-8c-.7-8.3-.3-15.9,7-21.9,3.1-2.4,3.9-6.8,5.8-10.8C70.5,49.1,76.9,53.4,86,53a20.7,20.7,0,0,0,19.5-20.7A20.5,20.5,0,0,0,85.6,11.5c-11.5-.3-21,8-21.6,19C62.7,52.4,48,65.9,27.8,63.8,12.8,62.2.4,48.7.2,33.7,0,23.9.4,14,0,4.2-.2-.9,2.9.2,5.7.1s5.8-.5,5.5,4.3c-.4,9-.1,18-.1,27,0,12.1,8.4,21.2,19.6,21.6s21.6-8.2,22.2-20.7C53.9,14.1,65,2.3,83,.2s32,13.5,33.4,30.7c1.5,19.9-19.6,40.4-43.9,30.7C69.7,60.5,67.3,58.8,64,57Z" style="fill:#98d224"/><path d="M189,24.4c1.3-5.5,2.6-10.9,4-16.4.5-2,0-4.9,3.6-4.8s2.9,3.1,3.5,5.1c1.5,5.3,2.7,10.8,4.7,16.2,1.3-6.1,2.8-12.1,3.9-18.2.4-2.7,1.7-3.5,4-3s1,2.6.7,4c-1.7,8.3-3.6,16.5-5.3,24.8-.4,1.9-.9,3.3-3.4,3.4s-3.1-1.3-3.5-3.3a163.8,163.8,0,0,0-5-18.1L192,31.4c-.5,2-.5,4.2-3.8,4.1s-2.9-2.1-3.3-4L179.5,7.2c-.3-1.4-1.8-3.4,1.1-3.9s3.4.7,3.8,3.1c1.1,6.1,2.5,12,3.8,18Z" style="fill:#fff"/><path d="M316.3,16.9V32.4c0,1.5.2,3-2.1,3s-2.3-1.8-2.3-3.4V7.1c.1-1.5-.9-3.7,1.9-3.8s3.8-.3,5,2.1c2.9,5.9,6.1,11.7,9.2,17.6a4.4,4.4,0,0,0,2.1,2.2V6.5c0-1.6-.5-3.4,2.3-3.3s2.3,1.8,2.3,3.5c0,8.3,0,16.6-.1,24.9,0,1.5.8,3.7-1.9,3.7s-3.8.6-5-1.9c-3.1-6.3-6.4-12.4-9.6-18.5a3.3,3.3,0,0,0-1.7-2.6C315.6,13.9,316,15.4,316.3,16.9Z" style="fill:#fff"/><path d="M243,19.2c0,11.1-5.1,17.2-13.9,16.6h-1c-8-1.1-12.4-9.8-10.6-20.7,1.6-9.3,7.2-13.7,15.4-12.2C239.3,4.1,243,10,243,19.2Zm-20.4,0a38.7,38.7,0,0,0,.5,4.9c.8,3.8,2.6,6.6,6.8,6.7s6.5-2.7,7.3-6.7a22.1,22.1,0,0,0,0-9.9c-.9-3.7-2.8-6.4-7-6.3s-6.3,2.6-7.1,6.4A38.7,38.7,0,0,0,222.6,19.2Z" style="fill:#fff"/><path d="M150.1,19.3c0-11,4.8-16.8,13.5-16.5S175.5,8.6,176,18.6s-5.1,17.7-13.9,17.2S150.1,29.5,150.1,19.3Zm20.4-.7a24.8,24.8,0,0,0-.3-3.3c-.7-4.1-2.3-7.4-7.1-7.4s-6.5,2.8-7.2,6.8a31.1,31.1,0,0,0-.6,4.4c0,7.5,2.8,11.8,7.8,11.7S170.6,26.7,170.5,18.6Z" style="fill:#fff"/><path d="M363.7,26.8c-1.4,2.3,2.7,6.7-3,8.2-7.4,2-13.5.7-16.8-4s-4-17.9.5-23.5,12.4-6.3,17.4-3.6c1.6.9,1.5,1.9.9,3.3s-.9,2.5-2.8,1.7c-4.3-1.8-8.6-1.9-11.5,2.4s-3,10.1-.9,15.3c1.1,2.5,3.2,4.3,6.2,4.1s5.2,1.2,5.2-2.7,1.1-6.1-3.7-5.3c-2,.3-2.1-1-2.1-2.5s.2-2.6,2.1-2.4h.5C363.7,17.2,363.7,17.2,363.7,26.8Z" style="fill:#fff"/><path d="M269.3,35c-3.2,1.1-5.4.4-6.7-3a76,76,0,0,0-3.7-7.6,3,3,0,0,0-3.3-1.6c-2.3.2-1.3,2-1.4,3a54.5,54.5,0,0,0,0,7c0,1.5-.1,2.7-2.1,2.6s-2.9-.2-2.9-2.4c.1-9.1,0-18.3,0-27.5,0-.8.1-2,1-2,4.8-.2,9.8-1.3,14.1,1.6s3.3,6.3,2.9,10a3,3,0,0,1-.5,1.9c-6.1,4.6-1.5,8.7.5,13C268,31.6,269.4,32.9,269.3,35Zm-7-22.2c.3-3.8-2.6-4.4-5.7-4.8s-2.8,2.1-2.3,3.5-2.9,6.2,2.4,6.4C259.8,18,262.2,17,262.3,12.8Z" style="fill:#fff"/><path d="M295.2,34.8c-3.8,1.3-6.1.5-7.6-2.9a59.5,59.5,0,0,0-4.8-8.1c-.4-.8-.6-2.2-2-1.6a2.2,2.2,0,0,0-1.6,2.3c0,2.8-.1,5.6,0,8.4s-.3,2.6-2.2,2.5-2.8-.4-2.8-2.5c.1-9,.1-17.9,0-26.9,0-1.9.5-2.7,2.5-2.8s2.5.9,2.5,2.7c-.1,3.5-.1,6.9-.1,10.6,6-3.6,6.2-13.4,16.3-13.4-3.3,4.6-5.9,8.4-8.7,12-1.4,1.7-1.4,3-.3,4.8C289.4,24.7,292.1,29.6,295.2,34.8Z" style="fill:#fff"/><path d="M198.1,81.4c-4.1,1.6-6.1-.1-6.5-4s-3.2-4.3-6.7-4.5-5.2,1.2-5.7,4.5-1.9,5.5-6.3,4l9.3-30c.6-2,2.1-1.6,3.6-1.8s2.7,1.3,3.2,2.9C192.1,62.1,195.1,71.7,198.1,81.4ZM182.2,67.5c6.8.8,6.8.8,5-5.1-.5-1.7-.9-3.4-1.7-6C184.3,60.7,183.2,64.1,182.2,67.5Z" style="fill:#fff"/><path d="M139.1,49.2l4.9,1.2c1.9.4,2.1,1.4,1.5,3.3s-1.1,2.6-3.1,1.6a9,9,0,0,0-2.8-.8c-2.1-.2-4.2-.4-5.2,1.9s0,4.2,2.1,5.5,2.7,1.4,4,2.1c5.3,3,7.2,7.1,5.5,12.4s-5.8,6.7-11.4,5.8c-2.4-.4-6.1.4-5.7-4.3.1-2,.5-2.4,2.6-1.7s7.7,3,9.5-1.5-3.2-5.7-6.1-7.4c-4.8-3-7-7.4-5.5-12.1S134,49.3,139.1,49.2Z" style="fill:#fff"/><path d="M152.1,65.4c0-4.3.1-8.6-.1-12.9,0-2.2.7-3,2.9-2.7s2.9,0,4.4,0c7.6,0,10.8,2.6,11,9s-2.5,10.7-10,11.1c-2.9.2-3.3,1.2-3.2,3.6s-.1,3.9.1,5.9-.7,2.5-2.6,2.5-2.6-.6-2.6-2.5C152.2,74.7,152.1,70.1,152.1,65.4Zm4.7-5.4c1.7,1.3-2,4.9,2.4,5s6.1-1.1,6.1-5.4-2.2-4.8-5.4-4.9C155,54.5,158.1,58.2,156.8,60Z" style="fill:#fff"/><path d="M234.2,81.8c-7.1,0-7.1,0-7.1-7.3s.1-14.2-.1-21.4c0-2.5.5-3.6,3.3-3.4s6.6.1,9.9.1c1.5,0,2.6.2,2.5,2.1s-.3,3-2.4,2.8-2.4,0-3.5,0c-4.6,0-6.1,2.3-4.8,6.7.4,1.4,1.2,1.4,2.2,1.4s3.6.1,5.4,0,2.6.4,2.6,2.4-.9,2.7-2.7,2.5a13.4,13.4,0,0,0-2,0c-5.1,0-7.2,3.1-5.5,8,.4,1.4,1.3,1.2,2.3,1.2h5.9c2.2-.1,2.5,1.1,2.5,2.8s-.9,2.2-2.5,2.2Z" style="fill:#fff"/><path d="M200.9,66.2c-.1-12.5,6.9-19.2,17.2-16.4,1.8.5,4.1.7,3,3.8s-2.1,2-4.1,1.4c-5.3-1.7-8.5.2-10.3,5.6-.8,2.4-.6,4.9-.5,7.4.3,7.3,3.8,10,11.1,8.9,1.1-.2,3-2,3.4.9s-.3,3.4-2.6,4.1C207.9,84.8,201,78.6,200.9,66.2Z" style="fill:#fff"/><path d="M125.2,20.8c.1-13.5,7.4-20.4,17.2-17.4,1.6.4,4.4,0,3.3,3.5s-2.6,2.2-4.5,1.5c-3.6-1.4-6.8-.5-8.7,2.7a16.6,16.6,0,0,0-.2,16.3c2.1,3.9,5.8,3.8,9.6,3,1.1-.3,2.7-1.9,3.1.4s.8,3.4-1.9,4.4c-7.4,2.6-14.9-.9-16.9-8.5C125.6,24.3,125.4,21.8,125.2,20.8Z" style="fill:#fff"/><path d="M304.1,19.8c0,4.1,0,8.3.1,12.5,0,1.7,0,3.3-2.5,3.1s-2.5-1-2.5-2.8c.1-8.8.1-17.7,0-26.5,0-2.2.7-2.9,2.9-2.9s2,1.6,2,3.1C304.2,10.8,304.1,15.3,304.1,19.8Z" style="fill:#fff"/><path d="M53.1,17V7.7c0-7.7,0-7.7,7.7-7.1,1.1.1,2.5-.4,2.9,1.2a3.1,3.1,0,0,1-1.1,3.6C58.8,8.2,56.3,12.1,53.1,17Z" style="fill:#969696"/><path d="M316.3,16.9c-.3-1.5-.7-3,.1-4.6a3.3,3.3,0,0,1,1.7,2.6C316.6,14.9,317.1,16.4,316.3,16.9Z" style="fill:#fff"/></svg>