<svg xmlns="http://www.w3.org/2000/svg" viewBox="0 0 363.8 395.6"><title>Asset 11</title><path d="M186.4,376.3c-11,19.5,8.6,16.1,21.1,16.3,0,0-4.9-6.8-8.6-6.5,3.4-2.2,2.5-7.4-1.2-10.5S192,373.9,186.4,376.3Z" style="fill:#89bddf;stroke:#89bddf;stroke-linecap:round;stroke-linejoin:round"/><path d="M88.4,197.2c5.6,13.3,7,26.5,7.3,40.8,6.5-2.5,10.4-15.1,9.8-21.7C104.6,207.8,95.2,201.6,88.4,197.2Z" style="fill:#d83939;stroke:#d83939;stroke-linecap:round;stroke-linejoin:round"/><path d="M157.4,324.9l39,54.5c3.3,4.6,6.9,12.2,11.8,14.2,7.8,3.3,23.2,0,31.9-.1l-36.4-71.6c-2.5-4.9-6.7-17.8-11.3-19.3C186.1,300.6,157.2,317.5,157.4,324.9Z" style="fill:#2d3f50;stroke:#2d3f50;stroke-linecap:round;stroke-linejoin:round"/><path d="M32.9,140c7.7-3.5,11.7-5.5,5.7-12-10.5-11.6-33.9,2.5-37.3,14.4-4.4,15.4,9.2,26,23.5,23,3.7-.7,16.5-9.8,19.6-3.1s-9.7,9.8-12.8,10.8-12.6-2.8-15.4,4.6,7.6,9.3,11.8,10c15,2.5,36-13.4,31.7-29.7-6.7-25.1-27.8-1-40-5.7S25.1,138,32.9,140Z" style="fill:#e85647;stroke:#e85647;stroke-linecap:round;stroke-linejoin:round"/><path d="M27.7,140.5c-6-1.6-14.9,8.1-7.8,8.8C20.9,149.4,26.6,141.7,27.7,140.5Z" style="fill:#2c3e50;stroke:#2c3e50;stroke-linecap:round;stroke-linejoin:round"/><path d="M39,124.9c13.6,11.1-4.3,9.3-2.7,16.5.9,4.1,9.7-1.6,10.7-3C50.6,133.3,46.9,124,39,124.9Z" style="fill:#2c3e50;stroke:#2c3e50;stroke-linecap:round;stroke-linejoin:round"/><path d="M61,149.8c16.4,18.1-5.5,41.6-25.8,39.4C52.6,182.5,74,164.5,54,146.4A9.4,9.4,0,0,1,61,149.8Z" style="fill:#2c3e50;stroke:#2c3e50;stroke-linecap:round;stroke-linejoin:round"/><path d="M19,169.1c9.1-3.1,15.9-8.3,23.5-6.7C38.1,168.5,26.1,171.3,19,169.1Z" style="fill:#2c3e50;stroke:#2c3e50;stroke-linecap:round;stroke-linejoin:round"/><path d="M74.7,169.2c1.4-3.9,5.4-3.7,7.7-6.8s1.6-7.5,4.3-10.8,20.9-9.7,19.3-7-6.1,3.3-8.5,5.4-5.2,6.4-7.8,9.6C85.8,164.5,82.1,172.6,74.7,169.2Z" style="fill:#2c3e50;stroke:#2c3e50;stroke-linecap:round;stroke-linejoin:round"/><path d="M91.1,104.1c-4.4-3.2-8.9-7.9-14.4-6.5,4.4,9.7,20,16.6,28.4,22.6,3.7,2.6,16.4,8.9,18.2,13.1,3.6,8.2-1.2.4-3.6,7.8-.9,2.6-6.1,1.8-4,5.4s7.1-1.4,8.7-2.2c10-5.5,6.3-10.4-.1-16.6C114.7,118.4,101.2,113,91.1,104.1Z" style="fill:#2c3e50;stroke:#2c3e50;stroke-linecap:round;stroke-linejoin:round"/><path d="M235.7.9q-37.5,21.3-74.9,42.7c-10.7,6.2-71.2,32.1-65.9,45.7s9.3-1,16.6.9,14.2,22.9,18.1,29.1,8.9,16.1,16.4,5.2c4.3-6.3-2.6-13.7-6.1-19.6-7.2-12.2-16.9-18.5-7.1-28.2s28.1-16.9,40.4-24c30.4-17.6,61-34.9,91.6-52.2Z" style="fill:#e85647;stroke:#e85647;stroke-linecap:round;stroke-linejoin:round"/><path d="M149.8,123.9c-3.7,1.3-10.9,7.1-3.4,7.4,10.9.5,9.6-7.9,7.8-13.7-3.1-10.1-15.3-19-17-29.6s15.6-15.9,26-21.9L276.6.5c-13.9.2-21.9,6.8-33.9,13.8L175.9,53c-10.7,6.2-37,15.1-44.1,25.5S155.4,120.7,149.8,123.9Z" style="fill:#2c3e50;stroke:#2c3e50;stroke-linecap:round;stroke-linejoin:round"/><path d="M148.1,146.6c-1.3-4.5,7-12.5,12.2-11.5s7.6,9.1,9.8,12.9c9.1,15.8,17.7,37,30.5,50.2,4.5,4.6,10.9,11,17,2.7s-8.5-27.1-12.4-33.5c-9.4-15.5-22-32.7-26.9-50.3-3-10.5-1.8-20.9,6-28.9,4.8-4.9,22.5-16,30.2-12.2s4.8,12.2.2,16-11.7,1.4-15.9,6.4-3.4,11.4-1.2,17.7c4.9,13.8,15.5,27.3,22.5,40.1s20.9,31.3,16.4,46.5c-6.7,22.1-34.9,25.7-48.4,9.5C172.1,193,160.5,168,148.1,146.6Z" style="fill:#2c3e50;stroke:#2c3e50;stroke-linecap:round;stroke-linejoin:round"/><path d="M305.5,137.6c21.1-.4.6-27.9-4.1-36.5-5.6-10.3-14.2-36.5-27.4-32.5-15.1,4.7.6,21.5,5.7,30.2S296.5,136.4,305.5,137.6Z" style="fill:#2c3e50;stroke:#2c3e50;stroke-linecap:round;stroke-linejoin:round"/><path d="M316.3,140.4c12.7-5.1,20.2,15.4,6.2,19.1C310.3,162.7,305,145.4,316.3,140.4Z" style="fill:#2c3e50;stroke:#2c3e50;stroke-linecap:round;stroke-linejoin:round"/><path d="M111.4,166.7c4.6,23.1-8.5,40.3-12.4,61.9-4.9,27.7,23.5,27,42.6,19.3,9.1-3.6,9.8-6.9,11.8-14.9,2.7-11.2,10.2-31.6-8.7-32.6C146.4,184.5,122.3,172.5,111.4,166.7Z" style="fill:#e54c3c"/><path d="M119,186.2a2.6,2.6,0,0,1,2.1-2.7c7.8,3.9,15.3,25.6,14.4,34s-12.7,23.3-21.6,12.2C107.9,222.3,118.1,193.3,119,186.2Z" style="fill:#f16761;stroke:#f16761;stroke-linecap:round;stroke-linejoin:round"/><path d="M130.6,273.1c-7.1-13.4-13.9-18.2.5-28,18.5-12.8,22.2-4.2,31.9,10.5Z" style="fill:#2c3e50"/><path d="M104,295.7c-20.9-24.1,91.4-75.6,90.8-49.2" style="fill:none;stroke:#4b7564;stroke-miterlimit:10;stroke-width:3px"/><path d="M113.8,307.3a13.2,13.2,0,0,0-11.2-3.8s6.9-4-1-7.7c0,0,12.9-2.4,4.7-8.6,8.8.6,11.2-7.7,15.4-11.4,2.1-1.9,10.7-9.7,12.5-10.7s5.8.3,8.1-1c4.2-2.3,8.5-8.6,11.7-10.2s8.2-.9,11.2-2a13.5,13.5,0,0,0,6.4-7.1,32.4,32.4,0,0,0,3.3,1.3c4.6-2.2,9.7,3.4,12.6-4.6,0,0,6.4,7.5,10.6.5,0,0-1.4,8.8,4.4,14.3C202.5,256.3,134.1,279.9,113.8,307.3Z" style="fill:#435e75;stroke:#435e75;stroke-linecap:round;stroke-linejoin:round"/><path d="M213.3,263.3C203,228,93.9,302.6,113.4,318c6.1,4.7,41.2-20.9,48.7-25.3Z" style="fill:#92bfdd;stroke:#92bfdd;stroke-linecap:round;stroke-linejoin:round"/><path d="M120.1,322.7c-12.5.4-1.4-15.6,2-19.5,11-12.8,27.3-21.6,42.1-29.1,4.7-2.4,59.3-23.5,47-4-2.5,4.1-13.7,7.9-17.7,10.2l-31.1,17.9Z" style="fill:#364d60;stroke:#364d60;stroke-linecap:round;stroke-linejoin:round"/><path d="M121.7,325.1c-26.5-28.2,93.6-75.1,92.4-53-.3,6.3-37.9,22.3-44.1,25.8Z" style="fill:#6c97bc;stroke:#6c97bc;stroke-linecap:round;stroke-linejoin:round"/><path d="M142.3,323.7c-20.1,8.5-26.5.2-12.1-15.5s54.9-43.7,76.8-38.4c19.7,4.7-8.9,23-17.3,28.2C174.5,307.4,158,315.2,142.3,323.7Z" style="fill:#495968;stroke:#495968;stroke-linecap:round;stroke-linejoin:round"/><path d="M159,326.5c-11.5,10.2-10.6-7.7-6.9-13.6,5.8-8.9,20.6-17.3,30.6-19.1,14.5-2.5,20.4,3.3,6.8,11.8C178,312.7,167.5,314.4,159,326.5Z" style="fill:#32607c;stroke:#32607c;stroke-linecap:round;stroke-linejoin:round"/><path d="M214.3,343.2c-5.8-2.8-19.2-9-20.6-16.1-2.7-13.5,16.2-5.4,23-2,27.9,14,32.1,44.6,43.1,70-7.8-2.5-19.7-3.9-25.2-9.9s-3.2-11-5.1-15.7C226.1,361.2,218.8,351,214.3,343.2Z" style="fill:#89bddf;stroke:#89bddf;stroke-linecap:round;stroke-linejoin:round"/><path d="M122.8,135.3c-3-5.4-14-10.4-18.9-13.9-8.6-6.1-17.2-13.5-26.4-18.7-21.8-12.4-12.4,17.3-11.2,31,.7,7.2-1.8,45.7,13.8,28.9,7-7.6,8.2-20.4,23.1-21.7C103.9,140.8,127.9,144.7,122.8,135.3Zm-36.2-1.5c-9,5-8.9-10.2-6.2-11.5S94.4,129.4,86.6,133.8Z" style="fill:#e85647;stroke:#e85647;stroke-linecap:round;stroke-linejoin:round"/><path d="M105.6,94.4c5.9-5.7,6,.4,6.5.4S100.4,95.8,105.6,94.4Z" style="fill:#2c3e50;stroke:#2c3e50;stroke-linecap:round;stroke-linejoin:round"/><path d="M261,163.3c-3.6-6.5,3.3-6.1,6.8-9.8,10-10.6,16.3-21.7,11.5-36.5-9.2-28.1-32.5-32.1-55.9-19.3-12.9,7.1-14.6,5.9-11.5,16.5,2.7,9,10.1,18.3,14.6,26.5C261,202,296.4,262.8,331.8,323.6c10.2,17.6,20.4,35.3,30.7,52.9.2-14.6,2.9-30.2-2.7-43.6-8.1-19.4-21.8-37.9-32.4-56C305.3,239.1,281.9,201.8,261,163.3Zm-10.3-20.1c-8.9-3.7-20.8-29.7-12.1-35C263.5,93,268.2,150.5,250.7,143.2Z" style="fill:#2c3e50;stroke:#2c3e50;stroke-linecap:round;stroke-linejoin:round"/><path d="M173,338c-5.5-4.7-13.2-4.2-18.6-8.1-1.5-1-6.1-19.6-13-9.6s21,26.3,27.7,29.1Z" style="fill:#6ab6e1;stroke:#6ab6e1;stroke-linecap:round;stroke-linejoin:round"/><path d="M189.1,330.6c-10.9-1.3-40.1,22.7-21.7,25.2,3.6.6,14-9.1,16.7-11.2S200.8,325.9,189.1,330.6Z" style="fill:#89bddf;stroke:#89bddf;stroke-linecap:round;stroke-linejoin:round"/><path d="M207.4,345.2c-7.2-3.1-19.2,1.5-25.4,5.3-9,5.5-14.6,17.7,1,13.9,4.6-1.2,10-6.4,14.9-8.2s8.2-.7,11.2-3.2S215.7,342.1,207.4,345.2Z" style="fill:#89bddf;stroke:#89bddf;stroke-linecap:round;stroke-linejoin:round"/><path d="M216.2,358.6c-13.2-1.3-38.9,3.4-37.2,20.3,7.2-1.8,15.3-2.3,22.3-4.9C204.2,372.9,221.2,357.8,216.2,358.6Z" style="fill:#89bddf;stroke:#89bddf;stroke-linecap:round;stroke-linejoin:round"/><path d="M230.1,370.3c-7.1-7.3-11.3-18.3-15.8-27.1" style="fill:#89bddf"/><path d="M256.8,393.1,249,367.6c1.6,13.3-12.3,11.5-19.4,5,.4,3.7,4.7,16.1,7.9,18.9C243.5,396.6,246.8,394.7,256.8,393.1Z" style="fill:#6ab6e1;stroke:#6ab6e1;stroke-linecap:round;stroke-linejoin:round"/></svg>