<svg xmlns="http://www.w3.org/2000/svg" viewBox="0 0 243.9 208.8"><title>Asset 1</title><path d="M104.2,0a25.9,25.9,0,0,1,7.2,2.1,21.2,21.2,0,0,1,11,20c-.7,7.3-3.9,12.9-10.1,16.8-.3.2-.2.4-.1.6a59.7,59.7,0,0,1,5.9,26.6c-.1,6.6-.8,13.2-1.3,19.8l-2.1,23.9c-.8,9.8-1.8,19.6-2.9,29.4a170.9,170.9,0,0,1-4,24.8c-2.7,10.2-6.4,19.9-12.7,28.5-8.7,11.9-20.6,17.1-35.2,16.2s-25.3-7-35.4-16.2c-4.5-4.1-8.1-8.8-10-14.7-3-9.9.9-20.3,10-26.4a21.4,21.4,0,0,1,11.4-3.9,9.6,9.6,0,0,1,7.8,3.4c2.7,3,4.4,6.8,6.1,10.4A127.3,127.3,0,0,0,58,176.8a20.7,20.7,0,0,0,3.3,3.9c4.2,3.7,8.9,4,13.5.8s6.8-7.1,9-11.6c3.4-7.1,5.1-14.7,6.6-22.4s2-12.6,2.6-19c.1-.2,0-.3,0-.4l-.3.2c-11,8.6-23.7,11.8-37.4,11.2-10.6-.5-20-4.2-27.5-11.8s-10.2-14.5-12.5-23.2a85.9,85.9,0,0,1-2-30.3,100.8,100.8,0,0,1,4.8-23.7c.1-.4-.1-.4-.4-.4A20.1,20.1,0,0,1,.2,32.4a1.4,1.4,0,0,0-.2-.6V28.6a2.4,2.4,0,0,0,.2-.8A20.1,20.1,0,0,1,36,17.9c1.2,1.5,1.2,1.5,2.7.3C46.4,11.7,55.1,8,65.3,8A46.7,46.7,0,0,1,84,12.1c.5.3.6.2.8-.3A20.1,20.1,0,0,1,94.1,2a21.5,21.5,0,0,1,7.1-2Zm-10,74.7a45.7,45.7,0,0,0-.5-8.3c-1-7.5-3.1-14.5-7.3-20.8-6.6-9.7-17.2-13.4-27.8-9.5-6.7,2.4-11.4,7.2-15.1,13.2s-6.4,14.2-7.9,21.8-2.3,14.7-1.1,22.2a25.2,25.2,0,0,0,7.8,15.3c4.5,3.9,9.8,5.8,15.6,6.8.3.1.4-.1.4-.4a101.1,101.1,0,0,0,3.9-25.1c0-.9,0-1.7-1.1-1.9a1.9,1.9,0,0,1-1-.5,33.7,33.7,0,0,1-6.3-5.6,11.7,11.7,0,0,1-2.4-3,2.7,2.7,0,0,1,.5-3.5,7.8,7.8,0,0,1,3.3-1.6,36.1,36.1,0,0,1,12.7-.6,19.9,19.9,0,0,1,7.6,2c2.4,1.2,2.8,3.1,1.2,5.1a22.3,22.3,0,0,1-11.3,8c-.3.1-.4.1-.4.4a86.7,86.7,0,0,0-.9,26.9c.1.4.2.5.6.5a28.1,28.1,0,0,0,11.1-1.7c7.1-2.6,11.5-8,14.2-14.9S94,83.1,94.2,74.7Zm5.9-61.5a10,10,0,0,0-7.5,3.1c-.3.3-.3.4.1.6a57,57,0,0,1,14.1,13.6c.2.3.4.4.7.1a10.1,10.1,0,0,0,2-11.1A10.1,10.1,0,0,0,100.1,13.2ZM25.3,24.3a9.8,9.8,0,0,0-4.9,18.3c.4.3.6.2.8-.2a71.2,71.2,0,0,1,9.5-15.9c.2-.3.2-.5-.2-.7A9.5,9.5,0,0,0,25.3,24.3Z" style="fill:#1b447b"/><path d="M243.9,77.8c-.1,2.2-.1,4.4-.3,6.6-.5,9.7-.8,19.4-2.7,29a30.5,30.5,0,0,1-2.8,8.7,16.4,16.4,0,0,1-10.2,8.9c-6.3,2-12.7,2.6-19.1.9s-12.6-7.4-15.8-14.4a52,52,0,0,1-4.3-16.9c-1.2-10.8-1.9-21.6-3.2-32.3-.4-3.3-1.2-6.5-1.2-9.8s2-7.6,5.8-8.9,8.4-.4,11.1,3.3,3.7,7.6,4.6,11.8c1.2,6.4,1.3,12.9,1.4,19.4s.5,12.1,2.7,17.8a13.7,13.7,0,0,0,2,3.5,5.5,5.5,0,0,0,9.6-1c1.7-3.4,1.9-7,2-10.6.2-8.1-.7-16.2-1.1-24.3a72.3,72.3,0,0,1,.4-14.7,11,11,0,0,1,.6-2.6c1.3-4.5,3.2-5.9,7.9-5.9s9.1,2.1,10.8,8a38.8,38.8,0,0,1,1.1,4.9,63.6,63.6,0,0,1,.6,8.7v9.9Z" style="fill:#1b447b"/><path d="M183.7,90.9c.1,8-.7,15.8-4.1,23.2a29.7,29.7,0,0,1-16.5,15.4,52.5,52.5,0,0,1-28,2.9c-10.4-1.7-16.8-9.5-16.6-19.8.1-8.5,3.1-15.9,10.6-20.5,11.5-6.8,23-6.6,34.2,1.1l2.8,2.2c.5.5.7.2.9-.3a20.4,20.4,0,0,0,0-13.8A26.7,26.7,0,0,0,155.1,67c-4.7-2.9-9.3-2.2-13.6.9-2.8,2-5.4,4.3-8.5,5.8a10.5,10.5,0,0,1-6,1.2c-3.5-.4-5.2-2.3-5.3-5.8a20.5,20.5,0,0,1,6.1-14.9c5.8-6.1,13.1-8.2,21.3-7,13.7,1.9,23.2,10,29.9,21.8,3.5,6.1,4.6,12.9,4.7,19.9Zm-36.4,28a16.2,16.2,0,0,0,3.1-.2,13.8,13.8,0,0,0,7.8-2.6,5.6,5.6,0,0,0,2.1-5.5c-1.5-8.2-7.3-10.7-14.2-9.9-4.7.5-9,5.5-9.7,10.5s.8,6,4.5,7A22.9,22.9,0,0,0,147.3,118.9Z" style="fill:#1b447b"/><path d="M128.8,44.4a12.3,12.3,0,0,1-3.3-.3c-1-.2-1.2-.7-.4-1.4a18,18,0,0,1,4-2.8c4.4-2.8,8.3-6.3,12.4-9.4a44.6,44.6,0,0,1,7.4-4.8,5,5,0,0,1,5.4.5,38.3,38.3,0,0,1,7.2,7.3,85.8,85.8,0,0,0,9.6,10.4c.5.4,1.3,1,.9,1.4s-1.1,0-1.6-.2a41.9,41.9,0,0,1-15.7-9.7,11.5,11.5,0,0,1-1.9-2.6c-.2-.4-.3-.4-.5-.1A29.2,29.2,0,0,1,128.8,44.4Z" style="fill:#1b447b"/><path d="M208.5,156.4c0-3.4,0-6.9-.1-10.3a1.7,1.7,0,0,1,1.4-1.9,1.6,1.6,0,0,1,1.9,1.3c.1.6.4.1.5,0a9.1,9.1,0,0,1,9.3-.2,6.3,6.3,0,0,1,2.3,2c.1.2.2.3.4,0a9,9,0,0,1,10-2.6,8.6,8.6,0,0,1,5.4,8.2v13.9a1.6,1.6,0,0,1-1.7,1.8,1.6,1.6,0,0,1-1.6-1.8V153.3c0-3.7-1.9-5.8-5.2-5.8s-5.5,2-5.5,5.8v13.5c0,1.2-.5,1.8-1.6,1.8s-1.6-.6-1.6-1.8V153.2c0-4.2-3-6.6-7.1-5.5a5.1,5.1,0,0,0-3.6,5.1v13.9c0,1.2-.5,1.9-1.6,1.9s-1.6-.6-1.6-1.9Z" style="fill:#1b447b"/><path d="M171.9,156.1c0-1.8-.3-3.8.4-5.9,1.4-4.5,5-6.6,9.9-5.9a8.3,8.3,0,0,1,6.8,8.4,80.4,80.4,0,0,1-.1,8.5c-.6,5.1-4.3,7.8-9.4,7.4s-7.6-4-7.6-8.7C171.8,158.7,171.9,157.6,171.9,156.1Zm3.3.3h-.1v3.7a5.1,5.1,0,0,0,5.1,5.3c3.1.1,5.3-1.7,5.5-4.8a40.3,40.3,0,0,0,0-8.5,4.7,4.7,0,0,0-4.9-4.6c-3.2-.1-5.2,1.4-5.6,4.4S175.2,154.9,175.2,156.4Z" style="fill:#1b447b"/><path d="M137.8,156.4V146.1c0-.9.3-1.7,1.3-1.9a1.6,1.6,0,0,1,2,1.3c.1.5.4.1.5,0a9,9,0,0,1,11,1.1,8.5,8.5,0,0,1,2.4,6v14.3a1.6,1.6,0,1,1-3.2,0V153.2c0-4.4-3.3-6.8-7.4-5.5a5.2,5.2,0,0,0-3.3,5.1v13.8c0,1.3-.6,2-1.6,2s-1.7-.7-1.7-1.9Z" style="fill:#1b447b"/><path d="M136.7,156.4v10.3c0,.9-.2,1.7-1.3,1.9s-1.6-.2-1.9-1.3-.4,0-.5,0c-3.2,2.1-8.1,1.8-10.7-.8a8.5,8.5,0,0,1-2.7-6.4c-.1-4.7,0-9.4,0-14.1,0-1.2.6-1.8,1.6-1.8a1.6,1.6,0,0,1,1.6,1.8c0,4.6-.1,9.2,0,13.7s3.4,6.5,7.6,5.3c1.8-.6,3.1-2.7,3.1-5.2V146.1c0-1.2.5-1.9,1.6-1.9s1.6.7,1.6,1.9Z" style="fill:#1b447b"/><path d="M190.2,156.4V146a1.6,1.6,0,0,1,1.3-1.8,1.6,1.6,0,0,1,1.9,1.3c.2.6.4,0,.5,0,3.7-2.4,9.1-1.6,11.6,1.8a8.7,8.7,0,0,1,1.8,5.3,1.6,1.6,0,0,1-1.6,1.9,1.6,1.6,0,0,1-1.6-1.8c-.1-3.4-2.2-5.3-5.6-5.2s-5.1,2.2-5.1,5.4v13.9c0,1.2-.6,1.8-1.6,1.8s-1.6-.6-1.6-1.8Z" style="fill:#1b447b"/><path d="M160.5,155.9V145.6a8.4,8.4,0,0,1,8.5-8.5,1.6,1.6,0,0,1,1.7,1.6,1.5,1.5,0,0,1-1.5,1.7c-3.7.2-5.4,2-5.4,5.6-.1,1.6,0,3.2-.1,4.8s.2.5.6.5,3.1,0,4.7,0,1.8.6,1.7,1.6a1.6,1.6,0,0,1-1.7,1.6h-4.7c-.4,0-.6.1-.6.6.1,3.9.1,7.8.1,11.8a1.5,1.5,0,0,1-1.7,1.7,1.5,1.5,0,0,1-1.6-1.7Z" style="fill:#1b447b"/><path d="M167.7,31.7c-.7-.1-.4-.5-.3-.8a15.8,15.8,0,0,1,2.9-3.9c4-4.2,8.5-7.7,14-9.6a14.3,14.3,0,0,1,7.1-.7c.5.1,1.1.2,1.3.7s-.4,1-.8,1.3c-2.3,1.8-5.1,2.9-7.7,4.3l-12.8,7.1A13.4,13.4,0,0,1,167.7,31.7Z" style="fill:#1b447b"/><path d="M156.1,156.4V146.1c0-1.2.6-1.9,1.6-1.9s1.7.6,1.7,1.8v20.7c0,1.3-.6,1.9-1.7,1.9s-1.6-.7-1.6-1.9Z" style="fill:#1b447b"/><path d="M157.7,140.6a1.6,1.6,0,0,1-1.7-1.7,1.7,1.7,0,0,1,1.7-1.8,1.7,1.7,0,0,1,1.8,1.8A1.6,1.6,0,0,1,157.7,140.6Z" style="fill:#1b447b"/></svg>