<svg xmlns="http://www.w3.org/2000/svg" viewBox="0 0 318.6 173.5"><title>Asset 4</title><path d="M231.6,89.2a428.9,428.9,0,0,1,78.5,3.5c2.9.4,5.3,2.6,8.4,1.7h-.3c-34-3.2-68.1-3.4-102.2-2.1-8.4.3-16.9,1.1-25.3,1.1-4.9,0-7.1,1.8-9,6.4-4.3,10.4-8.1,21.4-18.9,27.4-7.4,4.1-14.6,2.2-17.7-4.9a2.9,2.9,0,0,1-.3-1v-3a24.3,24.3,0,0,0,2,3.5c4.8,6.2,9.7,6.3,16.1,0s10.1-17.1,14.1-26.3c.6-1.4-.7-1-1.3-1L111,100.7c-2,.2-2.3,1.7-2.9,3.1-9.2,20.3-18.3,40.7-31.2,59.1-8.6,12.4-11.4,13.3-24.1,5.7-15.4-9.2-29-20.9-39.7-35.6-8.1-11.1-5.7-17.8,7.5-22.1C42,104,64.2,101.8,86.3,98.8l1.3-.2c15.2,2,16.3-10.8,21-19.9a52.1,52.1,0,0,0,2.4-6.6l-5.2,4.5c-6.4,5.5-13,10.8-20.9,14.1S69.6,94.9,63.1,89s-3.8-12.6-1.9-19.2C64.4,58.6,69.9,48.3,75.3,38a19.5,19.5,0,0,0,.8-2.2,14.1,14.1,0,0,0-2.2.6c-19.1,8.5-38.4,16.4-59.7,17a34.1,34.1,0,0,1-13-2.1L0,50.6l1.4-.2c27.9-2,53.4-10.3,75.2-28.5A110.8,110.8,0,0,0,91.4,6.1C94.2,2.7,99,4,102.6,2.4S107.2.8,109.5,0l-3.6,6.8c-11.4,21.1-23.2,42-31.1,64.8-1.3,3.8-4,8.7-.5,11.6s9.6,1.3,14.1-1.2c13.6-7.4,22-19.9,29.9-32.6A295.4,295.4,0,0,0,139.6,7.9c1.1-2.6,3-3.2,5.3-3.8l8.2-2.3L157.3.2c-.6,1.5-1.1,2.9-1.8,4.4L112.9,93.8a6.6,6.6,0,0,0-.3,1.5l1.5.3c20.6-1.9,41.1-3.9,61.7-5.5,5.2-.4,4.4-4.4,5.7-7.1s3.5-5.8-3.6-7c-5.3-.9-8.5.8-12.6,2.2-1.4.5-3.1,1.1-4.3-.2s-.6-2.9.1-4.2c2.7-5.6,5.5-11.1,8.1-16.6a10.7,10.7,0,0,0,.6-3.1c-1,.4-2.3.5-3.1,1.1-6.3,5.2-9.4,12.4-12.4,19.5-2.1,4.8-6.2,4.1-9.7,4.9-1.3.3-.2-1.2,0-1.7l8.8-16.7a4.4,4.4,0,0,0,.1-2c-.5.3-1.2.5-1.5.9-4.9,6-9.4,12.4-15.5,17.4-2,1.6-4.3,4.2-7.2,2s-1-4.6-.1-6.7c2.7-6.3,5.1-12.7,8.8-18.4,1.4-2.2,5.8-2.6,8.8-3.8a6.8,6.8,0,0,1-.2,1.5l-9.9,20c-.2.5-.2,1.2-.4,1.8a5,5,0,0,0,1.7-1.1c6.4-7.3,11.6-15.8,20-21.3,2.3-1.5,4.7-1.7,5.3,2,.1,1,.5.5.9.3l3.2-1.9c2.8-1.3,5.8-2.8,8.3-.1s.4,5.2-.8,7.6c-2,4-4.3,7.9-6.5,11.8-.7,1.2-1.2,2.5-1.8,3.7s.6.4.7.3c1.7-1.1,4.5-2.2,4.7-3.5,1.4-13.1,11.3-16.5,21.7-19.7a8.7,8.7,0,0,0,3-1.6c3.2-2.4,6.8-3.3,10-1s1.4,5.7.1,8.4c-3,6-8,10.2-13.2,14.1s-4.7,11-7.1,16.4c-.5,1.1,1.3.9,2.1.9ZM60.8,167.1c4.9-1.1,7.3-4.9,9.2-8.7,9.2-17.9,18.2-36,27.2-54a10.6,10.6,0,0,0,.6-1.9H95.7c-13.3,2-26.7,3.9-39.9,6.2s-24.1,4.2-35.2,9.6c-5.9,2.9-7.1,6.6-3.1,12.3A123,123,0,0,0,42,155.5C47.8,160.1,53.3,165.2,60.8,167.1ZM181.9,74c1.3-.2,2.8-.2,3.6-2l7.6-16.3a7.6,7.6,0,0,1,.4-1.1c-.4.2-.9.2-1.2.4a32.8,32.8,0,0,0-13.2,15.1C178.1,72.4,179.1,73.9,181.9,74Zm24.4-20.9a6.7,6.7,0,0,0-1.7-2.4c-.7-.4-1.9.2-2.9.4s.1.5.2.6l2,1.2a23,23,0,0,0-2.6.3c-.7.2-1.8.5-2.1,1.1-2.2,4.6-4.3,9.3-6.4,14-.1.3-.8,1.5.5,1.1C197.7,68.4,206.3,58,206.3,53.1Z" style="fill:#c27510"/><path d="M216.1,109.5l-1.2-.7c.5-.3,1-.9,1.5-.9,2.1,0,3.5-.9,3.7-3,.5-4,3.6-4.7,6.8-5.2,1.6-.3.3.8.5,1.1s-6.8,5,1,5.4c.2,0,.5.8.5.8a3.5,3.5,0,0,1-1.3.8c-3.1.8-10.5,12.1-10,15.3,0,.2.6.7.6.6s3-1.7,3.5-2.9c3.1-8.4,9.4-12.1,17.9-12.9.3-.1.7.1.9-.1a6.9,6.9,0,0,1,5.1-1.9c-.9,1.8-1.7,3.7-2.6,5.5s-2.9,6.1-4.4,9.1a19.8,19.8,0,0,0-.6,2.6,15.6,15.6,0,0,0,2-1.6c3.7-3.8,6.1-8.5,8.4-13.2a3.3,3.3,0,0,1,1.6-1.7,31.8,31.8,0,0,1,4.3-.6l-1.8,3.6c-1.8,3.5-3.6,7-5.3,10.6a8.5,8.5,0,0,0-.3,2.3,7.6,7.6,0,0,0,2.1-.8c4.7-3.7,7.3-9,9.9-14.1,1.5-2.9,4.3-1.9,6.4-2.6a31.7,31.7,0,0,1-1.4,4c-5.5,10.7-11,21.5-16.8,32-1.8,3.4-4.9,5.6-9.2,4.8s-4.4-2.5-5-5.2a5.5,5.5,0,0,1,.1-1.8,14.7,14.7,0,0,0,1,1.3c2.1,4,5,4.7,7.5.8,3.6-5.7,6.6-11.9,9.8-17.8.1-.2,0-.6,0-.9l-1.3.6c-2.7,1.5-5.6,4.4-7.3-1.1l-1.5,1.1c-2.3,1.7-4.8,6.1-6.6-.4-.4.1-1,.1-1.3.4-3.6,3.1-7.1,6.5-11.7,1.4-.3-.2-1.8.7-2.7,1.2s-4.1,1.5-5.9-.1-.6-3.3.1-4.9c1.5-3.1,2.9-6.3,4.5-9.5C218.2,109.7,218.2,109.1,216.1,109.5Zm11.2,11.9c.1,2.3,1.2,2.4,2.5,1.6a27.8,27.8,0,0,0,8.2-9.2c.6-1,.5-2.6-1-2.1C232.1,113.3,228.5,116.5,227.3,121.4Zm24.5.3h0Z" style="fill:#969696"/><path d="M206.1,107.3a10.1,10.1,0,0,1,7.5,3.5,3.1,3.1,0,0,1-.4,4.4,2.5,2.5,0,0,1-3.6.1c-1.4-1.2-1.2-2.4.3-3.5a1.4,1.4,0,0,0,0-.9,3.2,3.2,0,0,0-1.5-.6,2.8,2.8,0,0,0-2.7,2.1c-.6,2.3.7,3.6,2.5,4.9s3.8,3.5,2.5,6.3-4.2,2.8-6.8,2.1-4.4-2.4-4.2-5.4c0-.5.5-1,.8-1.6s1,1,1.1,1.5.7,3,2.4,3a3,3,0,0,0,2.2-1.6c.7-1.6-.3-2.8-1.6-3.7s-5.2-3.4-4-7.2S203.7,107.4,206.1,107.3Z" style="fill:#969696"/><path d="M145.6,46.8c-1.6-.1-3.3-.4-2.8-1.9,1.2-3.7,4.7-4.7,8.2-5.5a1.3,1.3,0,0,1,1.8,1.6C152,45,148.8,46.2,145.6,46.8Z" style="fill:#c27510"/></svg>