<svg xmlns="http://www.w3.org/2000/svg" viewBox="0 0 248.2 233.2"><title>Asset 9</title><path d="M130.1,66.6c-2.5,15.2-11,24.9-26.8,28.5,5.5,1.3,10.2,3.1,14.4,6.3a30.1,30.1,0,0,1,9.5,12,30.9,30.9,0,0,1,2.7,15.6c-1.8,15.6-13.4,27.1-28.7,28.5s-28-8-33.7-25.7c-.7,2-1.1,3.7-1.8,5.3-4.9,12.2-14,19.4-27.1,20.3s-23.2-4.5-29.5-15.8-5.6-23.2,2.1-33.9C21.9,92.7,22,70.9,11,55.9a31.4,31.4,0,0,1,3.6-41,31.8,31.8,0,0,1,42-1.2c12,10.4,14.9,28.3,5.7,41.1S51.6,83.6,56.5,99.4a21.1,21.1,0,0,0,4.1,7.3c3.6,3.9,5.2,8.7,6.9,14.3,3.5-14,11.9-22.3,26-25.8C81.1,91.8,72.6,85.1,68.8,73.3a31.3,31.3,0,1,1,60.3-16.4c.3,1.4.1,3.1,1.7,3.9C129.6,62.6,130,64.6,130.1,66.6Z" transform="translate(-4.8 -1.7)" style="fill:#106c6e"/><path d="M130.1,66.6c-.1-2-.5-4,.7-5.8,2.2-23.4,32-40.1,56.3-16.7-2-10.3-2.2-19.7,3.5-28.2S204,2.4,214.1,1.7c16.8-1,29.8,8.7,33.4,24.5s-4.8,29.7-25,38c13.8,3.3,22.6,11.7,25.3,25.6a30.2,30.2,0,0,1-14.6,32c-14.9,8.5-28.4,5.3-41.4-7.1,2.2,10.8,2.3,20.2-3.5,28.7s-13.8,13.3-24.1,14.1a31.3,31.3,0,0,1-32.8-24.8c-3.7-16.3,5.2-30,24.6-37.6-2.4-.9-4.6-1.6-6.7-2.5a30.8,30.8,0,0,1-17.6-21C131.2,69.9,131.8,67.8,130.1,66.6Zm62-14c-.1-.4-.2-.8-.7-.6l.4.9a52.7,52.7,0,0,1,.6,21.7c5.3-4.9,11.1-8.7,18.3-10.7C203,62.2,197.4,57.6,192.1,52.6Zm-5.1,31c-5.6,5.5-11.7,10-19.6,11.6,7.8,1.5,13.9,5.7,19.6,11-2.2-7.7-1.1-15.1.1-22.5l.6-.2-.3-.5Z" transform="translate(-4.8 -1.7)" style="fill:#ee6b27"/><path d="M17.1,209.7c4.7-5.1,8.9-8.7,11.9-13.2,4.2-6.3,9.8-6.4,16.9-5.5-4.4,4.6-8.4,9.2-12.9,13.2-2.5,2.4-2.3,4-.6,6.7,4.9,7.2,9.6,14.7,14.4,22.2-7,1.7-12.4,1-15.1-6.4a23.6,23.6,0,0,0-4.2-6.7c-1.3-1.7-1.7-5.8-4-4.6s-6.7,3.4-6.4,8.1c.1,1.6,0,3.3,0,5,0,5-1.9,6.4-6.9,5.2-2-.5-1.7-1.8-1.7-3,0-12.3.1-24.7-.1-37,0-4.1,2.6-2.9,4.7-3s4.3-.4,4.1,3.1S17.1,203.3,17.1,209.7Z" transform="translate(-4.8 -1.7)" style="fill:#106c6e"/><path d="M157.8,234.6c-8.7,0-14.2-3-16.5-9.4-.5-1.3-2.6-3.8.3-4.4s5.5-3.3,7.6,1.1,7.9,7.3,13.3,4.9c2.1-.9,3.6-2.3,3.7-4.8s-1.5-3.9-3.7-4.6c-3.8-1.2-7.7-2.2-11.4-3.6-6.9-2.6-10-7.3-9.2-13.6s5.5-9.6,12.4-10.5c8.5-1,15.7,1.8,18.2,7.3.7,1.7,2.5,4.6.5,5.2s-6,2.3-8.3-1.4-6.7-5.3-11.2-3.6c-1.6.6-3.1,1.4-3.3,3.3s1.3,3.4,3.1,4c4.2,1.5,8.6,2.6,12.8,4.1,7.1,2.7,10.5,9,8.6,15.9S167.1,234.7,157.8,234.6Z" transform="translate(-4.8 -1.7)" style="fill:#ee6b27"/><path d="M81.4,218.2c-.2,9.7-6.9,16.6-16.2,16.5S49.5,228,49.5,217.9s6.8-16.4,16.3-16.3S81.5,208.8,81.4,218.2ZM73,218a9.9,9.9,0,0,0-1.1-6c-1.7-3.3-4.4-5-8.2-4.1s-6,4.9-5.9,10.9c.1,4.4,1.4,8.4,6.2,9.6s6.4-1,8-4.3A12.1,12.1,0,0,0,73,218Z" transform="translate(-4.8 -1.7)" style="fill:#106c6e"/><path d="M117.4,218.3c-.2,9.8-7,16.6-16.3,16.4s-15.7-6.8-15.6-17,6.9-16.3,16.5-16.1S117.5,208.9,117.4,218.3Zm-8.4,0a10.4,10.4,0,0,0-1.3-6.7c-1.8-3-4.4-4.6-7.9-3.7s-6.2,5.2-6,11.3c.2,4.3,1.6,8,6.1,9.2s6.4-.9,8.1-4.3A11.5,11.5,0,0,0,109,218.3Z" transform="translate(-4.8 -1.7)" style="fill:#106c6e"/><path d="M212.3,218.2c-.1,9.8-6.7,16.6-16.1,16.4s-15.8-6.7-15.7-16.7,6.8-16.4,16.3-16.2S212.4,208.6,212.3,218.2Zm-8.3.2a11.4,11.4,0,0,0-1.2-6.8c-1.8-3-4.4-4.6-8-3.7s-6.2,5.1-6,11.3c.2,4.3,1.5,8,6.1,9.2s6.4-.9,8.1-4.2A10.5,10.5,0,0,0,204,218.4Z" transform="translate(-4.8 -1.7)" style="fill:#ee6b27"/><path d="M219.2,220.9c0-2.9-.1-5.7,0-8.5s.2-4.1-2.9-3.8-1.7-1.7-1.7-2.9-.5-3.1,1.6-3,2.9-1,3-3.2c.7-8.2,5.7-11.6,13.7-9.5,1.5.4,2.9.6,2.4,2.8s-.5,3.3-3,2.9-4.4.5-4.6,3.7,1.5,3.4,3.9,3.3,2.1,1.5,2.2,3-.2,3.2-2.4,2.9c-3.8-.6-3.8,1.8-3.7,4.5.1,5.3-.1,10.7.1,16,.1,3.1-.4,4.7-4.2,4.7s-4.8-1.6-4.5-5A69.4,69.4,0,0,0,219.2,220.9Z" transform="translate(-4.8 -1.7)" style="fill:#ee6b27"/><path d="M247,191c0,3.6.1,5.6,0,7.6s0,4.6,3.5,4.1,2.2,1.5,2.2,3-.1,3.2-2.3,2.9c-3.7-.5-3.5,1.8-3.4,4.3.1,4,0,8,0,11.9,0,2.3.5,4.2,3.3,3.8s2.5.7,2.7,2.4-.4,2.7-2.2,3.3c-6.7,2.1-11.7-1.2-11.9-8.1-.2-3.9,0-7.7-.3-11.5s1.7-5.7-3-6.5c-1.2-.2-1.3-4.9,0-5.1,3.7-.6,2.7-2.9,3.2-5C239.7,194.3,243.9,194.4,247,191Z" transform="translate(-4.8 -1.7)" style="fill:#ee6b27"/><path d="M124.2,211.8c0-6,.2-12-.1-18-.1-3.5,1.9-3.3,4.1-3.2s4.4-.8,4.3,2.9c-.1,12.4-.1,24.7.1,37,0,4-2.5,3-4.7,3.2s-3.9-.3-3.8-3.4C124.3,224.1,124.2,217.9,124.2,211.8Z" transform="translate(-4.8 -1.7)" style="fill:#106c6e"/></svg>