<svg xmlns="http://www.w3.org/2000/svg" viewBox="0 0 318.6 173.4"><title>Asset 4</title><path d="M231.6,89.2a442.8,442.8,0,0,1,47.5.4c7.6.5,15.3,1.2,22.9,2.1a53.8,53.8,0,0,1,9.8,1.4c.8.2,6.4,1,6.8,1.3-3.1,1.1-9.5-.7-12.8-.9l-15.2-1c-10.1-.5-20.2-.7-30.4-.8-19.4-.2-38.7.4-58.1,1.4-6,.4-14.8-1.5-18.9,3.9s-5.4,13.2-9,19.1-9.9,12.4-17.3,13.2-12.2-4.3-12.1-11.1c-.9,1.2,4.1,6.2,4.8,6.7a8,8,0,0,0,6.1,1.5c6.7-1.2,11.8-9.5,14.5-15,1-1.8,7.9-15.4,6.8-16.7s-8.3.6-9.4.7l-13.5,1.3L129.9,99l-13.5,1.2c-4.1.4-6,.3-8.3,3.6-4.1,6-6.5,14.4-9.7,21s-7.5,15.4-11.8,22.8-12.5,26.5-23,25.8c-5.2-.4-10.6-4.6-14.8-7.2a148.1,148.1,0,0,1-18.5-14.1c-7.1-6.5-23.2-19.9-21.8-30.9s24.3-13.9,32.9-15.7,19.3-3.3,29-4.6c7.5-1,15.4-1,22.7-2.2,11-1.8,14.7-17.7,17.9-26.6C100.3,81.3,76.6,104,62.4,88.3c-5.9-6.5-2.2-16,.3-23.2,3.6-10.2,9.9-19.2,13.4-29.3C63,39.3,51,46.5,37.7,49.9c-11,2.9-27.1,6.7-37.7.7,21.1-3.2,40.7-6,59.6-16.9A104.3,104.3,0,0,0,85.2,13.5C88.4,9.9,91,5,95.8,3.7s9.1-2.1,13.7-3.7C100.1,17.8,90,35.3,81.9,53.7c-2,4.7-4,9.5-5.8,14.3-1.1,3.1-3.5,7.3-3.5,10.6-.1,11.1,14.8,4.3,19.5,1.2,14.1-9.3,23.4-25,31.5-39.3a288.2,288.2,0,0,0,13.9-27.8c2-4.5,2.8-7,7.4-8.6s8.3-2.4,12.4-3.9c-6.6,16.2-14.9,31.9-22.5,47.7-3.7,7.9-7.5,15.7-11.2,23.6s-9.2,15.8-11,23.8c6.1,1.2,14-.9,20.3-1.4l21.4-2c6.7-.6,15,.1,21.5-1.8,4.2-1.1,4.1-2.8,5.5-6.6s2.9-4.4.1-6.6-10.5-.5-14.4.7c-6.4,2-7.6-.4-4.8-6.2s6.5-11.2,7.6-17.3c-6.9,2.4-10.5,9.5-13.4,15.8-1.4,2.9-2.1,6.3-5,8.1-.5.3-7.4,2.2-7.4,1.4-.3-2.4,3.9-7.8,5-9.9s4.3-6.6,4.5-10.3c-3,1.7-21.6,28.7-25.4,18.7-1.6-3.9,4.5-13.3,6.2-16.8s2.6-6.3,5.3-8,4.9-1.6,7.2-2.5c-1,8.3-8.8,15.2-10.5,23.3,6-3.7,9.8-11.6,14.8-16.6,1.9-2,4.8-5.4,7.6-6.2,1.1-.2,2-.9,3.1-.3s1.4,3.3,1.9,3.3c3.5-.5,12.5-8.6,13,.6.2,3-3,7-4.3,9.5s-4,7-5.8,10.7c5.3,1.8,6.1-7.9,7.5-10.6,2.4-4.6,6.6-7.4,11.2-9.4,2.5-1.1,5.1-1.7,7.5-2.6s5.1-3.3,7.9-4c9.4-2.1,7.7,7.3,4.4,12.4S195.5,69,191.6,74c-1.5,1.9-6.1,12.4-5,14.7s17,.5,19.5.5ZM60.8,167.1c5.6-1.3,8.1-6.5,10.5-11.1L80,138.8c5.9-11.7,13.7-23.8,17.8-36.3-6.8-.2-14.1,1.8-20.8,2.8l-21.2,3.4c-11.6,2.1-28.3,3.4-37.7,11.1C5.1,130.5,50.5,164.5,60.8,167.1ZM181.9,74c5.7-1.1,9.7-14.3,11.6-19.4C189.6,55.9,172.5,73.7,181.9,74Zm24.4-20.9c-1.6-2.4-1.8-2.5-4.6-2a2.4,2.4,0,0,0,2.2,1.8c-4.4.5-5,2.1-6.9,6.1-.7,1.5-5.4,8.9-4.5,10.4C194.6,72.5,206.3,56.2,206.3,53.1Z" style="fill:#c27510"/><path d="M216.1,109.5l-1.2-.7c3-1.8,3.6-1.4,5.4-4.7.3-.6,6.1-7.3,7.4-4.3s-2,2.8-2.2,4.1c-.6,3.3,2.7.7,3.2,2.7.1.3-4.2,3.7-4.7,4.3a26.7,26.7,0,0,0-5.3,8.3c-.5,1-2,3.7-.5,4.5s6.5-8.6,7.2-9.4a20.3,20.3,0,0,1,8.7-5.4c1.8-.5,3.7-.5,5.5-1s3.6-2,6-2c-2.6,5.6-6.2,11.2-7.6,17.2a31.3,31.3,0,0,0,8.3-10.8c2.5-4.7,2.6-5.6,8-6.3-2.5,5.1-6.8,10.8-7.4,16.5,4.6-1.6,7.2-6.1,9.5-10.1,1-1.9,1.8-4.8,3.6-6.1s3.6-.7,5.3-1.3c-3.8,10.9-10.3,21.3-15.7,31.5-2.2,4.1-4.3,9.2-9.6,9.5a6.4,6.4,0,0,1-7-7.2c3.9,5.2,6,5.9,9.8-.1,2.4-3.8,8.6-12,8.5-16.5-3.3,1.6-6.9,4.9-8.6-.5-1.1.8-2.8,3-4.2,3.4s-1.3.3-3.2-.8.5-1.9-2-1.5c-.7.1-2,1.8-2.7,2.2-2.4,1.6-3.8,2.1-6.6,1.1-1.3-.4-1.7-1.7-3-1.7s-2.1,1.2-3.1,1.4c-2.8.7-5.4.4-5.6-2.9S220.4,108.6,216.1,109.5Zm11.2,11.9c.3,5.7,12.2-6,11.1-8.7C236.4,107.9,227.9,119.1,227.3,121.4Zm24.5.3h0Z" style="fill:#969696"/><path d="M206.1,107.3c2.5.1,6.1,1.1,7.5,3.5s-.9,7.3-4,4.5,1.1-2.7.3-4.2-4.1.6-4.2,2.1c-.4,3.9,10.7,8.9,2.7,12.6-4.4,2-10.5-2.4-7.9-7.1,1,1.3,1.3,3.8,2.9,4.3,3.5,1,2.9-3,1.8-4.6s-4.5-2.5-4.8-5.7S203.1,107.4,206.1,107.3Z" style="fill:#969696"/><path d="M145.6,46.8c-6.6-.3,1-7.2,4.5-7.2C156.9,39.7,148.9,46.2,145.6,46.8Z" style="fill:#c27510"/></svg>