<svg xmlns="http://www.w3.org/2000/svg" viewBox="0 0 363.3 396.3"><title>Asset 11</title><path d="M186.3,376.3s-5.5,9-1.1,15.9l22.2.4s-4.9-6.8-8.6-6.5l2.8-1.8L196.4,373Z" style="fill:#89bddf;stroke:#89bddf;stroke-linecap:round;stroke-linejoin:round"/><path d="M88.2,197.2s6.8,15.3,7.1,28l.3,12.8,5-2.9,5-19.9S105.3,208.2,88.2,197.2Z" style="fill:#d83939;stroke:#d83939;stroke-linecap:round;stroke-linejoin:round"/><path d="M157.3,324.9l49.2,68.7H240l-46.4-91.4S157,315.2,157.3,324.9Z" style="fill:#2d3f50;stroke:#2d3f50;stroke-linecap:round;stroke-linejoin:round"/><path d="M32.8,140l8.6-4.9a4.9,4.9,0,0,0,.9-2.7c-.1-1.2-8.6-13.6-27.1-4.9S-1.4,153,4.9,160.4s15.4,7.9,26,2.5,12.7-2.1,13.4-.6.6,5.2-5.3,8.8-10.7,1.9-11.7.9-8,3.1-11.2,5.7,4.7,10.3,14.6,10.4,25.1-8.3,28.9-21.3-8.2-22.1-17-21c-12.8,1.5-23.5,11.5-27,4s9.5-13.7,15-9.6A1.5,1.5,0,0,0,32.8,140Z" style="fill:#e85647;stroke:#e85647;stroke-linecap:round;stroke-linejoin:round"/><path d="M27.6,140.5a6.4,6.4,0,0,0-7.1,1c-3.6,3-4.8,4.3-2.4,7.7a8.8,8.8,0,0,0,2.4.1c.4-.2,2.4-4.5,2.8-4.7l3.5-2.1C27.2,142.4,27.6,140.5,27.6,140.5Z" style="fill:#2c3e50;stroke:#2c3e50;stroke-linecap:round;stroke-linejoin:round"/><path d="M38.9,124.9a39.2,39.2,0,0,0,3.9,5c1.7,1.7,2,4,.9,5s-6.7,3.8-6.7,3.8l-1.3,2.2,1.8,1.9a6.2,6.2,0,0,0,2.7-.3c1.4-.5,8.2-4.6,9.2-6.6s-1.4-5.9-3.1-7.4S41.5,124.6,38.9,124.9Z" style="fill:#2c3e50;stroke:#2c3e50;stroke-linecap:round;stroke-linejoin:round"/><path d="M60.9,149.8a23.2,23.2,0,0,1,5.5,10c1.7,6.2-1.5,14.3-6.4,19.7s-12.1,11.1-24.9,9.7a41.1,41.1,0,0,1,6.3-2.6c2.6-.7,11.8-5,16.7-12.4s6.1-18.5-4.2-27.8a5,5,0,0,1,5.1,1.8Z" style="fill:#2c3e50;stroke:#2c3e50;stroke-linecap:round;stroke-linejoin:round"/><path d="M18.8,169.1s3.2-2,5.4-1.8c0,0,9.3-4.3,11-4.5s1.7-2.1,1.7-2.1,2.6-.7,2.9-.3a3.4,3.4,0,0,0,2.6,2,8.9,8.9,0,0,1-5,4.4C33.9,167.9,25.7,171.2,18.8,169.1Z" style="fill:#2c3e50;stroke:#2c3e50;stroke-linecap:round;stroke-linejoin:round"/><path d="M74.6,169.2s-1.4-1.4,3.7-4.5,6.8-3,6.3-7,.8-5.9,3.4-7.5,13.5-7.9,14.7-7.9,3.6,1.5,3.2,2.3a19.5,19.5,0,0,1-6.1,4.3c-1.9.7-10.4,4.9-10.2,8.3s.8,6.5-2.8,8.6a78.3,78.3,0,0,1-10.3,5.3C76,171,74.6,169.2,74.6,169.2Z" style="fill:#2c3e50;stroke:#2c3e50;stroke-linecap:round;stroke-linejoin:round"/><path d="M91,104.1S82.4,97.9,80.4,97a4.1,4.1,0,0,0-3.8.6,25.2,25.2,0,0,1,1.4,3.2c.1.3,46.7,33.2,47.5,34.3s0,3.3-.9,3.3-9.3,5-9.6,6.4,1,2.3,3,2.3,7-3.3,9.1-4.6,3.2-2.1,3.9-5.3-1.9-5.3-4-7.3-33.4-23.7-33.8-23.8Z" style="fill:#2c3e50;stroke:#2c3e50;stroke-linecap:round;stroke-linejoin:round"/><path d="M235.6.9S93.7,81.4,93.2,83.3s3.1,10.2,5.5,11.8,9-5.4,12-5.1,3.7,3.4,12,17.5,11.6,21.3,13.5,21.5,10.5-3.3,11.8-7.4S125.6,84.2,126.7,81,264.7.5,264.7.5Z" style="fill:#e85647;stroke:#e85647;stroke-linecap:round;stroke-linejoin:round"/><path d="M149.6,123.9s-6.8,3.6-7.1,5.5,1.5,2.3,3.8,1.9,9.6-4.5,10.3-6.1-.3-5-2.5-7.6-19-33.2-19-33.2-.9-2.1.8-2.7S276.5.5,276.5.5L265.8.8l-135,78.3s-2.8,1.9-1.7,4.8,21.4,35.6,21.5,37.2S150.4,123.5,149.6,123.9Z" style="fill:#2c3e50;stroke:#2c3e50;stroke-linecap:round;stroke-linejoin:round"/><path d="M148,146.6s-1.5-1.8-.6-3.6,11-8,11.8-7.9,2.9-.9,4.8,2.4,35.9,62.8,40.4,65.6,7.9,1.6,10,.4,4.7-3.2,4.6-7.5-7.9-19.8-13.9-28.6-25.8-44.2-27.2-51.3-4-17.9,6.3-27.9,29.1-13.9,32-11.7a6.3,6.3,0,0,1,2.7,6.5c-.3,1.5.3,7.9-2.7,8.7s-11.8,1.2-17.5,6.7-3,13.4-1.2,17.7S236.4,182,237,192.9s-1.6,17.6-15.3,26-26.1,2.1-29.9-1.9S179.3,200.5,148,146.6Z" style="fill:#2c3e50;stroke:#2c3e50;stroke-linecap:round;stroke-linejoin:round"/><path d="M305.4,137.6s.5,1.4,3.3-.4,7-3.8,7.5-5.8-1.4-5.3-3.1-8.4-26-48.9-29.3-52.2-2.2-5.5-7.3-3.4S265.8,73,265.8,74s1.2,3.5,2.1,4.5S300.5,137,305.4,137.6Z" style="fill:#2c3e50;stroke:#2c3e50;stroke-linecap:round;stroke-linejoin:round"/><path d="M316.2,140.4s4.8-2,8-.1,6.5,6.4,6.2,9.8-1.8,7.2-5.2,8.7-8.3,1.8-9.7.7-7.2-5-5.6-11.8S316.2,140.4,316.2,140.4Z" style="fill:#2c3e50;stroke:#2c3e50;stroke-linecap:round;stroke-linejoin:round"/><path d="M111.3,166.7a66.6,66.6,0,0,1-3.1,35.6c-7.2,19.3-19.1,42.1-.3,48.9s43.4-8,43.4-8l-2.1-4.9s1.4-1.8,2.6-1.7,16.7-34.9-7.2-36.2C144.6,200.4,149.6,187,111.3,166.7Z" style="fill:#e54c3c"/><path d="M118.9,186.2s.6-3.4,2.1-2.7,3.9,4.5,7.9,12,9.2,18.6,5,27.6-7.8,10.9-14.2,10.3-7.6-5.1-7.4-10.8C112.8,207.8,114.8,219.1,118.9,186.2Z" style="fill:#f16761;stroke:#f16761;stroke-linecap:round;stroke-linejoin:round"/><path d="M130.5,273.1l-9.7-18.3s12.1-16.8,30.5-16.7l11.6,17.5Z" style="fill:#2c3e50"/><path d="M103.9,295.7s-16.1-11.8,36.9-41.1,54-12.9,53.9-8.1" style="fill:none;stroke:#4b7564;stroke-miterlimit:10;stroke-width:3px"/><path d="M113.7,307.3a13.2,13.2,0,0,0-11.2-3.8s6.9-4-1-7.7c0,0,12.9-2.4,4.7-8.6,0,0,12.2.9,11.9-10.9,0,0,13.1-.6,16-11.2,0,0,15,1.4,19.8-11.2,0,0,13.6,1.5,17.5-9.1,0,0,12.6,6.1,16-3.3,0,0,6.4,7.5,10.6.5,0,0-1.4,8.8,4.4,14.3C202.4,256.3,134,279.9,113.7,307.3Z" style="fill:#435e75;stroke:#435e75;stroke-linecap:round;stroke-linejoin:round"/><path d="M213.2,263.3s-2.7-5.2-3.3-5.5-10.2-10.6-55.9,14.9-42.6,39-42.9,41.2a22.3,22.3,0,0,0,3.6,6.1Z" style="fill:#92bfdd;stroke:#92bfdd;stroke-linecap:round;stroke-linejoin:round"/><path d="M119.9,322.7s-7.4,1.6-5.5-7.2,16.2-24.1,46.1-39.6,45.2-17.7,52.7-12.6c2.5,2-.8,6.1-.8,6.1Z" style="fill:#364d60;stroke:#364d60;stroke-linecap:round;stroke-linejoin:round"/><path d="M121.6,325.1s-2.9-4.3-2.9-5.2-3.9-15,40.3-39.2c39.1-21.4,49.7-14.9,51.6-14.1s3.8,6.3,3.8,6.3Z" style="fill:#6c97bc;stroke:#6c97bc;stroke-linecap:round;stroke-linejoin:round"/><path d="M142.2,323.7s-12.5,5.3-18.1,4.1-5.7-18.4,36.7-41.4,50.4-16.6,53.6-13.5-7.5,12.3-20.5,22.8Z" style="fill:#495968;stroke:#495968;stroke-linecap:round;stroke-linejoin:round"/><path d="M158.8,326.5s-3.1,3.2-6.1,2.4-9.3-6.5-.7-16,29.2-24.2,43.8-18.8c2.8,1.3,4.6,5.5-1.4,8.9s-16,6.7-19.5,9.2S164.7,318.2,158.8,326.5Z" style="fill:#32607c;stroke:#32607c;stroke-linecap:round;stroke-linejoin:round"/><path d="M214.2,343.2s-25.8-12.2-20.8-22.3c0,0,2.7-4.4,8.9.2,0,0,9.7.2,17.2,5.6s15,10.9,24.4,27.5c4.5,6.2,8.6,13.9,9.7,21.8s6.1,19.1,6.1,19.1l-23.8-7.7s-8.7-12.6-5.9-17.1a51.8,51.8,0,0,0-4.6-5.6A225.8,225.8,0,0,0,214.2,343.2Z" style="fill:#89bddf;stroke:#89bddf;stroke-linecap:round;stroke-linejoin:round"/><path d="M122.7,135.3c-.9-1.6-43.6-31.1-47-33.9s-5.9-4.2-9-3.5a4.6,4.6,0,0,0-3.3,4.1l5.7,63.4,1.5,1.7c1.9,1.3,10.1-4.8,11.6-6.4s.5-5.4,1.2-8,8.4-6,11-7.6,7.9-4.9,10.3-4.5,3.2,2.2,5.9,3.1,10-4.3,10.9-5.1S123.6,136.9,122.7,135.3Zm-36.2-1.5c-3.5,2-4.2,2.3-5.2,1.8s-2.4-9.1-1.6-13.1a1.9,1.9,0,0,1,2.2.1c1.3.8,8.4,5.5,8.3,7.1S90,131.9,86.5,133.8Z" style="fill:#e85647;stroke:#e85647;stroke-linecap:round;stroke-linejoin:round"/><path d="M105.5,94.4a3.6,3.6,0,0,1,2-2.1c1.5-.6,2-1.4,4-.9l1.2,2.1s-1.3,2.6-1.7,2.6-2.3,1.7-3.1,1.5-2.4.4-2.6-1.3S104.2,94.8,105.5,94.4Z" style="fill:#2c3e50;stroke:#2c3e50;stroke-linecap:round;stroke-linejoin:round"/><path d="M260.9,163.3c-5.2-9.5,6.5-2,17.2-23.1s-10.5-45.3-21.9-49.8-15.6-.3-26.5,4.3-21.1,12.8-21.1,12.8c-.6,4,153.8,269,153.8,269l.4-37.9C358.6,329.7,266,172.8,260.9,163.3Zm-10.3-20.1c-1.7-.7-15-23.4-16.1-26.1s-2.4-5.9.7-7.3c0,0,5.7-3.3,8.4-3.1s9.1-.1,13.5,7.3,7.9,14.2,5,20.5S252.3,143.9,250.6,143.2Z" style="fill:#2c3e50;stroke:#2c3e50;stroke-linecap:round;stroke-linejoin:round"/><path d="M172.9,338s-4.4-4.8-18.6-8.1c0,0-.3-9.2-7.6-10.6s-7,2.1-5.5,4.2,4.6,11.3,8.3,15.3S169,349.4,169,349.4Z" style="fill:#6ab6e1;stroke:#6ab6e1;stroke-linecap:round;stroke-linejoin:round"/><path d="M189,330.6s-7-1.3-12.4,3.1-14.7,8.8-15.7,15a6,6,0,0,0,8.3,7c3.5-1.6,4.2-5.4,9.7-8.6s9.9-3.8,13.4-9S194.5,328.4,189,330.6Z" style="fill:#89bddf;stroke:#89bddf;stroke-linecap:round;stroke-linejoin:round"/><path d="M207.3,345.2a13.7,13.7,0,0,0-10.5-.5c-5.7,2.2-20.6,7.1-22.9,10.9s-3.5,6.3.8,9.5,9.7-1.9,9.8-2.2,10.5-6.6,13.3-6.7,11.4-1.8,14.1-5.8S212.4,343.3,207.3,345.2Z" style="fill:#89bddf;stroke:#89bddf;stroke-linecap:round;stroke-linejoin:round"/><path d="M216.1,358.6h-5.2c-.7-.2-1.7-.8-10.8,2.1s-17.7,2.9-20.1,9.9a31.9,31.9,0,0,0-1.1,8.3s10.1-2.4,12.7-2.8,10.9-1.4,16.6-5.5,9.6-6.4,9.5-9.4S216.6,358.6,216.1,358.6Z" style="fill:#89bddf;stroke:#89bddf;stroke-linecap:round;stroke-linejoin:round"/><path d="M230,370.3s-1.9-2.6-4.7-5.7-4.6-8.8-11.1-21.4" style="fill:#89bddf"/><path d="M256.7,393.1l-7.8-25.5s.8,10.4-6.2,10.6-13.2-5.6-13.2-5.6-.7,2.3,3.9,10.9h.6l5.2,12.3Z" style="fill:#6ab6e1;stroke:#6ab6e1;stroke-linecap:round;stroke-linejoin:round"/></svg>