<svg xmlns="http://www.w3.org/2000/svg" viewBox="0 0 618.6 432.6"><title>Asset 8</title><path d="M181.7,340.6l1.2-8A528.8,528.8,0,0,1,193,279.5q7.6-31.7,15.1-63.5c5.6-23.4,11.1-46.8,16.7-70.2.5-2.4,1.2-4.7,1.6-7s1.1-2.2,2.8-2.2h127c1.8,0,2.4.5,2.4,2.4q-.2,145.6,0,291.2c0,1.6-.3,2.3-2.2,2.3H272.6c-1.9,0-2.4-.4-2.4-2.3q0-84.7.1-169.4c.1-17.2,1.1-34.3,1.9-51.4a2.8,2.8,0,0,1,.1-.9c0-.7.2-1.4-.8-1.6s-1.2.5-1.4,1.4c-1.7,8.7-3.5,17.4-5.2,26.2-2.4,12.2-5.6,24.3-8.5,36.4q-9.3,38.3-18.7,76.4-8.5,35.4-17.3,70.6c-1.1,4.3-2.2,8.7-3.2,13.1-.2,1.2-.7,1.5-1.9,1.5H134.6c-1.3,0-1.9-.3-2.2-1.7q-7.5-29.4-15.2-58.6c-4.5-17.5-9.1-34.9-13.6-52.3-5.8-22.7-12-45.4-17.4-68.2-3.3-13.7-5.3-27.6-7.9-41.4a17,17,0,0,1-.4-2.2c-.1-.8-.4-1.2-1.3-1.2s-.8.7-.8,1.3c.1,2.4.1,4.7.2,7,2.4,45.7,2.9,91.5,2.7,137.2-.2,25.9-.1,51.7,0,77.5,0,2.1-.6,2.6-2.6,2.6H2.6c-2,0-2.6-.6-2.6-2.6q.2-85.8.1-171.5Q.1,199,0,139.4c0-2.2.6-2.8,2.8-2.8H130.2c4.3,0,3.3-.6,4.3,3.4,5.9,23,11.7,46.1,17.5,69.1,4.9,19.6,9.9,39.3,14.9,58.9,2.9,11.5,6,23,8.5,34.6a303.8,303.8,0,0,1,5.3,34.4c.1,1.1.3,2.3.5,3.5Z" style="fill:#fefdfd"/><path d="M427.4,284.5V139.2c0-2.1.6-2.6,2.6-2.6H609.3c1.9,0,2.5.4,2.4,2.5v64.4c0,3.8.6,3.4-3.3,3.4H519.2c-2.1,0-2.4.6-2.4,2.5.1,12.4.1,24.9,0,37.3-.1,2.2.5,2.8,2.8,2.8h83.3c3.1,0,3.1,0,3.1,3.2q0,32.1.1,64.2c0,2.2-.5,2.9-2.9,2.9h-84c-2,0-2.4.5-2.4,2.5.1,12.6.1,25.3,0,37.9,0,1.7.3,2.2,2.1,2.2h96.4c3.2,0,3.2,0,3.2,3.3q0,32.3.1,64.5c0,2.1-.7,2.6-2.7,2.5h-186c-2.1,0-2.5-.8-2.5-2.7V284.5Z" style="fill:#fefdfd"/><path d="M368,33.8c7.8,0,15.4,1.2,22.2,5.2a33.3,33.3,0,0,1,16.6,23.7c1.8,9.6,1.3,19-2.6,28.1a32.7,32.7,0,0,1-19.4,18.6,49.7,49.7,0,0,1-35.8,0c-12-4.7-19-13.9-21.4-26.5-1.6-9.1-1.3-18.1,2.3-26.7,5.3-12.8,15.4-19.4,28.7-21.7A58.6,58.6,0,0,1,368,33.8Zm15.9,38.8c-.2-5.3-.6-10.5-3.7-14.9s-9.4-6.3-15.3-5.6-10,3.9-12.2,9.3c-2.8,7-2.6,14.2-.9,21.4a14.4,14.4,0,0,0,4.1,7.4c5.1,4.8,11.3,5,17.6,3.3a11.6,11.6,0,0,0,7.2-6C383.4,82.8,383.6,77.7,383.9,72.6Z" style="fill:#fcfbfa"/><path d="M548.8,72.5c0,11.1-2.8,21.2-10.9,29.2s-17,10.4-27.3,10.8c-8,.3-15.8-.6-23-4.2-10.5-5.2-16.7-13.8-18.8-25.2a48.9,48.9,0,0,1,.7-22.5c2.8-10.4,8.9-18.1,18.7-22.5,13-5.8,26.4-6.2,39.5-.7s19.5,16.1,21,30c.1,1.1.1,2.2.1,3.3A10.8,10.8,0,0,1,548.8,72.5Zm-23.8,0a29.8,29.8,0,0,0-.6-6.7c-.6-3.8-1.9-7.4-4.8-10.2-8.6-7.9-23.3-3.5-26.6,8a36.6,36.6,0,0,0-.6,17.1c2.2,11.3,12.1,16.7,22.9,12.6a12.7,12.7,0,0,0,6.5-5.6C524.5,82.9,524.8,77.7,525,72.5Z" style="fill:#fcfbfa"/><path d="M312.7,47.1c0,2.6,0,5.3-.1,7.9,0,.6.4,1.5-.3,1.9s-1.2-.4-1.7-.8a26.1,26.1,0,0,0-20-3.7C283,54,278,58.7,276,66.3a26.9,26.9,0,0,0,.5,15.9,17.2,17.2,0,0,0,13.6,11.7,27.7,27.7,0,0,0,20.1-3.6c2.4-1.4,2.4-1.4,2.5,1.4,0,4.5-.2,9,0,13.5.1,2.3-.8,3.3-2.8,4.1-8.6,3.3-17.5,3.8-26.5,2.8A35.1,35.1,0,0,1,257,95.9c-5-7.5-6.2-16-5.6-24.7.7-11.5,4.8-21.4,14-28.7s17.6-8.7,27.7-8.7c5.8,0,11.6.3,17.1,2.4,1.9.7,2.7,1.6,2.5,3.7S312.7,44.7,312.7,47.1Z" style="fill:#fcfbfa"/><path d="M449.5,55.4c0,17.5-.1,35.1,0,52.6,0,2.2-.5,2.9-2.8,2.8-6.2-.2-12.3-.1-18.4,0-1.6,0-2.3-.3-2.3-2.1.1-35.5.1-70.9.1-106.4,0-1.8.4-2.3,2.2-2.3h18.9c1.9,0,2.3.6,2.3,2.4C449.4,20.1,449.5,37.8,449.5,55.4Z" style="fill:#fefdfd"/><path d="M590.6,48.2a68.9,68.9,0,0,1,4.6-6.9c5.2-6,11.8-7.4,19.3-6.2.9.1,1.7.4,1.7,1.7-.1,6.7,0,13.4,0,20.4-2.5-.8-4.7-1.8-7.1-2C599.2,54,592.2,59.7,591,70a55.3,55.3,0,0,0-.4,7.1c0,10.5-.1,21,0,31.5,0,1.8-.5,2.2-2.3,2.2H569.2c-1.4,0-2.1-.3-2.1-2q.1-35.7,0-71.3c0-1.5.5-2,1.9-1.9h19.8c1.4-.1,1.8.3,1.8,1.7C590.5,40.9,590.6,44.6,590.6,48.2Z" style="fill:#fcfbfa"/></svg>