<svg xmlns="http://www.w3.org/2000/svg" viewBox="0 0 325.1 227.4"><title>Asset 8</title><path d="M95.5,179l.6-4.2c1.3-9.4,3.1-18.7,5.3-27.9,2.7-11.1,5.3-22.2,8-33.4l8.7-36.9c.3-1.2.7-2.4.9-3.7s.6-1.1,1.5-1.1h66.7c1,0,1.3.3,1.3,1.3-.1,51,0,102,0,153,0,.9-.2,1.3-1.2,1.3h-44c-1,0-1.3-.2-1.3-1.2q0-44.5.1-89c0-9,.5-18.1,1-27.1v-.4c0-.4.1-.8-.4-.8s-.6.2-.7.7c-.9,4.6-1.9,9.1-2.8,13.7-1.2,6.5-2.9,12.8-4.4,19.2l-9.9,40.2c-3,12.3-6,24.7-9.1,37-.5,2.3-1.1,4.6-1.6,6.9-.2.6-.4.9-1,.9H70.8c-.7,0-1-.1-1.2-.9-2.7-10.2-5.3-20.5-8-30.8s-4.8-18.3-7.1-27.5c-3.1-11.9-6.4-23.8-9.2-35.8-1.7-7.2-2.8-14.5-4.1-21.8l-.3-1.1q0-.7-.6-.6c-.5,0-.4.3-.4.7s0,2.4.1,3.6c1.2,24,1.5,48.1,1.4,72.1q-.1,20.4,0,40.8c0,1.1-.3,1.4-1.4,1.4H1.4c-1.1,0-1.4-.3-1.4-1.4V73.3c0-1.2.3-1.5,1.5-1.5H68.4c2.3,0,1.8-.3,2.3,1.8,3.1,12.1,6.1,24.3,9.2,36.4l7.8,30.9c1.5,6.1,3.2,12.1,4.5,18.2s2.1,12,2.8,18.1a11,11,0,0,0,.2,1.8Z" style="fill:#fefdfd"/><path d="M224.7,149.6q0-38.2-.1-76.5c0-1.1.4-1.3,1.4-1.3h94.2c1.1,0,1.3.2,1.3,1.3V107c0,2,.4,1.8-1.7,1.8H272.9c-1.1,0-1.3.4-1.3,1.4.1,6.5.1,13,0,19.6,0,1.1.3,1.5,1.5,1.5h43.8c1.6,0,1.6,0,1.6,1.7,0,11.3,0,22.5.1,33.8,0,1.1-.3,1.5-1.5,1.5H272.9c-1.1,0-1.3.3-1.3,1.3.1,6.7.1,13.3,0,20,0,.9.2,1.1,1.1,1.1h50.7c1.7,0,1.7,0,1.7,1.7V226c0,1.1-.3,1.4-1.4,1.4H226c-1.2,0-1.4-.4-1.4-1.4q.2-38.2.1-76.4Z" style="fill:#fefdfd"/><path d="M193.4,17.8a21.7,21.7,0,0,1,11.7,2.7,17.5,17.5,0,0,1,8.7,12.4,24.9,24.9,0,0,1-1.3,14.8,17.3,17.3,0,0,1-10.2,9.8,25.9,25.9,0,0,1-18.8,0c-6.4-2.5-10.1-7.3-11.3-13.9a24.3,24.3,0,0,1,1.2-14.1c2.8-6.7,8.1-10.1,15.1-11.4A26.9,26.9,0,0,1,193.4,17.8Zm8.4,20.4c-.1-2.8-.3-5.5-1.9-7.9s-5-3.3-8.1-2.9a7.3,7.3,0,0,0-6.4,4.9,17.9,17.9,0,0,0-.5,11.2,7.8,7.8,0,0,0,2.1,3.9c2.8,2.5,6,2.6,9.3,1.7a5.9,5.9,0,0,0,3.8-3.1A16.7,16.7,0,0,0,201.8,38.2Z" style="fill:#fcfbfa"/><path d="M288.5,38.1c0,5.8-1.5,11.1-5.8,15.4s-8.9,5.4-14.3,5.6a24,24,0,0,1-12.1-2.2,17.5,17.5,0,0,1-9.9-13.2,24.8,24.8,0,0,1,.4-11.8A17.1,17.1,0,0,1,256.6,20a26,26,0,0,1,20.8-.4c6.9,2.9,10.2,8.5,11,15.8a10.9,10.9,0,0,1,.1,1.8Zm-12.6,0a13.4,13.4,0,0,0-.3-3.5,9.3,9.3,0,0,0-2.5-5.4c-4.5-4.1-12.2-1.8-14,4.2a21,21,0,0,0-.3,9c1.2,6,6.3,8.8,12.1,6.6a6.9,6.9,0,0,0,3.4-2.9C275.7,43.6,275.8,40.8,275.9,38.1Z" style="fill:#fcfbfa"/><path d="M164.3,24.8v4.1c0,.3.2.8-.1,1s-.7-.2-.9-.4a13.5,13.5,0,0,0-10.5-1.9,9.3,9.3,0,0,0-7.7,7.3,13.8,13.8,0,0,0,.2,8.3,9.1,9.1,0,0,0,7.2,6.2,15.2,15.2,0,0,0,10.6-1.9c1.2-.8,1.2-.8,1.2.7s0,4.7.1,7.1a1.9,1.9,0,0,1-1.5,2.1A27.5,27.5,0,0,1,149,58.9a18.4,18.4,0,0,1-13.9-8.5c-2.6-3.9-3.3-8.4-3-13s2.6-11.2,7.4-15.1,9.3-4.5,14.6-4.5A24.6,24.6,0,0,1,163,19c1,.4,1.5.9,1.4,2S164.3,23.5,164.3,24.8Z" style="fill:#fcfbfa"/><path d="M236.3,29.1c0,9.2-.1,18.4,0,27.6,0,1.2-.3,1.6-1.5,1.5-3.2-.1-6.5,0-9.7,0-.8,0-1.2-.1-1.2-1.1.1-18.6.1-37.3,0-55.9,0-.9.3-1.2,1.2-1.2H235c1.1,0,1.3.3,1.3,1.3C236.2,10.6,236.3,19.8,236.3,29.1Z" style="fill:#fefdfd"/><path d="M310.4,25.3c.9-1.2,1.5-2.5,2.5-3.6,2.7-3.1,6.2-3.9,10.1-3.3.5.1.9.3.9.9-.1,3.6,0,7.1,0,10.7a18.6,18.6,0,0,0-3.7-1c-5.2-.6-8.9,2.4-9.6,7.8-.1,1.2-.2,2.5-.2,3.7V57.1c.1.9-.2,1.2-1.2,1.1h-10c-.8,0-1.1-.1-1.1-1V19.7c0-.8.2-1,1-1h10.4c.7,0,.9.2.9.9Z" style="fill:#fcfbfa"/></svg>