<svg xmlns="http://www.w3.org/2000/svg" viewBox="0 0 436.3 219.3"><title>Asset 3</title><path d="M248.4,83.5c-1.1,15.3-15.9,25-30.3,26v-26Zm-52.5,0c.9,8.7,2.5,17.2,5,23.7h-.5a100.7,100.7,0,0,1-7.3-23.6Zm-20.2,0a66.5,66.5,0,0,0,4.7,11.7l-.9-.8a59.6,59.6,0,0,1-5.7-10.9Zm-7.5,0c8.7,18.6,27.2,30.7,50.2,30.7,16.9-.1,44.8-10.5,46.5-30.7h7.7c-9.7,19.5-30.4,33-54.3,33a60.6,60.6,0,0,1-54.3-33h4.2" style="fill:#007550"/><path d="M177.2,37.2a19.8,19.8,0,0,1-2.4-8.1,15.4,15.4,0,0,1,1.4-7.8,57.8,57.8,0,0,0-6.2,8.9c-2.7,4.7-5.1,10.4-5.1,15.9s1.6,7.9,3.8,11.9a17.6,17.6,0,0,0,1.4,2.3A60.2,60.2,0,0,1,177.2,37.2Zm16.2,13.4a36.9,36.9,0,0,1-10.5-6.5,35.5,35.5,0,0,1-3.8-4,71.5,71.5,0,0,0-5.4,24.7c5.2,5.6,12,9.4,18.4,11.9a72.4,72.4,0,0,1-.5-12.2,75.7,75.7,0,0,1,1.8-13.9Zm47.4-22.5c0,13-13.5,21.7-22.7,21.7V25.9l2.3-.4,2.7-1s2.4-1.1,2.1-1.7-2.1.3-2.5.4a21.5,21.5,0,0,1-4.6.7c-4.7,0-14-2.3-14-9s10.8-8.6,14.1-8.6c12,0,22.6,9.6,22.6,21.8ZM218.1,83.5V54.1c15,.9,30.3,11.2,30.3,27.6v1.8Zm-54.1,0a56.4,56.4,0,0,1-5.9-25.3C158.1,26.1,185,0,218.3,0s60.3,26.1,60.3,58.2a56.5,56.5,0,0,1-6,25.3h-7.7V81.7c0-16.6-17.4-27-30.7-30C246.9,47.9,256.6,39,256.6,28c0-17.8-23.3-26.4-38.5-26.2s-38.4,7.9-38.4,26a21.2,21.2,0,0,0,.5,4.4c5.5-8.1,12.8-14.8,21.2-18.4l-.3,1.1a48.8,48.8,0,0,0-19.8,20.5c2.3,5.3,6.9,9.9,12.6,13.1a99.1,99.1,0,0,1,10.6-26.4c.2.3.5.4.7.6a117.5,117.5,0,0,0-8.4,27.2l4.4,1.7c1.8.5,3.5,1.1,5.4,1.5v1.2a50.5,50.5,0,0,1-10.2-2.4,97.7,97.7,0,0,0-1.3,12.7c-.1,4.3,0,8.7.3,13.3l3.4,1c2.5.7,5.1,1.3,7.7,1.8v1.4A104.6,104.6,0,0,1,195.5,80c.1,1.2.2,2.4.4,3.5h-2.8c-.2-1.4-.5-2.9-.7-4.3-2.5-.8-5-1.8-7.7-2.9A48.9,48.9,0,0,1,173.6,70a60.4,60.4,0,0,0,2.1,13.5h-1.9A51.9,51.9,0,0,1,170,66.9a34.7,34.7,0,0,1-7.3-10.2v1.4a59.9,59.9,0,0,0,5.5,25.4H164" style="fill:#007550"/><path d="M425.4,218.6a2,2,0,0,1,.1.7h-.7l-.6-.7h1.2" style="fill:#231f20"/><path d="M349.3,179.2c0,23.1-16.1,38.7-41.3,38.7s-40.6-15.6-40.6-39.7,16.1-38.9,41.3-38.9S349.3,155.2,349.3,179.2Zm-90.7,17.4c0,12.3-11.5,21.9-26.6,21.9a37.8,37.8,0,0,1-20.9-5.8c-1.3-6.2-1.1-12.4-1.5-18.8h1.9c4,14.1,10.8,21.3,21.6,21.3,8.8,0,14.7-6,14.7-13.5s-4.1-12.2-11.6-16.4l-9.2-5.1c-9.4-5.2-13.8-12.1-13.8-20,0-11.9,9.2-21.1,23.6-21.1a41.9,41.9,0,0,1,19.4,4.8c-.7,5.1-.4,10.6-.6,16.7h-2c-1.6-12.4-9.4-18.5-18-18.5s-12.8,5.4-12.8,13.1c0,5.1,3.3,10.8,9.6,14.3l13.5,7.6c8.8,5,12.7,11.4,12.7,19.6Zm-57.9.5c0,6.4-3.2,12-9.4,15.7s-13.7,3.9-23.4,3.9h-3.7c-14.7,0-9.3-.1-12.9-.1,0,0,.1-6,.1-16.9V157.5c0-10.6-1.3-13.9-12.9-15v-1.9c12.1,0,20.1-.2,23.9-.2,22.3,0,33.4,4.7,33.4,17.4,0,9.6-5.9,14.9-18.6,18v.6c15.8,3.6,23.5,10.1,23.5,20.7Zm-56.8,19.4-16.2-.2-16.2.2v-1.8c5.6-.5,8.7-3.1,8.7-6.4a22,22,0,0,0-1.7-7.4l-5.7-16.1H86.9l-2,6.2c-2.7,8.1-4.2,13.5-4.2,16.7,0,4.7,4.1,6.7,12.5,7v1.8L77,216.3l-14.5.2v-1.8c4.4-.8,7.4-1.9,9.5-4.3s6.5-14.2,13.7-33.3l12.5-32.9-.5-2.2c3.1-1,5.4-3,7.8-6l24,65c3.4,9.1,6.1,13.3,14.4,13.7v1.8ZM64,197.1c0,6.4-3.3,12-9.4,15.7s-13.7,3.9-23.4,3.9H0v-1.8c12-1.4,14.6-4.2,14.6-15.1V157.5c0-10.6-1.3-13.9-12.9-15v-1.9c12.1,0,20.1-.2,23.9-.2,22.3,0,33.5,4.7,33.5,17.4,0,9.6-5.9,14.9-18.7,18v.6C56.2,180,64,186.5,64,197.1Zm272.5-17c0-9.5-2.5-18.3-6.8-24.7-5.7-8.7-12.8-13-22.2-13-15.8,0-27.1,13.2-27.1,34.2,0,22.8,12.3,38.1,28.7,38.1S336.5,201.5,336.5,180.1ZM185.1,159.8c0-10.1-8.3-16.7-23.5-17.2v33.7C177.4,175.9,185.1,170.4,185.1,159.8Zm4,38.8c0-11.7-9.1-20-23.9-20h-3.6v20.7c0,10,.9,14.7,11,14.7s16.5-6.3,16.5-15.5Zm-78.2-18.5L99.6,149.9,88.7,180.1ZM48.4,159.8c0-10.1-8.4-16.7-23.6-17.2v33.7C40.6,175.9,48.4,170.4,48.4,159.8Zm3.9,38.8c0-11.7-9-20-23.9-20H24.8v20.7c0,10,.9,14.7,11,14.7s16.5-6.3,16.5-15.5Zm371.9,20c-6.3-7.1-9.8-11.2-10.8-12.2l-46.1-48.9V179c0,15.4.1,25.1,2.7,29.3s6.2,5,13.2,6.4v1.8l-17.1-.2-16.9.2v-1.8c12.5-.6,14.5-7.7,14.5-26.5V167.3c0-2.8.1-5.2.1-7.2,0-5.5-.6-9.4-4.6-13.1s-6.6-4.1-11.4-4.5v-1.9h19.1L421.3,199V173.8c0-13.6-.1-22.2-3.4-26.5s-6.4-4.3-12.3-4.8v-1.9h30.7v1.9h-.9c-8.5,0-10.5,8.4-10.5,27.6v23.3c0,8.6.1,17.1.5,25.2h-1.2" style="fill:#ccc"/></svg>