<svg xmlns="http://www.w3.org/2000/svg" viewBox="0 0 600.2 144.6"><title>Asset 7</title><path d="M0,72.3C0,38.5,23.7,9.6,56.6,2.2c7-1.6,9.7.1,9.3,7.1a25.5,25.5,0,0,0,.4,5.5c1.7,13,4.5,24.1-13.1,31.5-15,6.3-18.1,23.1-11.7,38.6S60.7,107.7,77.2,105s26-13.1,28-30c1.2-10.1,10.4-6.6,15.8-7.9,25.3-6.1,27.5-3.5,21.2,22.4-8.4,34.4-42.4,58.7-76.5,54.6C27.3,139.6,0,109.7,0,72.3Z" style="fill:#68b359"/><path d="M303.7,93.4a31.6,31.6,0,1,1-63.2-.1c0-17.6,14.1-31.4,32.1-31.5S303.8,75.7,303.7,93.4Zm-31.1,17.3c9.9-1.3,16.3-6.6,16.3-17.1s-6.1-17.2-16.8-17.2-16.8,7-16.7,17.4S261.9,109.7,272.6,110.7Z" style="fill:#fff"/><path d="M532.9,93.8c0,17-14.4,31.4-31.2,31.2s-31.9-14.1-31.8-31.6,14.2-31.8,32.3-31.6S533,75.8,532.9,93.8Zm-14.5,0c-1.1-10.6-6.4-17.5-17-17.4s-16.5,6.5-16.6,16.9,6,17,16.8,17S517.2,103.7,518.4,93.8Z" style="fill:#fff"/><path d="M370.3,103.4c-6.2,14.9-16.8,22.9-31.7,21.3-19.2-1.9-30.4-13.5-29.6-33.5.8-17.8,11.9-27.8,29.1-29.1,15.2-1.2,26.3,6.1,32.2,21.6-7.8-.6-14.6,1.5-21.2-4.4S334,74.7,328,81.4s-6.2,15.9-.1,23.3,13.8,8.6,20.4,3.1S362.1,103.6,370.3,103.4Z" style="fill:#fff"/><path d="M465.3,103.6c-7.7,16-19.4,23.9-36.1,20.5S402.9,109,403.6,91.5,414.8,64,431.5,62.2s27.1,5.6,33.7,21.2c-8-.1-14.9,1.8-21.8-4.4s-15.2-3.7-21,2.8-6,15.5.1,22.8,13.6,9,20.4,3.3S456.9,103.4,465.3,103.6Z" style="fill:#fff"/><path d="M600.2,103.2c-7.6,15.9-19,23.5-35.4,21.1s-24.3-11.7-26.4-26.7,4.1-26.6,18-32.8,26.8-3.3,37.1,8.1c2.5,2.8,3.5,6.9,5.1,10.4-5.6,0-11.8,2.6-16.7-1.5-8-7-16.3-8.4-24-.9s-7.5,16.3-.7,23.8,15.4,8,23.8.8C586.5,100.8,593.2,104.2,600.2,103.2Z" style="fill:#fff"/><path d="M225.3,84.3c-2-.8-5.7-1.2-8.1-3.3-8-6.7-16-7-23.2.1s-7.1,16.2-.5,23.8,15.4,7.8,23.1,1.2c5.8-5,12-2.1,18-2.5.4,5.7-3.5,9.1-6.9,12.5-13,12.7-33.6,11.6-45.9-2.2s-9.7-34.1,3.9-45.1,35-8.5,45.4,5.6c1.8,2.4,2.6,5.6,3.8,8.4Z" style="fill:#fff"/><path d="M95.2,72.3c-1.5,14-8.8,22.7-23,22.7S49.5,86.6,49.4,72.5,58,50,72,49.9,93.6,58.5,95.2,72.3Z" style="fill:#68b359"/><path d="M140.6,4.4a29.5,29.5,0,0,1-3.3,4.4Q117.8,27.3,98,45.6c-1.2,1-3.4.9-5.1,1.3,0-1.6-.6-3.6,0-4.9,6.2-12.3,11.9-25,19.2-36.6C117.9-4,128.2,2,136.5.9,137.6.8,139,3,140.6,4.4Z" style="fill:#68b359"/><path d="M127.6,36.3c6.3.6,9.1,2.5,9.9,6.4s-.8,7.4-4.8,8.8c-8.6,3-17.3,5.8-26.1,8.5-1.1.4-2.8-.3-3.9-1s-.8-2.3-.4-2.6C111.1,49.3,120,42.3,127.6,36.3Z" style="fill:#ef7f26"/><path d="M85.7,1.8c6.3,1.6,9.8,4.6,7.5,10.8-3,8.3-6.4,16.4-9.9,24.5-.5,1.3-2.1,2.3-3.4,3s-2.3-.8-2.3-1.3c.1-11.5-1.7-23.2,3-34.1C81.3,3.2,84.1,2.6,85.7,1.8Z" style="fill:#ef7f26"/><path d="M250.5,61.4c15-24.1,28-24.1,41-3.1C278.2,56.3,265.8,51.7,250.5,61.4Z" style="fill:#fff"/><path d="M483.9,54.6c10.2-17.2,22.5-17.3,34.5,0Z" style="fill:#fff"/><path d="M519.8,35.5c4.6-5.3,8.9-11,13.9-15.9,1.5-1.5,5-1,7.7-1.4-.8,2.4-.8,5.7-2.5,6.9-5.6,4.4-11.8,8.1-17.7,12.1Z" style="fill:#ef7f26"/><path d="M524.9,40.4c6.8-3.1,13.6-6.5,20.6-9.4,1.3-.5,3.5,1.2,5.2,1.8-1.1,1.8-1.8,4.9-3.3,5.3-7.1,2-14.4,3.2-21.7,4.8A24.1,24.1,0,0,1,524.9,40.4Z" style="fill:#ef7f26"/><path d="M296.7,40.3c7-3.3,13.8-6.7,20.9-9.6,1.4-.5,3.6,1.3,5.5,1.9-1.3,1.9-2.2,5.1-3.9,5.5-7,2-14.3,3.2-21.6,4.6Z" style="fill:#68b359"/><path d="M286.6,29.6c2.5-6.4,4.7-13.1,7.8-19.2.8-1.7,4.7-1.9,7.1-2.7.1,1.9,1.1,4.4.2,5.6-4.1,6.1-8.7,11.9-13.1,17.7Z" style="fill:#68b359"/><path d="M292,35.1c4.8-5.5,9.5-11.2,14.7-16.3,1.3-1.3,4.5-.5,6.9-.6-.7,2.4-.7,5.7-2.3,6.9-5.6,4.3-11.7,7.9-17.6,11.8Z" style="fill:#68b359"/><path d="M514.3,29.8c2.9-6.9,5.6-14,9.1-20.8.5-1.1,4.1-.8,6.3-1.1.1,1.6.8,3.6.1,4.6-4.2,6.3-8.8,12.4-13.3,18.6Z" style="fill:#ef7f26"/></svg>