<svg xmlns="http://www.w3.org/2000/svg" viewBox="0 0 428.4 175.9"><title>Asset 13</title><path d="M428.1,60.6H415.8L391.7,21.8V60.5H380.3V.1h11.8l24.7,40V0h11.3Z" style="fill:#fefafa"/><path d="M286.6.2V60.4H274.2L250.1,21.8V60.5H238.8V0h11.7L275,39.8V.2Z" style="fill:#fefafa"/><path d="M79.8,60.4V.1h44.7V10.2H92.2V23.5h30.1V33.8H92.2V50.3h33.5V60.4Z" style="fill:#fefafa"/><path d="M174.2,0h13c8.1,20.1,16.2,40.2,24.3,60.5H198.1c-1.7-4.4-3.5-8.8-5.3-13.4H168.6c-1.6,4.4-3.3,8.8-5,13.4h-13Zm14.5,36.3C186,29,183.3,22,180.5,14.4c-2.8,7.7-5.3,14.7-8,21.9Z" style="fill:#fefafa"/><path d="M415.1,124.5h9.1v51.3h-6.5V135.2h-.6c-4.7,13.5-9.5,27.1-14.3,40.7h-6.3l-14.7-42.9v42.9h-6.5V124.6h10.2c4.7,14.2,9.5,28.5,14.5,43.7C405.3,153.1,410.2,138.8,415.1,124.5Z" style="fill:#fefafa"/><path d="M18.5.5V50.3H48.9V60.4H6.5V.5Z" style="fill:#fefafa"/><path d="M249.6,135.9v39.9h-6.4V124.6h6.9l26.8,39.7V124.6h6.6v51.2h-7Z" style="fill:#fefafa"/><path d="M148.8,152.3h-28v17.5H152v6H113.9V124.6h36.9v5.9H120.7v15.7h28.1Z" style="fill:#fefafa"/><path d="M318.4,160.5l-5.5,15.3h-7.4c6.7-17.2,13.2-34.2,19.8-51.2h7.4l21,51.2h-7.8l-6-15.3Zm19.3-5.8c-2.9-7.9-5.8-15.6-8.7-23.7-2.9,8.2-5.6,15.8-8.3,23.7Z" style="fill:#fefafa"/><path d="M344.7,60.5H332.6V0h12.1Z" style="fill:#fef2f2"/><path d="M27,175.9H19.9c-6.5-17-13.2-34-19.9-51.3H7.5l16,44.9,16.6-44.9h7.1Z" style="fill:#fefafa"/><path d="M193.5,130.6H176.6v-5.9h40.6v5.8H200.5v45.3h-7Z" style="fill:#fef2f2"/><path d="M428.4,81.5v5.2h-96V81.5Z" style="fill:#fef2f2"/><path d="M81.4,124.7v51.1H74.7V124.7Z" style="fill:#fef2f2"/></svg>